SplineFontDB: 3.0
FontName: AV-Magellanicus-Regular
FullName: AV Magellanicus Regular
FamilyName: AV-Magellanicus
Weight: Regular
Copyright: Copyright 2015 The Cormorant Project Authors \\(github.com/CatharsisFonts/Cormorant\\)
Version: 2018.3505
ItalicAngle: 0
UnderlinePosition: -100
UnderlineWidth: 50
Ascent: 800
Descent: 200
InvalidEm: 0
sfntRevision: 0x00038148
LayerCount: 2
Layer: 0 0 "Back" 1
Layer: 1 0 "Fore" 0
XUID: [1021 894 1065283359 5614284]
StyleMap: 0x0040
FSType: 0
OS2Version: 4
OS2_WeightWidthSlopeOnly: 0
OS2_UseTypoMetrics: 1
CreationTime: 1525446983
ModificationTime: 1540590529
PfmFamily: 81
TTFWeight: 400
TTFWidth: 5
LineGap: 0
VLineGap: 0
Panose: 2 7 5 2 4 5 6 3 13 3
OS2TypoAscent: 924
OS2TypoAOffset: 0
OS2TypoDescent: -287
OS2TypoDOffset: 0
OS2TypoLinegap: 0
OS2WinAscent: 937
OS2WinAOffset: 0
OS2WinDescent: 283
OS2WinDOffset: 0
HheadAscent: 924
HheadAOffset: 0
HheadDescent: -287
HheadDOffset: 0
OS2SubXSize: 650
OS2SubYSize: 600
OS2SubXOff: 0
OS2SubYOff: 75
OS2SupXSize: 650
OS2SupYSize: 600
OS2SupXOff: 0
OS2SupYOff: 350
OS2StrikeYSize: 50
OS2StrikeYPos: 231
OS2CapHeight: 625
OS2XHeight: 386
OS2Vendor: 'UKWN'
OS2CodePages: 20000197.00000000
OS2UnicodeRanges: 20000207.00000001.00000000.00000000
Lookup: 1 0 0 "'aalt' Access All Alternates lookup 0" { "'aalt' Access All Alternates lookup 0 subtable"  } ['aalt' ('DFLT' <'dflt' > 'cyrl' <'BGR ' 'MKD ' 'SRB ' 'dflt' > 'latn' <'AZE ' 'CAT ' 'CRT ' 'HUN ' 'KAZ ' 'MOL ' 'NLD ' 'PLK ' 'ROM ' 'TAT ' 'TRK ' 'dflt' > ) ]
Lookup: 3 0 0 "'aalt' Access All Alternates lookup 1" { "'aalt' Access All Alternates lookup 1 subtable"  } ['aalt' ('DFLT' <'dflt' > 'cyrl' <'BGR ' 'MKD ' 'SRB ' 'dflt' > 'latn' <'AZE ' 'CAT ' 'CRT ' 'HUN ' 'KAZ ' 'MOL ' 'NLD ' 'PLK ' 'ROM ' 'TAT ' 'TRK ' 'dflt' > ) ]

StartChar: .notdef
Encoding: 65536 -1 0
Width: 501
Flags: MW
HStem: -275 69<167 333 167 411> -173 47<167 237 232 232 232 237 301 333> -92 22<167 333 167 333> -37 48<200 301 200 301> 43 60<167 333 167 333> 136 24<233 267 233 301> 216 23<167 200 167 333 233 233 233 333> 273 22<167 267 167 301 167 267> 329 36<167 233 167 233> 398 28<167 333 167 333> 460 35<200 233 200 233 200 333 200 267> 529 27<167 267 167 333> 588 38<168 233 168 233 167 233 168 267 267 333> 658 67<168 333 168 168>
VStem: 94 73<-206 -173 -126 -92 -70 43 103 216 239 273 295 329 365 398 426 529 556 588> 200 33<160 160 160 216 460 495> 267 34<160 184 295 338> 333 78<-206 -173 -173 -173 -126 -92 -92 -92 -70 43 43 43 103 216 216 216 239 338 338 338 365 398 398 398 426 460 460 460 556 588 588 588 626 658 658 658>
LayerCount: 2
Fore
SplineSet
94 -275 m 1
 94 725 l 1
 411 725 l 1
 411 -275 l 1
 94 -275 l 1
168 626 m 1
 233 626 l 1
 233 588 l 1
 167 588 l 1
 167 556 l 1
 333 556 l 1
 333 588 l 1
 267 588 l 1
 267 626 l 1
 333 626 l 1
 333 658 l 1
 168 658 l 1
 168 626 l 1
167 426 m 1
 333 426 l 1
 333 460 l 1
 267 460 l 1
 267 529 l 1
 167 529 l 1
 167 426 l 1
200 460 m 1
 200 495 l 1
 233 495 l 1
 233 460 l 1
 200 460 l 1
167 365 m 1
 233 365 l 1
 233 329 l 1
 167 329 l 1
 167 295 l 1
 267 295 l 1
 267 365 l 1
 333 365 l 1
 333 398 l 1
 167 398 l 1
 167 365 l 1
301 273 m 1
 167 273 l 1
 167 239 l 1
 333 239 l 1
 333 338 l 1
 301 338 l 1
 301 273 l 1
233 160 m 1
 267 160 l 1
 267 184 l 1
 301 184 l 1
 301 136 l 1
 200 136 l 1
 200 216 l 1
 167 216 l 1
 167 103 l 1
 333 103 l 1
 333 216 l 1
 233 216 l 1
 233 160 l 1
167 -70 m 1
 333 -70 l 1
 333 43 l 1
 167 43 l 1
 167 -70 l 1
200 -37 m 1
 200 11 l 1
 301 11 l 1
 301 -37 l 1
 200 -37 l 1
167 -126 m 1
 237 -126 l 1
 167 -173 l 1
 167 -206 l 1
 333 -206 l 1
 333 -173 l 1
 232 -173 l 1
 301 -126 l 1
 333 -126 l 1
 333 -92 l 1
 167 -92 l 1
 167 -126 l 1
EndSplineSet
Validated: 1
EndChar

StartChar: A
Encoding: 65 65 1
Width: 702
GlyphClass: 2
Flags: HMW
HStem: 0 12<-2 21.5 209 232 474 495.5 680 701.5> 275 20<216 437 216 446 208 437> 617 20G
VStem: -3.5 135.04 335 13<634 634> 547.3 155.45
AnchorPoint: "Anchor-15" 0 0 basechar 0
AnchorPoint: "Anchor-14" 341 625 basechar 0
AnchorPoint: "Anchor-13" 664 12 basechar 0
AnchorPoint: "Anchor-12" 352 0 basechar 0
LayerCount: 2
Fore
SplineSet
699 12 m 0
 704 12 704 0 699 0 c 0
 661 0 619 4 582 4 c 0
 540 4 514 0 477 0 c 0
 471 0 471 12 477 12 c 0
 526 12 548 20 548 43 c 0
 548 54 543 68 535 86 c 2
 446 275 l 1
 208 275 l 1
 145 127 l 2
 136 105 131 87 131 72 c 0
 131 30 165 12 229 12 c 0
 235 12 235 0 229 0 c 0
 189 0 162 4 111 4 c 0
 63 4 42 0 1 0 c 0
 -5 0 -5 12 1 12 c 0
 55 12 82 37 124 136 c 2
 335 634 l 2
 337 638 347 638 348 634 c 2
 584 137 l 2
 630 37 656 12 699 12 c 0
216 295 m 1
 437 295 l 1
 320 542 l 1
 216 295 l 1
EndSplineSet
Validated: 1
Substitution2: "Single Substitution lookup 62 subtable" ordfeminine
Substitution2: "'ss01' Style Set 1 lookup 54 subtable" A.ss01
AlternateSubs2: "'aalt' Access All Alternates lookup 1 subtable" ordfeminine A.ss01
Position2: "'cpsp' Capital Spacing lookup 0 subtable" dx=5 dy=0 dh=10 dv=0
EndChar

StartChar: Aacute
Encoding: 193 193 2
Width: 702
GlyphClass: 2
Flags: HMW
HStem: 0 12<-2 21.5 209 232 474 495.5 680 701.5> 275 20<216 437 216 446 208 437> 617 20G 678 11
VStem: -3.5 135.04 -3.5 706.25 335 13<634 634> 547.3 155.45
AnchorPoint: "Anchor-15" 0 0 basechar 0
AnchorPoint: "Anchor-14" 355 784 basechar 0
AnchorPoint: "Anchor-13" 664 12 basechar 0
AnchorPoint: "Anchor-12" 352 0 basechar 0
LayerCount: 2
Fore
SplineSet
244 678 m 0xf4
 238 676 235 687 239 689 c 0
 301 720 350 754 402 783 c 0
 403 784 404 784 406 784 c 0
 421 784 468 764 468 758 c 0
 468 757 468 756 466 756 c 0
 377 733 312 709 244 678 c 0xf4
699 12 m 0xfb
 704 12 704 0 699 0 c 0
 661 0 619 4 582 4 c 0
 540 4 514 0 477 0 c 0
 471 0 471 12 477 12 c 0
 526 12 548 20 548 43 c 0
 548 54 543 68 535 86 c 2
 446 275 l 1
 208 275 l 1
 145 127 l 2
 136 105 131 87 131 72 c 0
 131 30 165 12 229 12 c 0
 235 12 235 0 229 0 c 0
 189 0 162 4 111 4 c 0
 63 4 42 0 1 0 c 0
 -5 0 -5 12 1 12 c 0
 55 12 82 37 124 136 c 2
 335 634 l 2
 337 638 347 638 348 634 c 2
 584 137 l 2
 630 37 656 12 699 12 c 0xfb
216 295 m 1
 437 295 l 1
 320 542 l 1
 216 295 l 1
EndSplineSet
Validated: 1
Substitution2: "'locl' Localized Forms in Latin lookup 8 subtable" Aacute.loclHUN
Substitution2: "'aalt' Access All Alternates lookup 0 subtable" Aacute.loclHUN
Position2: "'cpsp' Capital Spacing lookup 0 subtable" dx=5 dy=0 dh=10 dv=0
EndChar

StartChar: Abreve
Encoding: 258 258 3
Width: 702
GlyphClass: 2
Flags: HMW
HStem: 0 12<-2 21.5 209 232 474 495.5 680 701.5> 275 20<216 437 216 446 208 437> 617 20G 690 43<319.5 362 319.5 369.5>
VStem: -3.5 135.04 238 11 335 13<634 634> 432 11 547.3 155.45
AnchorPoint: "Anchor-15" 0 0 basechar 0
AnchorPoint: "Anchor-14" 341 625 basechar 0
AnchorPoint: "Anchor-13" 664 12 basechar 0
AnchorPoint: "Anchor-12" 352 0 basechar 0
LayerCount: 2
Fore
SplineSet
341 690 m 0
 284 690 248 729 238 797 c 0
 237 802 247 803 249 800 c 0
 258 764 298 733 341 733 c 0
 383 733 423 764 432 800 c 0
 433 803 444 802 443 797 c 0
 433 729 398 690 341 690 c 0
699 12 m 0
 704 12 704 0 699 0 c 0
 661 0 619 4 582 4 c 0
 540 4 514 0 477 0 c 0
 471 0 471 12 477 12 c 0
 526 12 548 20 548 43 c 0
 548 54 543 68 535 86 c 2
 446 275 l 1
 208 275 l 1
 145 127 l 2
 136 105 131 87 131 72 c 0
 131 30 165 12 229 12 c 0
 235 12 235 0 229 0 c 0
 189 0 162 4 111 4 c 0
 63 4 42 0 1 0 c 0
 -5 0 -5 12 1 12 c 0
 55 12 82 37 124 136 c 2
 335 634 l 2
 337 638 347 638 348 634 c 2
 584 137 l 2
 630 37 656 12 699 12 c 0
216 295 m 1
 437 295 l 1
 320 542 l 1
 216 295 l 1
EndSplineSet
Validated: 1
Position2: "'cpsp' Capital Spacing lookup 0 subtable" dx=5 dy=0 dh=10 dv=0
EndChar

StartChar: uni1EAE
Encoding: 7854 7854 4
Width: 702
GlyphClass: 2
Flags: HMW
HStem: 0 12<-2 21.5 209 232 474 495.5 680 701.5> 275 20<216 437 216 446 208 437> 617 20G 657 43<319.5 362 319.5 369.5>
VStem: -3.5 135.04 238 11 335 13<634 634> 432 11 547.3 155.45
AnchorPoint: "Anchor-15" 0 0 basechar 0
AnchorPoint: "Anchor-14" 343 858 basechar 0
AnchorPoint: "Anchor-13" 664 12 basechar 0
AnchorPoint: "Anchor-12" 352 0 basechar 0
LayerCount: 2
Fore
SplineSet
287 751 m 0
 281 748 277 755 280 759 c 0
 308 790 334 824 356 856 c 0
 357 857 358 857 360 857 c 0
 376 857 423 837 423 830 c 0
 423 829 423 828 421 828 c 0
 367 806 328 781 287 751 c 0
341 657 m 0xff80
 284 657 248 695 238 764 c 0
 237 769 247 770 249 766 c 0
 258 730 298 700 341 700 c 0
 383 700 423 730 432 766 c 0
 433 770 444 769 443 764 c 0
 433 695 398 657 341 657 c 0xff80
699 12 m 0
 704 12 704 0 699 0 c 0
 661 0 619 4 582 4 c 0
 540 4 514 0 477 0 c 0
 471 0 471 12 477 12 c 0
 526 12 548 20 548 43 c 0
 548 54 543 68 535 86 c 2
 446 275 l 1
 208 275 l 1
 145 127 l 2
 136 105 131 87 131 72 c 0
 131 30 165 12 229 12 c 0
 235 12 235 0 229 0 c 0
 189 0 162 4 111 4 c 0
 63 4 42 0 1 0 c 0
 -5 0 -5 12 1 12 c 0
 55 12 82 37 124 136 c 2
 335 634 l 2
 337 638 347 638 348 634 c 2xef80
 584 137 l 2
 630 37 656 12 699 12 c 0
216 295 m 1xef80
 437 295 l 1
 320 542 l 1
 216 295 l 1xef80
EndSplineSet
Validated: 1
Position2: "'cpsp' Capital Spacing lookup 0 subtable" dx=5 dy=0 dh=10 dv=0
EndChar

StartChar: uni1EB6
Encoding: 7862 7862 5
Width: 702
GlyphClass: 2
Flags: HMW
HStem: -190 84<339 366.5> 0 12<-2 21.5 209 232 474 495.5 680 701.5> 275 20<216 437 216 446 208 437> 617 20G 690 43<319.5 362 319.5 369.5>
VStem: -3.5 135.04 238 11 309 86<-161.5 -134.5> 335 13<634 634> 432 11 547.3 155.45
AnchorPoint: "Anchor-15" 0 0 basechar 0
AnchorPoint: "Anchor-14" 341 625 basechar 0
AnchorPoint: "Anchor-13" 664 12 basechar 0
AnchorPoint: "Anchor-12" 354 -207 basechar 0
LayerCount: 2
Fore
SplineSet
341 690 m 0xff60
 284 690 248 729 238 797 c 0
 237 802 247 803 249 800 c 0
 258 764 298 733 341 733 c 0
 383 733 423 764 432 800 c 0
 433 803 444 802 443 797 c 0
 433 729 398 690 341 690 c 0xff60
699 12 m 0
 704 12 704 0 699 0 c 0
 661 0 619 4 582 4 c 0
 540 4 514 0 477 0 c 0
 471 0 471 12 477 12 c 0
 526 12 548 20 548 43 c 0
 548 54 543 68 535 86 c 2
 446 275 l 1
 208 275 l 1
 145 127 l 2
 136 105 131 87 131 72 c 0
 131 30 165 12 229 12 c 0
 235 12 235 0 229 0 c 0
 189 0 162 4 111 4 c 0
 63 4 42 0 1 0 c 0
 -5 0 -5 12 1 12 c 0
 55 12 82 37 124 136 c 2
 335 634 l 2
 337 638 347 638 348 634 c 2xfee0
 584 137 l 2
 630 37 656 12 699 12 c 0
216 295 m 1
 437 295 l 1
 320 542 l 1
 216 295 l 1
353 -106 m 0
 380 -106 395 -121 395 -148 c 0
 395 -175 380 -190 353 -190 c 0
 325 -190 309 -175 309 -148 c 0
 309 -121 325 -106 353 -106 c 0
EndSplineSet
Validated: 1
Position2: "'cpsp' Capital Spacing lookup 0 subtable" dx=5 dy=0 dh=10 dv=0
EndChar

StartChar: uni1EB0
Encoding: 7856 7856 6
Width: 702
GlyphClass: 2
Flags: HMW
HStem: 0 12<-2 21.5 209 232 474 495.5 680 701.5> 275 20<216 437 216 446 208 437> 617 20G 657 43<319.5 362 319.5 369.5>
VStem: -3.5 135.04 238 11 335 13<634 634> 432 11 547.3 155.45
AnchorPoint: "Anchor-15" 0 0 basechar 0
AnchorPoint: "Anchor-14" 343 858 basechar 0
AnchorPoint: "Anchor-13" 664 12 basechar 0
AnchorPoint: "Anchor-12" 352 0 basechar 0
LayerCount: 2
Fore
SplineSet
259 828 m 0
 257 828 257 829 257 830 c 0
 257 837 305 857 320 857 c 0
 322 857 323 857 324 856 c 0
 346 824 371 792 400 760 c 0
 404 755 398 748 392 751 c 0
 351 781 313 806 259 828 c 0
341 657 m 0xff80
 284 657 248 695 238 764 c 0
 237 769 247 770 249 766 c 0
 258 730 298 700 341 700 c 0
 383 700 423 730 432 766 c 0
 433 770 444 769 443 764 c 0
 433 695 398 657 341 657 c 0xff80
699 12 m 0
 704 12 704 0 699 0 c 0
 661 0 619 4 582 4 c 0
 540 4 514 0 477 0 c 0
 471 0 471 12 477 12 c 0
 526 12 548 20 548 43 c 0
 548 54 543 68 535 86 c 2
 446 275 l 1
 208 275 l 1
 145 127 l 2
 136 105 131 87 131 72 c 0
 131 30 165 12 229 12 c 0
 235 12 235 0 229 0 c 0
 189 0 162 4 111 4 c 0
 63 4 42 0 1 0 c 0
 -5 0 -5 12 1 12 c 0
 55 12 82 37 124 136 c 2
 335 634 l 2
 337 638 347 638 348 634 c 2xef80
 584 137 l 2
 630 37 656 12 699 12 c 0
216 295 m 1xef80
 437 295 l 1
 320 542 l 1
 216 295 l 1xef80
EndSplineSet
Validated: 1
Position2: "'cpsp' Capital Spacing lookup 0 subtable" dx=5 dy=0 dh=10 dv=0
EndChar

StartChar: uni1EB2
Encoding: 7858 7858 7
Width: 702
GlyphClass: 2
Flags: HMW
HStem: 0 12<-2 21.5 209 232 474 495.5 680 701.5> 275 20<216 437 216 446 208 437> 617 20G 657 43<319.5 362 319.5 369.5> 849 8 854 22<317 365.5>
VStem: -3.5 135.04 238 11 325.7 13.3 335 13<634 634> 355 43<812 834> 432 11 547.3 155.45
AnchorPoint: "Anchor-15" 0 0 basechar 0
AnchorPoint: "Anchor-14" 343 885 basechar 0
AnchorPoint: "Anchor-13" 664 12 basechar 0
AnchorPoint: "Anchor-12" 352 0 basechar 0
LayerCount: 2
Fore
SplineSet
297 849 m 0xe7b8
 294 847 286 855 290 857 c 0xebb8
 311 870 335 876 350 876 c 0
 381 876 398 854 398 833 c 0
 398 793 338 772 338 741 c 0
 338 739 339 737 339 735 c 0
 341 732 329 731 328 735 c 0
 326 740 326 744 326 748 c 0
 326 775 355 795 355 823 c 0
 355 845 336 854 321 854 c 0
 313 854 304 852 297 849 c 0xe7b8
341 657 m 0xf798
 284 657 248 695 238 764 c 0
 237 769 247 770 249 766 c 0
 258 730 298 700 341 700 c 0
 383 700 423 730 432 766 c 0
 433 770 444 769 443 764 c 0
 433 695 398 657 341 657 c 0xf798
699 12 m 0
 704 12 704 0 699 0 c 0
 661 0 619 4 582 4 c 0
 540 4 514 0 477 0 c 0
 471 0 471 12 477 12 c 0
 526 12 548 20 548 43 c 0
 548 54 543 68 535 86 c 2
 446 275 l 1
 208 275 l 1
 145 127 l 2
 136 105 131 87 131 72 c 0
 131 30 165 12 229 12 c 0
 235 12 235 0 229 0 c 0
 189 0 162 4 111 4 c 0
 63 4 42 0 1 0 c 0
 -5 0 -5 12 1 12 c 0
 55 12 82 37 124 136 c 2
 335 634 l 2
 337 638 347 638 348 634 c 2xe758
 584 137 l 2
 630 37 656 12 699 12 c 0
216 295 m 1xe798
 437 295 l 1
 320 542 l 1
 216 295 l 1xe798
EndSplineSet
Validated: 1
Position2: "'cpsp' Capital Spacing lookup 0 subtable" dx=5 dy=0 dh=10 dv=0
EndChar

StartChar: uni1EB4
Encoding: 7860 7860 8
Width: 702
GlyphClass: 2
Flags: HMW
HStem: 0 12<-2 21.5 209 232 474 495.5 680 701.5> 275 20<216 437 216 446 208 437> 617 20G 670 43<322.5 365 322.5 372.5> 793 42<394.5 408> 818 41<276.5 290>
VStem: -3.5 135.04 241 11 335 13<634 634> 435 11 547.3 155.45
AnchorPoint: "Anchor-15" 0 0 basechar 0
AnchorPoint: "Anchor-14" 345 861 basechar 0
AnchorPoint: "Anchor-13" 664 12 basechar 0
AnchorPoint: "Anchor-12" 352 0 basechar 0
LayerCount: 2
Fore
SplineSet
216 791 m 0xf7e0
 213 789 206 794 209 798 c 0
 225 820 259 859 294 859 c 0xf7e0
 327 859 370 835 419 835 c 0
 444 835 456 848 468 862 c 0
 471 864 478 858 475 855 c 0
 439 805 420 793 396 793 c 0xfbe0
 352 793 315 818 265 818 c 0
 238 818 230 804 216 791 c 0xf7e0
435 780 m 0
 436 783 447 782 446 777 c 0
 436 709 401 670 344 670 c 0
 287 670 251 709 241 777 c 0
 240 782 250 783 252 780 c 0
 261 744 301 713 344 713 c 0
 386 713 426 744 435 780 c 0
699 12 m 0
 704 12 704 0 699 0 c 0
 661 0 619 4 582 4 c 0
 540 4 514 0 477 0 c 0
 471 0 471 12 477 12 c 0
 526 12 548 20 548 43 c 0
 548 54 543 68 535 86 c 2
 446 275 l 1
 208 275 l 1
 145 127 l 2
 136 105 131 87 131 72 c 0
 131 30 165 12 229 12 c 0
 235 12 235 0 229 0 c 0
 189 0 162 4 111 4 c 0
 63 4 42 0 1 0 c 0
 -5 0 -5 12 1 12 c 0
 55 12 82 37 124 136 c 2
 335 634 l 2
 337 638 347 638 348 634 c 2
 584 137 l 2
 630 37 656 12 699 12 c 0
216 295 m 1
 437 295 l 1
 320 542 l 1
 216 295 l 1
EndSplineSet
Validated: 1
Position2: "'cpsp' Capital Spacing lookup 0 subtable" dx=5 dy=0 dh=10 dv=0
EndChar

StartChar: uni01CD
Encoding: 461 461 9
Width: 702
GlyphClass: 2
Flags: HMW
HStem: 0 12<-2 21.5 209 232 474 495.5 680 701.5> 275 20<216 437 216 446 208 437> 617 20G 682.5 51.5 784 7<226 232>
VStem: -3.5 135.04 335 13<634 634> 547.3 155.45
AnchorPoint: "Anchor-15" 0 0 basechar 0
AnchorPoint: "Anchor-14" 341 625 basechar 0
AnchorPoint: "Anchor-13" 664 12 basechar 0
AnchorPoint: "Anchor-12" 352 0 basechar 0
LayerCount: 2
Fore
SplineSet
226 784 m 2
 223 786 230 792 232 791 c 2
 341 734 l 1
 449 791 l 2
 452 793 458 786 454 784 c 2
 352 687 l 2
 346 681 335 681 329 687 c 2
 226 784 l 2
699 12 m 0
 704 12 704 0 699 0 c 0
 661 0 619 4 582 4 c 0
 540 4 514 0 477 0 c 0
 471 0 471 12 477 12 c 0
 526 12 548 20 548 43 c 0
 548 54 543 68 535 86 c 2
 446 275 l 1
 208 275 l 1
 145 127 l 2
 136 105 131 87 131 72 c 0
 131 30 165 12 229 12 c 0
 235 12 235 0 229 0 c 0
 189 0 162 4 111 4 c 0
 63 4 42 0 1 0 c 0
 -5 0 -5 12 1 12 c 0
 55 12 82 37 124 136 c 2
 335 634 l 2
 337 638 347 638 348 634 c 2
 584 137 l 2
 630 37 656 12 699 12 c 0
216 295 m 1
 437 295 l 1
 320 542 l 1
 216 295 l 1
EndSplineSet
Validated: 1
Position2: "'cpsp' Capital Spacing lookup 0 subtable" dx=5 dy=0 dh=10 dv=0
EndChar

StartChar: Acircumflex
Encoding: 194 194 10
Width: 702
GlyphClass: 2
Flags: HMW
HStem: 0 12<-2 21.5 209 232 474 495.5 680 701.5> 275 20<216 437 216 446 208 437> 617 20G 648 7<226 232>
VStem: -3.5 135.04 -3.5 706.25 335 13<634 634> 547.3 155.45
AnchorPoint: "Anchor-15" 0 0 basechar 0
AnchorPoint: "Anchor-14" 462 670 basechar 0
AnchorPoint: "Anchor-13" 664 12 basechar 0
AnchorPoint: "Anchor-12" 352 0 basechar 0
LayerCount: 2
Fore
SplineSet
232 648 m 2xf1
 230 647 223 653 226 655 c 2
 329 752 l 2
 335 758 346 758 352 752 c 2
 454 655 l 2
 458 653 452 646 449 648 c 2
 341 705 l 1
 232 648 l 2xf1
699 12 m 0
 704 12 704 0 699 0 c 0
 661 0 619 4 582 4 c 0
 540 4 514 0 477 0 c 0
 471 0 471 12 477 12 c 0
 526 12 548 20 548 43 c 0
 548 54 543 68 535 86 c 2
 446 275 l 1
 208 275 l 1
 145 127 l 2
 136 105 131 87 131 72 c 0
 131 30 165 12 229 12 c 0
 235 12 235 0 229 0 c 0
 189 0 162 4 111 4 c 0
 63 4 42 0 1 0 c 0
 -5 0 -5 12 1 12 c 0
 55 12 82 37 124 136 c 2
 335 634 l 2
 337 638 347 638 348 634 c 2xeb
 584 137 l 2
 630 37 656 12 699 12 c 0
216 295 m 1xe4
 437 295 l 1
 320 542 l 1
 216 295 l 1xe4
EndSplineSet
Validated: 1
Position2: "'cpsp' Capital Spacing lookup 0 subtable" dx=5 dy=0 dh=10 dv=0
EndChar

StartChar: uni1EA4
Encoding: 7844 7844 11
Width: 702
GlyphClass: 2
Flags: HMW
HStem: 0 12<-2 21.5 209 232 474 495.5 680 701.5> 275 20<216 437 216 446 208 437> 617 20G 648 7<226 232>
VStem: -3.5 135.04 -3.5 706.25 335 13<634 634> 547.3 155.45
AnchorPoint: "Anchor-15" 0 0 basechar 0
AnchorPoint: "Anchor-14" 387 831 basechar 0
AnchorPoint: "Anchor-13" 664 12 basechar 0
AnchorPoint: "Anchor-12" 352 0 basechar 0
LayerCount: 2
Fore
SplineSet
407 724 m 0xe4
 401 721 397 728 400 732 c 0
 428 763 454 797 476 829 c 0
 476.662104092 829.882805457 478.164440024 830.278519992 480.292004534 830.278519992 c 0
 495.593261276 830.278519992 543.233589825 809.810740328 543.233589825 802.866426153 c 0
 543.233589825 802.026274364 542.536270761 801.38406769 541 801 c 0
 487 779 448 754 407 724 c 0xe4
232 648 m 2xf1
 230 647 223 653 226 655 c 2
 329 752 l 2
 335 758 346 758 352 752 c 2
 454 655 l 2
 458 653 452 646 449 648 c 2
 341 705 l 1
 232 648 l 2xf1
699 12 m 0
 704 12 704 0 699 0 c 0
 661 0 619 4 582 4 c 0
 540 4 514 0 477 0 c 0
 471 0 471 12 477 12 c 0
 525.957252412 12 547.813073335 19.607419365 547.813073335 43.3463752617 c 0
 547.813073335 54.0347163567 543.382453308 67.9932484489 535 86 c 2
 446 275 l 1
 208 275 l 1
 145 127 l 2
 135.940574969 105.150798455 131.49599148 86.7804774566 131.49599148 71.5863560214 c 0
 131.49599148 29.7569768451 165.181469932 12 229 12 c 0
 235 12 235 0 229 0 c 0
 189 0 162 4 111 4 c 0
 63 4 42 0 1 0 c 0
 -5 0 -5 12 1 12 c 0
 55 12 82 37 124 136 c 2
 335 634 l 2
 337 638 347 638 348 634 c 2xeb
 584 137 l 2
 630 37 656 12 699 12 c 0
216 295 m 1xe4
 437 295 l 1
 320 542 l 1
 216 295 l 1xe4
EndSplineSet
Validated: 1
Position2: "'cpsp' Capital Spacing lookup 0 subtable" dx=5 dy=0 dh=10 dv=0
EndChar

StartChar: uni1EAC
Encoding: 7852 7852 12
Width: 702
GlyphClass: 2
Flags: HMW
HStem: -190 84<339 366.5> 0 12<-2 21.5 209 232 474 495.5 680 701.5> 275 20<216 437 216 446 208 437> 617 20G 648 7<226 232>
VStem: -3.5 135.04 309 86<-161.5 -134.5> 335 13<634 634> 547.3 155.45
AnchorPoint: "Anchor-15" 0 0 basechar 0
AnchorPoint: "Anchor-14" 462 670 basechar 0
AnchorPoint: "Anchor-13" 664 12 basechar 0
AnchorPoint: "Anchor-12" 354 -207 basechar 0
LayerCount: 2
Fore
SplineSet
232 648 m 2xfe80
 230 647 223 653 226 655 c 2
 329 752 l 2
 335 758 346 758 352 752 c 2
 454 655 l 2
 458 653 452 646 449 648 c 2
 341 705 l 1
 232 648 l 2xfe80
699 12 m 0
 704 12 704 0 699 0 c 0
 661 0 619 4 582 4 c 0
 540 4 514 0 477 0 c 0
 471 0 471 12 477 12 c 0
 526 12 548 20 548 43 c 0
 548 54 543 68 535 86 c 2
 446 275 l 1
 208 275 l 1
 145 127 l 2
 136 105 131 87 131 72 c 0
 131 30 165 12 229 12 c 0
 235 12 235 0 229 0 c 0
 189 0 162 4 111 4 c 0
 63 4 42 0 1 0 c 0
 -5 0 -5 12 1 12 c 0
 55 12 82 37 124 136 c 2
 335 634 l 2
 337 638 347 638 348 634 c 2xf580
 584 137 l 2
 630 37 656 12 699 12 c 0
216 295 m 1xf680
 437 295 l 1
 320 542 l 1
 216 295 l 1xf680
353 -106 m 0
 380 -106 395 -121 395 -148 c 0
 395 -175 380 -190 353 -190 c 0
 325 -190 309 -175 309 -148 c 0
 309 -121 325 -106 353 -106 c 0
EndSplineSet
Validated: 1
Position2: "'cpsp' Capital Spacing lookup 0 subtable" dx=5 dy=0 dh=10 dv=0
EndChar

StartChar: uni1EA6
Encoding: 7846 7846 13
Width: 702
GlyphClass: 2
Flags: HMW
HStem: 0 12<-2 21.5 209 232 474 495.5 680 701.5> 275 20<216 437 216 446 208 437> 617 20G 648 7<226 232>
VStem: -3.5 135.04 -3.5 706.25 335 13<634 634> 547.3 155.45
AnchorPoint: "Anchor-15" 0 0 basechar 0
AnchorPoint: "Anchor-14" 378 824 basechar 0
AnchorPoint: "Anchor-13" 664 12 basechar 0
AnchorPoint: "Anchor-12" 352 0 basechar 0
LayerCount: 2
Fore
SplineSet
375 779 m 0xe4
 373 779 373 780 373 781 c 0
 373 788 421 808 436 808 c 0
 438 808 439 808 440 807 c 0
 462 775 487 743 516 711 c 0
 520 706 514 699 508 702 c 0
 467 732 429 757 375 779 c 0xe4
232 648 m 2xf1
 230 647 223 653 226 655 c 2
 329 752 l 2
 335 758 346 758 352 752 c 2
 454 655 l 2
 458 653 452 646 449 648 c 2
 341 705 l 1
 232 648 l 2xf1
699 12 m 0
 704 12 704 0 699 0 c 0
 661 0 619 4 582 4 c 0
 540 4 514 0 477 0 c 0
 471 0 471 12 477 12 c 0
 526 12 548 20 548 43 c 0
 548 54 543 68 535 86 c 2
 446 275 l 1
 208 275 l 1
 145 127 l 2
 136 105 131 87 131 72 c 0
 131 30 165 12 229 12 c 0
 235 12 235 0 229 0 c 0
 189 0 162 4 111 4 c 0
 63 4 42 0 1 0 c 0
 -5 0 -5 12 1 12 c 0
 55 12 82 37 124 136 c 2
 335 634 l 2
 337 638 347 638 348 634 c 2xeb
 584 137 l 2
 630 37 656 12 699 12 c 0
216 295 m 1xe4
 437 295 l 1
 320 542 l 1
 216 295 l 1xe4
EndSplineSet
Validated: 1
Position2: "'cpsp' Capital Spacing lookup 0 subtable" dx=5 dy=0 dh=10 dv=0
EndChar

StartChar: uni1EA8
Encoding: 7848 7848 14
Width: 702
GlyphClass: 2
Flags: HMW
HStem: 0 12<-2 21.5 209 232 474 495.5 680 701.5> 275 20<216 437 216 446 208 437> 617 20G 648 7<226 232> 838 8 843 22<411 459.5>
VStem: -3.5 135.04 335 13<634 634> 419.7 13.3 449 43<801 823> 547.3 155.45
AnchorPoint: "Anchor-15" 0 0 basechar 0
AnchorPoint: "Anchor-14" 361 862 basechar 0
AnchorPoint: "Anchor-13" 664 12 basechar 0
AnchorPoint: "Anchor-12" 352 0 basechar 0
LayerCount: 2
Fore
SplineSet
391 838 m 0xe7e0
 388 836 380 844 384 846 c 0xebe0
 405 859 429 865 444 865 c 0
 475 865 492 843 492 822 c 0
 492 782 432 761 432 730 c 0
 432 728 433 726 433 724 c 0
 435 721 423 720 422 724 c 0
 420 729 420 733 420 737 c 0
 420 764 449 784 449 812 c 0
 449 834 430 843 415 843 c 0
 407 843 398 841 391 838 c 0xe7e0
232 648 m 2xf7a0
 230 647 223 653 226 655 c 2
 329 752 l 2
 335 758 346 758 352 752 c 2
 454 655 l 2
 458 653 452 646 449 648 c 2
 341 705 l 1
 232 648 l 2xf7a0
699 12 m 0
 704 12 704 0 699 0 c 0
 661 0 619 4 582 4 c 0
 540 4 514 0 477 0 c 0
 471 0 471 12 477 12 c 0
 526 12 548 20 548 43 c 0
 548 54 543 68 535 86 c 2
 446 275 l 1
 208 275 l 1
 145 127 l 2
 136 105 131 87 131 72 c 0
 131 30 165 12 229 12 c 0
 235 12 235 0 229 0 c 0
 189 0 162 4 111 4 c 0
 63 4 42 0 1 0 c 0
 -5 0 -5 12 1 12 c 0
 55 12 82 37 124 136 c 2
 335 634 l 2
 337 638 347 638 348 634 c 2xe7a0
 584 137 l 2
 630 37 656 12 699 12 c 0
216 295 m 1xe7a0
 437 295 l 1
 320 542 l 1
 216 295 l 1xe7a0
EndSplineSet
Validated: 1
Position2: "'cpsp' Capital Spacing lookup 0 subtable" dx=5 dy=0 dh=10 dv=0
EndChar

StartChar: uni1EAA
Encoding: 7850 7850 15
Width: 702
GlyphClass: 2
Flags: HMW
HStem: 0 12<-2 21.5 209 232 474 495.5 680 701.5> 275 20<216 437 216 446 208 437> 617 20G 648 7<226 232> 769 42<399.5 413> 794 41<281.5 295>
VStem: -3.5 135.04 -3.5 706.25 335 13<634 634> 547.3 155.45
AnchorPoint: "Anchor-15" 0 0 basechar 0
AnchorPoint: "Anchor-14" 350 838 basechar 0
AnchorPoint: "Anchor-13" 664 12 basechar 0
AnchorPoint: "Anchor-12" 352 0 basechar 0
LayerCount: 2
Fore
SplineSet
221 767 m 0xe5
 218 765 211 770 214 774 c 0
 230 796 264 835 299 835 c 0xe5
 332 835 375 811 424 811 c 0
 449 811 461 824 473 838 c 0
 476 840 483 834 480 831 c 0
 444 781 425 769 401 769 c 0xe9
 357 769 320 794 270 794 c 0
 243 794 235 780 221 767 c 0xe5
352 752 m 2xf5
 454 655 l 2
 458 653 452 646 449 648 c 2
 341 705 l 1
 232 648 l 2
 230 647 223 653 226 655 c 2
 329 752 l 2
 335 758 346 758 352 752 c 2xf5
699 12 m 0xe6c0
 704 12 704 0 699 0 c 0
 661 0 619 4 582 4 c 0
 540 4 514 0 477 0 c 0
 471 0 471 12 477 12 c 0
 526 12 548 20 548 43 c 0
 548 54 543 68 535 86 c 2
 446 275 l 1
 208 275 l 1
 145 127 l 2
 136 105 131 87 131 72 c 0
 131 30 165 12 229 12 c 0
 235 12 235 0 229 0 c 0
 189 0 162 4 111 4 c 0
 63 4 42 0 1 0 c 0
 -5 0 -5 12 1 12 c 0
 55 12 82 37 124 136 c 2
 335 634 l 2
 337 638 347 638 348 634 c 2
 584 137 l 2
 630 37 656 12 699 12 c 0xe6c0
216 295 m 1
 437 295 l 1
 320 542 l 1
 216 295 l 1
EndSplineSet
Validated: 1
Position2: "'cpsp' Capital Spacing lookup 0 subtable" dx=5 dy=0 dh=10 dv=0
EndChar

StartChar: Adieresis
Encoding: 196 196 16
Width: 702
GlyphClass: 2
Flags: HMW
HStem: 0 12<-2 21.5 209 232 474 495.5 680 701.5> 275 20<216 437 216 446 208 437> 617 20G 717 82<240.5 267 416 442.5>
VStem: -3.5 135.04 211 84<745 771> 335 13<634 634> 386 85<745 771> 547.3 155.45
AnchorPoint: "Anchor-15" 0 0 basechar 0
AnchorPoint: "Anchor-14" 344 799 basechar 0
AnchorPoint: "Anchor-13" 664 12 basechar 0
AnchorPoint: "Anchor-12" 352 0 basechar 0
LayerCount: 2
Fore
SplineSet
254 717 m 0
 227 717 211 732 211 758 c 0
 211 784 227 799 254 799 c 0
 280 799 295 784 295 758 c 0
 295 732 280 717 254 717 c 0
429 717 m 0
 403 717 386 732 386 758 c 0
 386 784 403 799 429 799 c 0
 456 799 471 784 471 758 c 0
 471 732 456 717 429 717 c 0
699 12 m 0
 704 12 704 0 699 0 c 0
 661 0 619 4 582 4 c 0
 540 4 514 0 477 0 c 0
 471 0 471 12 477 12 c 0
 526 12 548 20 548 43 c 0
 548 54 543 68 535 86 c 2
 446 275 l 1
 208 275 l 1
 145 127 l 2
 136 105 131 87 131 72 c 0
 131 30 165 12 229 12 c 0
 235 12 235 0 229 0 c 0
 189 0 162 4 111 4 c 0
 63 4 42 0 1 0 c 0
 -5 0 -5 12 1 12 c 0
 55 12 82 37 124 136 c 2
 335 634 l 2
 337 638 347 638 348 634 c 2
 584 137 l 2
 630 37 656 12 699 12 c 0
216 295 m 1
 437 295 l 1
 320 542 l 1
 216 295 l 1
EndSplineSet
Validated: 1
Substitution2: "'ss04' Style Set 4 lookup 55 subtable" Adieresis.ss04
Substitution2: "'ss01' Style Set 1 lookup 54 subtable" Adieresis.ss01
AlternateSubs2: "'aalt' Access All Alternates lookup 1 subtable" Adieresis.ss01 Adieresis.ss04
Position2: "'cpsp' Capital Spacing lookup 0 subtable" dx=5 dy=0 dh=10 dv=0
EndChar

StartChar: uni1EA0
Encoding: 7840 7840 17
Width: 702
GlyphClass: 2
Flags: HMW
HStem: -190 84<339 366.5> 0 12<-2 21.5 209 232 474 495.5 680 701.5> 275 20<216 437 216 446 208 437> 617 20G
VStem: -3.5 135.04 309 86<-161.5 -134.5> 335 13<634 634> 547.3 155.45
AnchorPoint: "Anchor-15" 0 0 basechar 0
AnchorPoint: "Anchor-14" 341 625 basechar 0
AnchorPoint: "Anchor-13" 664 12 basechar 0
AnchorPoint: "Anchor-12" 354 -207 basechar 0
LayerCount: 2
Fore
SplineSet
699 12 m 0xfd
 704 12 704 0 699 0 c 0
 661 0 619 4 582 4 c 0
 540 4 514 0 477 0 c 0
 471 0 471 12 477 12 c 0
 526 12 548 20 548 43 c 0
 548 54 543 68 535 86 c 2
 446 275 l 1
 208 275 l 1
 145 127 l 2
 136 105 131 87 131 72 c 0
 131 30 165 12 229 12 c 0
 235 12 235 0 229 0 c 0
 189 0 162 4 111 4 c 0
 63 4 42 0 1 0 c 0
 -5 0 -5 12 1 12 c 0
 55 12 82 37 124 136 c 2
 335 634 l 2
 337 638 347 638 348 634 c 2xfb
 584 137 l 2
 630 37 656 12 699 12 c 0xfd
216 295 m 1
 437 295 l 1
 320 542 l 1
 216 295 l 1
353 -106 m 0
 380 -106 395 -121 395 -148 c 0
 395 -175 380 -190 353 -190 c 0
 325 -190 309 -175 309 -148 c 0
 309 -121 325 -106 353 -106 c 0
EndSplineSet
Validated: 1
Substitution2: "'ss01' Style Set 1 lookup 54 subtable" uni1EA0.ss01
Substitution2: "'aalt' Access All Alternates lookup 0 subtable" uni1EA0.ss01
Position2: "'cpsp' Capital Spacing lookup 0 subtable" dx=5 dy=0 dh=10 dv=0
EndChar

StartChar: Agrave
Encoding: 192 192 18
Width: 702
GlyphClass: 2
Flags: HMW
HStem: 0 12<-2 21.5 209 232 474 495.5 680 701.5> 275 20<216 437 216 446 208 437> 617 20G
VStem: -3.5 135.04 -3.5 706.25 335 13<634 634> 547.3 155.45
AnchorPoint: "Anchor-15" 0 0 basechar 0
AnchorPoint: "Anchor-14" 341 625 basechar 0
AnchorPoint: "Anchor-13" 664 12 basechar 0
AnchorPoint: "Anchor-12" 352 0 basechar 0
LayerCount: 2
Fore
SplineSet
217 756 m 0xe8
 215 756 215 757 215 758 c 0
 215 764 264 785 279 785 c 0
 280 785 281 784 282 784 c 0
 333 753 383 721 444 689 c 0
 449 687 445 676 440 679 c 0
 372 709 306 734 217 756 c 0xe8
699 12 m 0xf6
 704 12 704 0 699 0 c 0
 661 0 619 4 582 4 c 0
 540 4 514 0 477 0 c 0
 471 0 471 12 477 12 c 0
 526 12 548 20 548 43 c 0
 548 54 543 68 535 86 c 2
 446 275 l 1
 208 275 l 1
 145 127 l 2
 136 105 131 87 131 72 c 0
 131 30 165 12 229 12 c 0
 235 12 235 0 229 0 c 0
 189 0 162 4 111 4 c 0
 63 4 42 0 1 0 c 0
 -5 0 -5 12 1 12 c 0
 55 12 82 37 124 136 c 2
 335 634 l 2
 337 638 347 638 348 634 c 2
 584 137 l 2
 630 37 656 12 699 12 c 0xf6
216 295 m 1
 437 295 l 1
 320 542 l 1
 216 295 l 1
EndSplineSet
Validated: 1
Position2: "'cpsp' Capital Spacing lookup 0 subtable" dx=5 dy=0 dh=10 dv=0
EndChar

StartChar: uni1EA2
Encoding: 7842 7842 19
Width: 702
GlyphClass: 2
Flags: HMW
HStem: 0 12<-2 21.5 209 232 474 495.5 680 701.5> 275 20<216 437 216 446 208 437> 617 20G 820 22<323.5 378.5>
VStem: -3.5 135.04 329.03 14.97 370 52<762 793.5> 547.3 155.45
AnchorPoint: "Anchor-15" 0 0 basechar 0
AnchorPoint: "Anchor-14" 343 789 basechar 0
AnchorPoint: "Anchor-13" 664 12 basechar 0
AnchorPoint: "Anchor-12" 352 0 basechar 0
LayerCount: 2
Fore
SplineSet
300 813 m 0
 297 811 288 819 293 821 c 0
 314 836 338 842 358 842 c 0
 399 842 422 818 422 790 c 0xf6
 422 738 343 708 343 661 c 0
 343 658 343 654 344 651 c 0xf4
 344 649 333 648 332 651 c 0
 330 658 329 665 329 672 c 0
 329 716 370 742 370 780 c 0
 370 807 350 820 328 820 c 0
 319 820 308 817 300 813 c 0
699 12 m 0xfd
 704 12 704 0 699 0 c 0
 661 0 619 4 582 4 c 0
 540 4 514 0 477 0 c 0
 471 0 471 12 477 12 c 0
 526 12 548 20 548 43 c 0
 548 54 543 68 535 86 c 2
 446 275 l 1
 208 275 l 1
 145 127 l 2
 136 105 131 87 131 72 c 0
 131 30 165 12 229 12 c 0
 235 12 235 0 229 0 c 0
 189 0 162 4 111 4 c 0
 63 4 42 0 1 0 c 0
 -5 0 -5 12 1 12 c 0
 55 12 82 37 124 136 c 2
 335 634 l 2
 337 638 347 638 348 634 c 2
 584 137 l 2
 630 37 656 12 699 12 c 0xfd
216 295 m 1
 437 295 l 1
 320 542 l 1
 216 295 l 1
EndSplineSet
Validated: 1
Position2: "'cpsp' Capital Spacing lookup 0 subtable" dx=5 dy=0 dh=10 dv=0
EndChar

StartChar: Amacron
Encoding: 256 256 20
Width: 702
GlyphClass: 2
Flags: HMW
HStem: 0 12<-2 21.5 209 232 474 495.5 680 701.5> 275 20<216 437 216 446 208 437> 617 20G 722 28<211 466 215 466>
VStem: -3.5 135.04 -3.5 706.25 335 13<634 634> 547.3 155.45
AnchorPoint: "Anchor-15" 0 0 basechar 0
AnchorPoint: "Anchor-14" 343 740 basechar 0
AnchorPoint: "Anchor-13" 664 12 basechar 0
AnchorPoint: "Anchor-12" 352 0 basechar 0
LayerCount: 2
Fore
SplineSet
215 722 m 2xf4
 207 722 207 750 215 750 c 2
 466 750 l 2
 474 750 474 722 466 722 c 2
 215 722 l 2xf4
699 12 m 0xfb
 704 12 704 0 699 0 c 0
 661 0 619 4 582 4 c 0
 540 4 514 0 477 0 c 0
 471 0 471 12 477 12 c 0
 526 12 548 20 548 43 c 0
 548 54 543 68 535 86 c 2
 446 275 l 1
 208 275 l 1
 145 127 l 2
 136 105 131 87 131 72 c 0
 131 30 165 12 229 12 c 0
 235 12 235 0 229 0 c 0
 189 0 162 4 111 4 c 0
 63 4 42 0 1 0 c 0
 -5 0 -5 12 1 12 c 0
 55 12 82 37 124 136 c 2
 335 634 l 2
 337 638 347 638 348 634 c 2
 584 137 l 2
 630 37 656 12 699 12 c 0xfb
216 295 m 1
 437 295 l 1
 320 542 l 1
 216 295 l 1
EndSplineSet
Validated: 1
Position2: "'cpsp' Capital Spacing lookup 0 subtable" dx=5 dy=0 dh=10 dv=0
EndChar

StartChar: Aogonek
Encoding: 260 260 21
Width: 704
GlyphClass: 2
Flags: HMW
HStem: -275 30<545 561> -2 11<679 701.5> 0 12<-2 21.5 209 232> 275 20<216 434 216 444 208 434> 617 20G
VStem: -3.5 135.04 335 13<634 634> 417 58<-158.5 -102> 543.99 158.76
AnchorPoint: "Anchor-15" 0 0 basechar 0
AnchorPoint: "Anchor-14" 344 625 basechar 0
AnchorPoint: "Anchor-13" 665 12 basechar 0
AnchorPoint: "Anchor-12" 0 0 basechar 0
LayerCount: 2
Fore
SplineSet
699 9 m 0xdb
 704 9 704 -2 699 -2 c 0
 659 -2 634 1 603 1 c 0xd980
 533 1 475 -51 475 -129 c 0
 475 -188 507 -245 583 -245 c 0
 611 -245 627 -238 639 -232 c 0
 642 -230 649 -237 646 -240 c 0
 615 -264 581 -275 541 -275 c 0
 464 -275 417 -233 417 -166 c 0
 417 -54 544 -24 544 49 c 0
 544 59 541 71 535 84 c 2
 444 275 l 1
 208 275 l 1
 145 127 l 2
 136 105 131 87 131 72 c 0
 131 30 165 12 229 12 c 0
 235 12 235 0 229 0 c 0
 189 0 162 4 111 4 c 0
 63 4 42 0 1 0 c 0
 -5 0 -5 12 1 12 c 0xbd80
 55 12 82 37 124 136 c 2
 335 634 l 2
 337 638 347 638 348 634 c 2
 584 135 l 2
 629 38 656 9 699 9 c 0xdb
216 295 m 1xb9
 434 295 l 1
 319 538 l 1
 216 295 l 1xb9
EndSplineSet
Validated: 1
Substitution2: "'ss01' Style Set 1 lookup 54 subtable" Aogonek.ss01
Substitution2: "'aalt' Access All Alternates lookup 0 subtable" Aogonek.ss01
Position2: "'cpsp' Capital Spacing lookup 0 subtable" dx=5 dy=0 dh=10 dv=0
EndChar

StartChar: Aring
Encoding: 197 197 22
Width: 702
GlyphClass: 2
Flags: HMW
HStem: 0 12<-2 21.5 209 232 474 495.5 680 701.5> 275 20<216 437 216 446 208 437> 617 20G 664 11<332.5 359.5> 811 10<323.5 343.5>
VStem: -3.5 135.04 248 45<743 769.5> 335 13<634 634> 388 46<717.5 747> 547.3 155.45
AnchorPoint: "Anchor-15" 0 0 basechar 0
AnchorPoint: "Anchor-14" 341 625 basechar 0
AnchorPoint: "Anchor-13" 664 12 basechar 0
AnchorPoint: "Anchor-12" 352 0 basechar 0
LayerCount: 2
Fore
SplineSet
336 664 m 0
 281 664 248 703 248 744 c 0
 248 795 301 821 346 821 c 0
 394 821 434 786 434 742 c 0
 434 693 383 664 336 664 c 0
326 811 m 0
 303 811 293 796 293 764 c 0
 293 722 314 675 351 675 c 0
 376 675 388 690 388 724 c 0
 388 770 361 811 326 811 c 0
699 12 m 0
 704 12 704 0 699 0 c 0
 661 0 619 4 582 4 c 0
 540 4 514 0 477 0 c 0
 471 0 471 12 477 12 c 0
 526 12 548 20 548 43 c 0
 548 54 543 68 535 86 c 2
 446 275 l 1
 208 275 l 1
 145 127 l 2
 136 105 131 87 131 72 c 0
 131 30 165 12 229 12 c 0
 235 12 235 0 229 0 c 0
 189 0 162 4 111 4 c 0
 63 4 42 0 1 0 c 0
 -5 0 -5 12 1 12 c 0
 55 12 82 37 124 136 c 2
 335 634 l 2
 337 638 347 638 348 634 c 2xffc0
 584 137 l 2
 630 37 656 12 699 12 c 0
216 295 m 1
 437 295 l 1
 320 542 l 1
 216 295 l 1
EndSplineSet
Validated: 1
Position2: "'cpsp' Capital Spacing lookup 0 subtable" dx=5 dy=0 dh=10 dv=0
EndChar

StartChar: Aringacute
Encoding: 506 506 23
Width: 702
GlyphClass: 2
Flags: HMW
HStem: 0 12<-2 21.5 209 232 474 495.5 680 701.5> 275 20<216 437 216 446 208 437> 617 20G 675 11<331 357.5> 798 11<322.5 342> 813 10
VStem: -3.5 135.04 249 42<745 764.5> 335 13<634 634> 386 46<720 743.5> 547.3 155.45
AnchorPoint: "Anchor-15" 0 0 basechar 0
AnchorPoint: "Anchor-14" 341 625 basechar 0
AnchorPoint: "Anchor-13" 664 12 basechar 0
AnchorPoint: "Anchor-12" 352 0 basechar 0
LayerCount: 2
Fore
SplineSet
250 813 m 0
 244 811 241 821 245 823 c 0
 297 848 336 870 381 892 c 0
 382 892 383 893 384 893 c 0
 399 893 443 870 443 864 c 0
 443 864 442 863 441 863 c 0
 364 849 308 832 250 813 c 0
249 743 m 0xfbe0
 249 786 301 809 344 809 c 0
 392 809 432 778 432 741 c 0
 432 699 381 675 334 675 c 0
 281 675 249 708 249 743 c 0xfbe0
386 723 m 0
 386 764 359 798 325 798 c 0
 301 798 291 787 291 763 c 0
 291 727 312 686 350 686 c 0
 374 686 386 697 386 723 c 0
699 12 m 0
 704 12 704 0 699 0 c 0
 661 0 619 4 582 4 c 0
 540 4 514 0 477 0 c 0
 471 0 471 12 477 12 c 0
 526 12 548 20 548 43 c 0
 548 54 543 68 535 86 c 2
 446 275 l 1
 208 275 l 1
 145 127 l 2
 136 105 131 87 131 72 c 0
 131 30 165 12 229 12 c 0
 235 12 235 0 229 0 c 0
 189 0 162 4 111 4 c 0
 63 4 42 0 1 0 c 0
 -5 0 -5 12 1 12 c 0
 55 12 82 37 124 136 c 2
 335 634 l 2
 337 638 347 638 348 634 c 2
 584 137 l 2
 630 37 656 12 699 12 c 0
216 295 m 1
 437 295 l 1
 320 542 l 1
 216 295 l 1
EndSplineSet
Validated: 1
Position2: "'cpsp' Capital Spacing lookup 0 subtable" dx=5 dy=0 dh=10 dv=0
EndChar

StartChar: Atilde
Encoding: 195 195 24
Width: 702
GlyphClass: 2
Flags: HMW
HStem: 0 12<-2 21.5 209 232 474 495.5 680 701.5> 275 20<216 437 216 446 208 437> 617 20G 721 42<393.5 407> 746 41<275.5 289>
VStem: -3.5 135.04 -3.5 706.25 335 13<634 634> 547.3 155.45
AnchorPoint: "Anchor-15" 0 0 basechar 0
AnchorPoint: "Anchor-14" 343 790 basechar 0
AnchorPoint: "Anchor-13" 664 12 basechar 0
AnchorPoint: "Anchor-12" 352 0 basechar 0
LayerCount: 2
Fore
SplineSet
215 719 m 0xea
 212 717 205 722 208 726 c 0
 224 748 258 787 293 787 c 0xea
 326 787 369 763 418 763 c 0
 443 763 455 776 467 790 c 0
 470 792 477 786 474 783 c 0
 438 733 419 721 395 721 c 0xf2
 351 721 314 746 264 746 c 0
 237 746 229 732 215 719 c 0xea
699 12 m 0xed80
 704 12 704 0 699 0 c 0
 661 0 619 4 582 4 c 0
 540 4 514 0 477 0 c 0
 471 0 471 12 477 12 c 0
 526 12 548 20 548 43 c 0
 548 54 543 68 535 86 c 2
 446 275 l 1
 208 275 l 1
 145 127 l 2
 136 105 131 87 131 72 c 0
 131 30 165 12 229 12 c 0
 235 12 235 0 229 0 c 0
 189 0 162 4 111 4 c 0
 63 4 42 0 1 0 c 0
 -5 0 -5 12 1 12 c 0
 55 12 82 37 124 136 c 2
 335 634 l 2
 337 638 347 638 348 634 c 2
 584 137 l 2
 630 37 656 12 699 12 c 0xed80
216 295 m 1
 437 295 l 1
 320 542 l 1
 216 295 l 1
EndSplineSet
Validated: 1
Position2: "'cpsp' Capital Spacing lookup 0 subtable" dx=5 dy=0 dh=10 dv=0
EndChar

StartChar: AE
Encoding: 198 198 25
Width: 874
GlyphClass: 2
Flags: HMW
HStem: 0 12<0 21 203 227 390.5 392 392 428> 0 21<619 692 692 721> 315 21<319 477 319 477 305 477 541 651> 604 21<588 621 621 675> 613 12<389 430.5>
VStem: -1.5 147.68 477 64<81 85 85 315 336 543> 744 12<231.5 250 231.5 262> 783 9<616 625> 813 12<147 151>
AnchorPoint: "Anchor-15" 0 0 basechar 0
AnchorPoint: "Anchor-14" 579 625 basechar 0
AnchorPoint: "Anchor-13" 0 0 basechar 0
AnchorPoint: "Anchor-12" 438 0 basechar 0
LayerCount: 2
Fore
SplineSet
813 149 m 0x73c0
 813 153 825 151 825 147 c 0
 820 112 816 57 816 15 c 0
 816 4 812 0 800 0 c 2
 392 0 l 2x6ac0
 389 0 389 12 392 12 c 0
 464 12 477 23 477 81 c 2
 477 315 l 1
 305 315 l 1
 176 126 l 2
 156 97 146 73 146 55 c 0
 146 26 172 12 224 12 c 0
 230 12 230 0 224 0 c 0
 182 0 154 4 101 4 c 0
 57 4 39 0 3 0 c 0
 -3 0 -3 12 3 12 c 0
 44 12 97 55 150 132 c 2
 453 574 l 2
 461 585 466 593 466 599 c 0
 466 611 445 613 389 613 c 0
 386 613 386 625 389 625 c 2
 783 625 l 2
 790 625 792 622 792 616 c 2xae80
 794 493 l 2
 794 489 783 488 783 492 c 0x7280
 780 554 736 604 675 604 c 2
 621 604 l 2
 555 604 541 593 541 543 c 2
 541 336 l 1
 653 336 l 2
 718 336 743 356 743 406 c 0
 743 409 755 409 755 406 c 0
 755 366 754 350 754 325 c 0
 754 294 756 267 756 233 c 0
 756 230 744 230 744 233 c 0
 744 291 718 315 651 315 c 2
 541 315 l 1
 541 85 l 2
 541 33 554 21 619 21 c 2
 692 21 l 2
 750 21 800 74 813 149 c 0x73c0
319 336 m 1
 477 336 l 1
 477 567 l 1
 319 336 l 1
EndSplineSet
Validated: 1
Position2: "'cpsp' Capital Spacing lookup 0 subtable" dx=5 dy=0 dh=10 dv=0
EndChar

StartChar: AEacute
Encoding: 508 508 26
Width: 874
GlyphClass: 2
Flags: HMW
HStem: 0 12<0 21 203 227 390.5 392 392 428> 0 21<619 692 692 721> 315 21<319 477 319 477 305 477 541 651> 604 21<588 621 621 675> 613 12<389 430.5> 679 10
VStem: -1.5 147.68 477 64<81 85 85 315 336 543> 744 12<231.5 250 231.5 262> 783 9<616 625> 813 12<147 151>
AnchorPoint: "Anchor-15" 0 0 basechar 0
AnchorPoint: "Anchor-14" 579 625 basechar 0
AnchorPoint: "Anchor-13" 0 0 basechar 0
AnchorPoint: "Anchor-12" 438 0 basechar 0
LayerCount: 2
Fore
SplineSet
482 679 m 0x6d40
 476 676 473 687 477 689 c 0
 539 721 588 754 640 784 c 0
 641 784 642 785 643 785 c 0
 658 785 706 764 706 758 c 0
 706 757 706 756 704 756 c 0
 615 734 550 709 482 679 c 0x6d40
813 149 m 0x75e0
 813 153 825 151 825 147 c 0
 820 112 816 57 816 15 c 0
 816 4 812 0 800 0 c 2
 392 0 l 2x6d60
 389 0 389 12 392 12 c 0
 464 12 477 23 477 81 c 2
 477 315 l 1
 305 315 l 1
 176 126 l 2
 156 97 146 73 146 55 c 0
 146 26 172 12 224 12 c 0
 230 12 230 0 224 0 c 0
 182 0 154 4 101 4 c 0
 57 4 39 0 3 0 c 0
 -3 0 -3 12 3 12 c 0
 44 12 97 55 150 132 c 2
 453 574 l 2
 461 585 466 593 466 599 c 0
 466 611 445 613 389 613 c 0
 386 613 386 625 389 625 c 2
 783 625 l 2
 790 625 792 622 792 616 c 2xaf40
 794 493 l 2
 794 489 783 488 783 492 c 0x7540
 780 554 736 604 675 604 c 2
 621 604 l 2
 555 604 541 593 541 543 c 2
 541 336 l 1
 653 336 l 2
 718 336 743 356 743 406 c 0
 743 409 755 409 755 406 c 0
 755 366 754 350 754 325 c 0
 754 294 756 267 756 233 c 0
 756 230 744 230 744 233 c 0
 744 291 718 315 651 315 c 2
 541 315 l 1
 541 85 l 2
 541 33 554 21 619 21 c 2
 692 21 l 2
 750 21 800 74 813 149 c 0x75e0
319 336 m 1
 477 336 l 1
 477 567 l 1
 319 336 l 1
EndSplineSet
Validated: 1
Position2: "'cpsp' Capital Spacing lookup 0 subtable" dx=5 dy=0 dh=10 dv=0
EndChar

StartChar: uni01E2
Encoding: 482 482 27
Width: 874
GlyphClass: 2
Flags: HMW
HStem: 0 12<0 21 203 227 390.5 392 392 428> 0 21<619 692 692 721> 315 21<319 477 319 477 305 477 541 651> 604 21<588 621 621 675> 613 12<389 430.5> 722 28<449 704 453 704>
VStem: -1.5 147.68 477 64<81 85 85 315 336 543> 744 12<231.5 250 231.5 262> 783 9<616 625> 813 12<147 151>
AnchorPoint: "Anchor-15" 0 0 basechar 0
AnchorPoint: "Anchor-14" 579 625 basechar 0
AnchorPoint: "Anchor-13" 0 0 basechar 0
AnchorPoint: "Anchor-12" 438 0 basechar 0
LayerCount: 2
Fore
SplineSet
453 722 m 2x6d40
 445 722 445 750 453 750 c 2
 704 750 l 2
 712 750 712 722 704 722 c 2
 453 722 l 2x6d40
813 149 m 0x75e0
 813 153 825 151 825 147 c 0
 820 112 816 57 816 15 c 0
 816 4 812 0 800 0 c 2
 392 0 l 2x6d60
 389 0 389 12 392 12 c 0
 464 12 477 23 477 81 c 2
 477 315 l 1
 305 315 l 1
 176 126 l 2
 156 97 146 73 146 55 c 0
 146 26 172 12 224 12 c 0
 230 12 230 0 224 0 c 0
 182 0 154 4 101 4 c 0
 57 4 39 0 3 0 c 0
 -3 0 -3 12 3 12 c 0
 44 12 97 55 150 132 c 2
 453 574 l 2
 461 585 466 593 466 599 c 0
 466 611 445 613 389 613 c 0
 386 613 386 625 389 625 c 2
 783 625 l 2
 790 625 792 622 792 616 c 2xaf40
 794 493 l 2
 794 489 783 488 783 492 c 0x7540
 780 554 736 604 675 604 c 2
 621 604 l 2
 555 604 541 593 541 543 c 2
 541 336 l 1
 653 336 l 2
 718 336 743 356 743 406 c 0
 743 409 755 409 755 406 c 0
 755 366 754 350 754 325 c 0
 754 294 756 267 756 233 c 0
 756 230 744 230 744 233 c 0
 744 291 718 315 651 315 c 2
 541 315 l 1
 541 85 l 2
 541 33 554 21 619 21 c 2
 692 21 l 2
 750 21 800 74 813 149 c 0x75e0
319 336 m 1
 477 336 l 1
 477 567 l 1
 319 336 l 1
EndSplineSet
Validated: 1
Position2: "'cpsp' Capital Spacing lookup 0 subtable" dx=5 dy=0 dh=10 dv=0
EndChar

StartChar: B
Encoding: 66 66 28
Width: 558
GlyphClass: 2
Flags: HMW
HStem: -4 18<287.5 343.5 252.5 365.5> 0 12<41.5 59.5> 328 23 613 12<43 61 43 81> 613 15<263.5 303.5>
VStem: 130 65<81 328 352 542> 383 65<463 523> 438 70<130 209>
AnchorPoint: "Anchor-15" 0 0 basechar 0
AnchorPoint: "Anchor-14" 280 625 basechar 0
AnchorPoint: "Anchor-13" 0 0 basechar 0
AnchorPoint: "Anchor-12" 280 0 basechar 0
LayerCount: 2
Fore
SplineSet
332 352 m 1xad
 438 344 508 275 508 184 c 0
 508 76 422 -4 309 -4 c 0xad
 266 -4 207 2 162 2 c 0
 118 2 76 0 43 0 c 0
 40 0 40 12 43 12 c 0
 115 12 130 23 130 81 c 2
 130 544 l 2x6d
 130 601 117 613 45 613 c 0
 41 613 41 625 45 625 c 0xb5
 77 625 118 622 162 622 c 0
 196 622 247 628 280 628 c 0
 398 628 448 570 448 496 c 0xae
 448 430 402 379 332 352 c 1xad
259 613 m 0
 212 613 195 608 195 542 c 2
 195 352 l 1
 221 351 238 351 240 351 c 0
 343 351 383 411 383 488 c 0xae
 383 558 348 613 259 613 c 0
294 14 m 0
 393 14 438 68 438 159 c 0
 438 259 376 329 271 330 c 0
 265 330 258 330 251 330 c 0
 233 330 214 329 195 328 c 1
 195 81 l 2
 195 32 211 14 294 14 c 0
EndSplineSet
Validated: 1
Substitution2: "'ss01' Style Set 1 lookup 54 subtable" B.ss01
Substitution2: "'aalt' Access All Alternates lookup 0 subtable" B.ss01
Position2: "'cpsp' Capital Spacing lookup 0 subtable" dx=5 dy=0 dh=10 dv=0
EndChar

StartChar: C
Encoding: 67 67 29
Width: 686
GlyphClass: 2
Flags: MW
HStem: -13 16<333.5 449.5> 621 15<323 453 307 462.5>
VStem: 49 77<230.5 411 230.5 412.5>
AnchorPoint: "Anchor-15" 0 0 basechar 0
AnchorPoint: "Anchor-14" 388 625 basechar 0
AnchorPoint: "Anchor-13" 0 0 basechar 0
AnchorPoint: "Anchor-12" 414 0 basechar 0
LayerCount: 2
Fore
SplineSet
411 636 m 0
 495 636 546 625 603 596 c 0
 612 591 612 590 614 574 c 2
 626 455 l 2
 626 452 616 449 614 454 c 0
 584 564 517 621 408 621 c 0
 238 621 126 503 126 319 c 0
 126 142 256 3 411 3 c 0
 521 3 587 57 622 165 c 0
 623 169 634 167 634 164 c 2
 624 54 l 2
 622 38 621 37 613 32 c 0
 543 -2 488 -13 411 -13 c 0
 199 -13 49 120 49 317 c 0
 49 508 203 636 411 636 c 0
EndSplineSet
Validated: 1
Position2: "'cpsp' Capital Spacing lookup 0 subtable" dx=5 dy=0 dh=10 dv=0
EndChar

StartChar: Cacute
Encoding: 262 262 30
Width: 686
GlyphClass: 2
Flags: HMW
HStem: -13 16<333.5 449.5> 621 15<323 453 307 462.5> 679 10
VStem: 49 77<230.5 411 230.5 412.5>
AnchorPoint: "Anchor-15" 0 0 basechar 0
AnchorPoint: "Anchor-14" 388 625 basechar 0
AnchorPoint: "Anchor-13" 0 0 basechar 0
AnchorPoint: "Anchor-12" 414 0 basechar 0
LayerCount: 2
Fore
SplineSet
291 679 m 0
 285 676 282 687 286 689 c 0
 348 721 397 754 449 784 c 0
 450 784 451 785 452 785 c 0
 467 785 515 764 515 758 c 0
 515 757 515 756 513 756 c 0
 424 734 359 709 291 679 c 0
411 636 m 0
 495 636 546 625 603 596 c 0
 612 591 612 590 614 574 c 2
 626 455 l 2
 626 452 616 449 614 454 c 0
 584 564 517 621 408 621 c 0
 238 621 126 503 126 319 c 0
 126 142 256 3 411 3 c 0
 521 3 587 57 622 165 c 0
 623 169 634 167 634 164 c 2
 624 54 l 2
 622 38 621 37 613 32 c 0
 543 -2 488 -13 411 -13 c 0
 199 -13 49 120 49 317 c 0
 49 508 203 636 411 636 c 0
EndSplineSet
Validated: 1
Substitution2: "'locl' Localized Forms in Latin lookup 15 subtable" Cacute.loclPLK
Substitution2: "'aalt' Access All Alternates lookup 0 subtable" Cacute.loclPLK
Position2: "'cpsp' Capital Spacing lookup 0 subtable" dx=5 dy=0 dh=10 dv=0
EndChar

StartChar: Ccaron
Encoding: 268 268 31
Width: 686
GlyphClass: 2
Flags: MW
HStem: -13 16<333.5 449.5> 621 15<323 453 307 462.5> 682.5 51.5 784 7<273 279>
VStem: 49 77<230.5 411 230.5 412.5>
AnchorPoint: "Anchor-15" 0 0 basechar 0
AnchorPoint: "Anchor-14" 388 625 basechar 0
AnchorPoint: "Anchor-13" 0 0 basechar 0
AnchorPoint: "Anchor-12" 414 0 basechar 0
LayerCount: 2
Fore
SplineSet
376 687 m 2
 273 784 l 2
 270 786 277 792 279 791 c 2
 388 734 l 1
 496 791 l 2
 499 793 505 786 501 784 c 2
 399 687 l 2
 393 681 382 681 376 687 c 2
411 636 m 0
 495 636 546 625 603 596 c 0
 612 591 612 590 614 574 c 2
 626 455 l 2
 626 452 616 449 614 454 c 0
 584 564 517 621 408 621 c 0
 238 621 126 503 126 319 c 0
 126 142 256 3 411 3 c 0
 521 3 587 57 622 165 c 0
 623 169 634 167 634 164 c 2
 624 54 l 2
 622 38 621 37 613 32 c 0
 543 -2 488 -13 411 -13 c 0
 199 -13 49 120 49 317 c 0
 49 508 203 636 411 636 c 0
EndSplineSet
Validated: 1
Position2: "'cpsp' Capital Spacing lookup 0 subtable" dx=5 dy=0 dh=10 dv=0
EndChar

StartChar: Ccedilla
Encoding: 199 199 32
Width: 686
GlyphClass: 2
Flags: HMW
HStem: -275 20<403 430> -13 16<409 411 409 409> 621 15<323 453 307 462.5>
VStem: 49 77<230.5 411 230.5 412.5> 358.75 40.96 459 38<-200.5 -199.5>
AnchorPoint: "Anchor-15" 0 0 basechar 0
AnchorPoint: "Anchor-14" 388 625 basechar 0
AnchorPoint: "Anchor-13" 0 0 basechar 0
AnchorPoint: "Anchor-12" 414 0 basechar 0
LayerCount: 2
Fore
SplineSet
622 165 m 0
 623 169 634 167 634 164 c 2
 624 54 l 2
 622 38 621 37 613 32 c 0
 543 -2 488 -13 411 -13 c 2
 409 -13 l 1
 403 -33 400 -47 400 -57 c 0
 400 -78 413 -85 443 -102 c 0
 471 -118 497 -140 497 -179 c 0
 497 -222 467 -275 393 -275 c 0
 357 -275 329 -262 329 -237 c 0
 329 -219 343 -207 359 -207 c 0
 395 -207 381 -255 425 -255 c 0
 446 -255 459 -243 459 -217 c 0
 459 -182 438 -159 373 -124 c 0
 363 -119 359 -116 359 -111 c 0
 359 -107 361 -102 364 -94 c 0
 378 -60 380 -54 395 -13 c 1
 191 -6 49 125 49 317 c 0
 49 508 203 636 411 636 c 0
 495 636 546 625 603 596 c 0
 612 591 612 590 614 574 c 2
 626 455 l 2
 626 452 616 449 614 454 c 0
 584 564 517 621 408 621 c 0
 238 621 126 503 126 319 c 0
 126 142 256 3 411 3 c 0
 521 3 587 57 622 165 c 0
EndSplineSet
Validated: 1
Position2: "'cpsp' Capital Spacing lookup 0 subtable" dx=5 dy=0 dh=10 dv=0
EndChar

StartChar: Ccircumflex
Encoding: 264 264 33
Width: 686
GlyphClass: 2
Flags: MW
HStem: -13 16<333.5 449.5> 621 15<323 453 307 462.5> 685 7<274 280>
VStem: 49 77<230.5 411 230.5 412.5>
AnchorPoint: "Anchor-15" 0 0 basechar 0
AnchorPoint: "Anchor-14" 388 625 basechar 0
AnchorPoint: "Anchor-13" 0 0 basechar 0
AnchorPoint: "Anchor-12" 414 0 basechar 0
LayerCount: 2
Fore
SplineSet
274 692 m 2
 377 790 l 2
 383 796 394 796 400 790 c 2
 502 692 l 2
 506 690 500 683 497 685 c 2
 389 743 l 1
 280 685 l 2
 278 684 271 690 274 692 c 2
411 636 m 0
 495 636 546 625 603 596 c 0
 612 591 612 590 614 574 c 2
 626 455 l 2
 626 452 616 449 614 454 c 0
 584 564 517 621 408 621 c 0
 238 621 126 503 126 319 c 0
 126 142 256 3 411 3 c 0
 521 3 587 57 622 165 c 0
 623 169 634 167 634 164 c 2
 624 54 l 2
 622 38 621 37 613 32 c 0
 543 -2 488 -13 411 -13 c 0
 199 -13 49 120 49 317 c 0
 49 508 203 636 411 636 c 0
EndSplineSet
Validated: 1
Position2: "'cpsp' Capital Spacing lookup 0 subtable" dx=5 dy=0 dh=10 dv=0
EndChar

StartChar: Cdotaccent
Encoding: 266 266 34
Width: 686
GlyphClass: 2
Flags: MW
HStem: -13 16<333.5 449.5> 621 15<323 453 307 462.5> 713 85<375 402.5>
VStem: 49 77<230.5 411 230.5 412.5> 345 86<743 769.5>
AnchorPoint: "Anchor-15" 0 0 basechar 0
AnchorPoint: "Anchor-14" 390 613 basechar 0
AnchorPoint: "Anchor-13" 0 0 basechar 0
AnchorPoint: "Anchor-12" 414 0 basechar 0
LayerCount: 2
Fore
SplineSet
389 713 m 0
 361 713 345 729 345 757 c 0
 345 782 361 798 389 798 c 0
 416 798 431 782 431 757 c 0
 431 729 416 713 389 713 c 0
411 636 m 0
 495 636 546 625 603 596 c 0
 612 591 612 590 614 574 c 2
 626 455 l 2
 626 452 616 449 614 454 c 0
 584 564 517 621 408 621 c 0
 238 621 126 503 126 319 c 0
 126 142 256 3 411 3 c 0
 521 3 587 57 622 165 c 0
 623 169 634 167 634 164 c 2
 624 54 l 2
 622 38 621 37 613 32 c 0
 543 -2 488 -13 411 -13 c 0
 199 -13 49 120 49 317 c 0
 49 508 203 636 411 636 c 0
EndSplineSet
Validated: 1
Position2: "'cpsp' Capital Spacing lookup 0 subtable" dx=5 dy=0 dh=10 dv=0
EndChar

StartChar: D
Encoding: 68 68 35
Width: 691
GlyphClass: 2
Flags: MW
HStem: -4 15<284 372.5 249 395> 0 12<33.5 51> 612 15<271 380> 613 12<34.5 52.5 34.5 72.5>
VStem: 121 65<81 92 92 542> 566 76<223 388>
AnchorPoint: "Anchor-15" 0 0 basechar 0
AnchorPoint: "Anchor-14" 318 625 basechar 0
AnchorPoint: "Anchor-13" 0 0 basechar 0
AnchorPoint: "Anchor-12" 323 0 basechar 0
LayerCount: 2
Fore
SplineSet
303 -4 m 0xac
 265 -4 201 2 153 2 c 0
 109 2 67 0 35 0 c 0
 32 0 32 12 35 12 c 0
 108 12 121 23 121 81 c 2
 121 544 l 2x5c
 121 601 109 613 36 613 c 0
 33 613 33 625 36 625 c 0
 69 625 109 622 153 622 c 0
 197 622 253 627 289 627 c 0
 502 627 642 495 642 323 c 0
 642 123 487 -4 303 -4 c 0xac
293 11 m 0
 452 11 566 113 566 301 c 0
 566 475 462 612 298 612 c 0
 218 612 186 603 186 542 c 2
 186 92 l 2
 186 36 205 11 293 11 c 0
EndSplineSet
Validated: 1
Position2: "'cpsp' Capital Spacing lookup 0 subtable" dx=5 dy=0 dh=10 dv=0
EndChar

StartChar: Eth
Encoding: 208 208 36
Width: 691
GlyphClass: 2
Flags: MW
HStem: -4 15<284 372.5 249 395> 0 12<33.5 51> 301 20<50 121 53 121 186 322> 612 15<271 380> 613 12<34.5 52.5 34.5 72.5>
VStem: 121 65<81 92 92 301 321 542> 566 76<223 388>
AnchorPoint: "Anchor-15" 0 0 basechar 0
AnchorPoint: "Anchor-14" 318 625 basechar 0
AnchorPoint: "Anchor-13" 0 0 basechar 0
AnchorPoint: "Anchor-12" 323 0 basechar 0
LayerCount: 2
Fore
SplineSet
289 627 m 0xb6
 502 627 642 495 642 323 c 0
 642 123 487 -4 303 -4 c 0xb6
 265 -4 201 2 153 2 c 0
 109 2 67 0 35 0 c 0
 32 0 32 12 35 12 c 0
 108 12 121 23 121 81 c 2
 121 301 l 1
 53 301 l 2
 47 301 47 321 53 321 c 2
 121 321 l 1
 121 544 l 2x6e
 121 601 109 613 36 613 c 0
 33 613 33 625 36 625 c 0
 69 625 109 622 153 622 c 0
 197 622 253 627 289 627 c 0xb6
293 11 m 0
 452 11 566 113 566 301 c 0
 566 475 462 612 298 612 c 0
 218 612 186 603 186 542 c 2
 186 321 l 1
 322 321 l 2
 327 321 327 301 322 301 c 2
 186 301 l 1
 186 92 l 2
 186 36 205 11 293 11 c 0
EndSplineSet
Validated: 1
Position2: "'cpsp' Capital Spacing lookup 0 subtable" dx=5 dy=0 dh=10 dv=0
EndChar

StartChar: Dcaron
Encoding: 270 270 37
Width: 691
GlyphClass: 2
Flags: MW
HStem: -4 15<284 372.5 249 395> 0 12<33.5 51> 612 15<271 380> 613 12<34.5 52.5 34.5 72.5> 682.5 51.5 714 20G<318 318> 784 7<203 209>
VStem: 121 65<81 92 92 542> 566 76<223 388>
AnchorPoint: "Anchor-15" 0 0 basechar 0
AnchorPoint: "Anchor-14" 318 625 basechar 0
AnchorPoint: "Anchor-13" 0 0 basechar 0
AnchorPoint: "Anchor-12" 323 0 basechar 0
LayerCount: 2
Fore
SplineSet
306 687 m 2xab80
 203 784 l 2
 200 786 207 792 209 791 c 2
 318 734 l 1
 426 791 l 2
 429 793 435 786 431 784 c 2
 329 687 l 2
 323 681 312 681 306 687 c 2xab80
303 -4 m 0
 265 -4 201 2 153 2 c 0
 109 2 67 0 35 0 c 0
 32 0 32 12 35 12 c 0
 108 12 121 23 121 81 c 2
 121 544 l 2x5780
 121 601 109 613 36 613 c 0
 33 613 33 625 36 625 c 0
 69 625 109 622 153 622 c 0
 197 622 253 627 289 627 c 0
 502 627 642 495 642 323 c 0
 642 123 487 -4 303 -4 c 0
293 11 m 0
 452 11 566 113 566 301 c 0
 566 475 462 612 298 612 c 0
 218 612 186 603 186 542 c 2
 186 92 l 2
 186 36 205 11 293 11 c 0
EndSplineSet
Validated: 1
Position2: "'cpsp' Capital Spacing lookup 0 subtable" dx=5 dy=0 dh=10 dv=0
EndChar

StartChar: Dcroat
Encoding: 272 272 38
Width: 691
GlyphClass: 2
Flags: MW
HStem: -4 15<284 372.5 249 395> 0 12<33.5 51> 301 20<50 121 53 121 186 322> 612 15<271 380> 613 12<34.5 52.5 34.5 72.5>
VStem: 121 65<81 92 92 301 321 542> 566 76<223 388>
AnchorPoint: "Anchor-15" 0 0 basechar 0
AnchorPoint: "Anchor-14" 318 625 basechar 0
AnchorPoint: "Anchor-13" 0 0 basechar 0
AnchorPoint: "Anchor-12" 323 0 basechar 0
LayerCount: 2
Fore
SplineSet
289 627 m 0xb6
 502 627 642 495 642 323 c 0
 642 123 487 -4 303 -4 c 0xb6
 265 -4 201 2 153 2 c 0
 109 2 67 0 35 0 c 0
 32 0 32 12 35 12 c 0
 108 12 121 23 121 81 c 2
 121 301 l 1
 53 301 l 2
 47 301 47 321 53 321 c 2
 121 321 l 1
 121 544 l 2x6e
 121 601 109 613 36 613 c 0
 33 613 33 625 36 625 c 0
 69 625 109 622 153 622 c 0
 197 622 253 627 289 627 c 0xb6
293 11 m 0
 452 11 566 113 566 301 c 0
 566 475 462 612 298 612 c 0
 218 612 186 603 186 542 c 2
 186 321 l 1
 322 321 l 2
 327 321 327 301 322 301 c 2
 186 301 l 1
 186 92 l 2
 186 36 205 11 293 11 c 0
EndSplineSet
Validated: 1
Position2: "'cpsp' Capital Spacing lookup 0 subtable" dx=5 dy=0 dh=10 dv=0
EndChar

StartChar: uni1E0C
Encoding: 7692 7692 39
Width: 691
GlyphClass: 2
Flags: MW
HStem: -190 84<310 337.5> -4 15<284 372.5 249 395> 0 12<33.5 51> 612 15<271 380> 613 12<34.5 52.5 34.5 72.5>
VStem: 121 65<81 92 92 542> 280 86<-161.5 -134.5> 566 76<223 388>
AnchorPoint: "Anchor-15" 0 0 basechar 0
AnchorPoint: "Anchor-14" 318 625 basechar 0
AnchorPoint: "Anchor-13" 0 0 basechar 0
AnchorPoint: "Anchor-12" 325 -207 basechar 0
LayerCount: 2
Fore
SplineSet
303 -4 m 0x55
 265 -4 201 2 153 2 c 0
 109 2 67 0 35 0 c 0
 32 0 32 12 35 12 c 0
 108 12 121 23 121 81 c 2
 121 544 l 2x2d
 121 601 109 613 36 613 c 0
 33 613 33 625 36 625 c 0
 69 625 109 622 153 622 c 0
 197 622 253 627 289 627 c 0
 502 627 642 495 642 323 c 0
 642 123 487 -4 303 -4 c 0x55
293 11 m 0
 452 11 566 113 566 301 c 0
 566 475 462 612 298 612 c 0
 218 612 186 603 186 542 c 2
 186 92 l 2
 186 36 205 11 293 11 c 0
324 -190 m 0xd7
 296 -190 280 -175 280 -148 c 0
 280 -121 296 -106 324 -106 c 0
 351 -106 366 -121 366 -148 c 0
 366 -175 351 -190 324 -190 c 0xd7
EndSplineSet
Validated: 1
Position2: "'cpsp' Capital Spacing lookup 0 subtable" dx=5 dy=0 dh=10 dv=0
EndChar

StartChar: uni1E0E
Encoding: 7694 7694 40
Width: 691
GlyphClass: 2
Flags: MW
HStem: -113 28<193 448 197 448> -4 15<284 372.5 249 395> 0 12<33.5 51> 612 15<271 380> 613 12<34.5 52.5 34.5 72.5>
VStem: 121 65<81 92 92 542> 566 76<223 388>
AnchorPoint: "Anchor-15" 0 0 basechar 0
AnchorPoint: "Anchor-14" 318 625 basechar 0
AnchorPoint: "Anchor-13" 0 0 basechar 0
AnchorPoint: "Anchor-12" 325 -170 basechar 0
LayerCount: 2
Fore
SplineSet
303 -4 m 0xd6
 265 -4 201 2 153 2 c 0
 109 2 67 0 35 0 c 0
 32 0 32 12 35 12 c 0
 108 12 121 23 121 81 c 2
 121 544 l 2xae
 121 601 109 613 36 613 c 0
 33 613 33 625 36 625 c 0
 69 625 109 622 153 622 c 0
 197 622 253 627 289 627 c 0
 502 627 642 495 642 323 c 0
 642 123 487 -4 303 -4 c 0xd6
293 11 m 0
 452 11 566 113 566 301 c 0
 566 475 462 612 298 612 c 0
 218 612 186 603 186 542 c 2
 186 92 l 2
 186 36 205 11 293 11 c 0
197 -113 m 2
 189 -113 189 -85 197 -85 c 2
 448 -85 l 2
 456 -85 456 -113 448 -113 c 2
 197 -113 l 2
EndSplineSet
Validated: 1
Position2: "'cpsp' Capital Spacing lookup 0 subtable" dx=5 dy=0 dh=10 dv=0
EndChar

StartChar: E
Encoding: 69 69 41
Width: 537
GlyphClass: 2
Flags: MW
HStem: 0 12<41.5 43 43 79.5 41.5 462> 0 21<272 352 352 384> 315 21<194 313 194 316> 604 21<241.5 275 275 336> 613 12<43 79.5>
VStem: 129 65<81 85 85 315 336 539> 406 12<231.5 250 231.5 262> 445 9<616 625>
AnchorPoint: "Anchor-15" 0 0 basechar 0
AnchorPoint: "Anchor-14" 292 625 basechar 0
AnchorPoint: "Anchor-13" 472 12 basechar 0
AnchorPoint: "Anchor-12" 287 0 basechar 0
LayerCount: 2
Fore
SplineSet
475 149 m 0x75
 476 153 487 151 487 147 c 0
 482 112 478 57 478 15 c 0
 478 4 474 0 462 0 c 2
 43 0 l 2x75
 40 0 40 12 43 12 c 0
 116 12 129 23 129 81 c 2
 129 544 l 2xad
 129 601 116 613 43 613 c 0
 40 613 40 625 43 625 c 2
 445 625 l 2
 452 625 454 622 454 616 c 2
 456 493 l 2
 456 489 446 488 445 492 c 0x75
 441 563 399 604 336 604 c 2
 275 604 l 2
 208 604 194 592 194 539 c 2
 194 336 l 1
 316 336 l 2
 380 336 405 356 405 406 c 0
 405 409 417 409 417 406 c 0
 417 366 416 350 416 325 c 0
 416 294 418 267 418 233 c 0
 418 230 406 230 406 233 c 0
 406 291 380 315 313 315 c 2x77
 194 315 l 1
 194 85 l 2
 194 32 207 21 272 21 c 2
 352 21 l 2
 416 21 461 70 475 149 c 0x75
EndSplineSet
Validated: 1
Position2: "'cpsp' Capital Spacing lookup 0 subtable" dx=5 dy=0 dh=10 dv=0
EndChar

StartChar: Eacute
Encoding: 201 201 42
Width: 537
GlyphClass: 2
Flags: HMW
HStem: 0 12<41.5 43 43 79.5 41.5 462> 0 21<272 352 352 384> 315 21<194 313 194 316> 604 21<241.5 275 275 336> 613 12<43 79.5> 679 10
VStem: 129 65<81 85 85 315 336 539> 406 12<231.5 250 231.5 262> 445 9<616 625>
AnchorPoint: "Anchor-15" 0 0 basechar 0
AnchorPoint: "Anchor-14" 292 625 basechar 0
AnchorPoint: "Anchor-13" 472 12 basechar 0
AnchorPoint: "Anchor-12" 287 0 basechar 0
LayerCount: 2
Fore
SplineSet
195 679 m 0x7680
 189 676 186 687 190 689 c 0
 252 721 301 754 353 784 c 0
 354 784 355 785 356 785 c 0
 371 785 419 764 419 758 c 0
 419 757 419 756 417 756 c 0
 328 734 263 709 195 679 c 0x7680
475 149 m 0
 476 153 487 151 487 147 c 0
 482 112 478 57 478 15 c 0
 478 4 474 0 462 0 c 2
 43 0 l 2x7680
 40 0 40 12 43 12 c 0
 116 12 129 23 129 81 c 2
 129 544 l 2xae80
 129 601 116 613 43 613 c 0
 40 613 40 625 43 625 c 2
 445 625 l 2
 452 625 454 622 454 616 c 2
 456 493 l 2
 456 489 446 488 445 492 c 0x7680
 441 563 399 604 336 604 c 2
 275 604 l 2
 208 604 194 592 194 539 c 2
 194 336 l 1
 316 336 l 2
 380 336 405 356 405 406 c 0
 405 409 417 409 417 406 c 0
 417 366 416 350 416 325 c 0
 416 294 418 267 418 233 c 0
 418 230 406 230 406 233 c 0
 406 291 380 315 313 315 c 2x7780
 194 315 l 1
 194 85 l 2
 194 32 207 21 272 21 c 2
 352 21 l 2
 416 21 461 70 475 149 c 0
EndSplineSet
Validated: 1
Substitution2: "'locl' Localized Forms in Latin lookup 8 subtable" Eacute.loclHUN
Substitution2: "'aalt' Access All Alternates lookup 0 subtable" Eacute.loclHUN
Position2: "'cpsp' Capital Spacing lookup 0 subtable" dx=5 dy=0 dh=10 dv=0
EndChar

StartChar: Ebreve
Encoding: 276 276 43
Width: 537
GlyphClass: 2
Flags: MW
HStem: 0 12<41.5 43 43 79.5 41.5 462> 0 21<272 352 352 384> 315 21<194 313 194 316> 604 21<241.5 275 275 336> 613 12<43 79.5> 690 43<270.5 313 270.5 320.5>
VStem: 129 65<81 85 85 315 336 539> 189 11 383 11 406 12<231.5 250 231.5 262> 445 9<616 625>
AnchorPoint: "Anchor-15" 0 0 basechar 0
AnchorPoint: "Anchor-14" 292 625 basechar 0
AnchorPoint: "Anchor-13" 472 12 basechar 0
AnchorPoint: "Anchor-12" 287 0 basechar 0
LayerCount: 2
Fore
SplineSet
292 690 m 0x75a0
 235 690 199 729 189 797 c 0
 188 802 198 803 200 800 c 0
 209 764 249 733 292 733 c 0
 334 733 374 764 383 800 c 0
 384 803 395 802 394 797 c 0
 384 729 349 690 292 690 c 0x75a0
475 149 m 0
 476 153 487 151 487 147 c 0
 482 112 478 57 478 15 c 0
 478 4 474 0 462 0 c 2
 43 0 l 2x7620
 40 0 40 12 43 12 c 0
 116 12 129 23 129 81 c 2
 129 544 l 2xae20
 129 601 116 613 43 613 c 0
 40 613 40 625 43 625 c 2
 445 625 l 2
 452 625 454 622 454 616 c 2
 456 493 l 2
 456 489 446 488 445 492 c 0x7620
 441 563 399 604 336 604 c 2
 275 604 l 2
 208 604 194 592 194 539 c 2
 194 336 l 1
 316 336 l 2
 380 336 405 356 405 406 c 0
 405 409 417 409 417 406 c 0
 417 366 416 350 416 325 c 0
 416 294 418 267 418 233 c 0
 418 230 406 230 406 233 c 0
 406 291 380 315 313 315 c 2
 194 315 l 1
 194 85 l 2
 194 32 207 21 272 21 c 2x7660
 352 21 l 2
 416 21 461 70 475 149 c 0
EndSplineSet
Validated: 1
Position2: "'cpsp' Capital Spacing lookup 0 subtable" dx=5 dy=0 dh=10 dv=0
EndChar

StartChar: Ecaron
Encoding: 282 282 44
Width: 537
GlyphClass: 2
Flags: MW
HStem: 0 12<41.5 43 43 79.5 41.5 462> 0 21<272 352 352 384> 315 21<194 313 194 316> 604 21<241.5 275 275 336> 613 12<43 79.5> 682.5 51.5 714 20G<292 292> 784 7<177 183>
VStem: 129 65<81 85 85 315 336 539> 406 12<231.5 250 231.5 262> 445 9<616 625>
AnchorPoint: "Anchor-15" 0 0 basechar 0
AnchorPoint: "Anchor-14" 292 625 basechar 0
AnchorPoint: "Anchor-13" 472 12 basechar 0
AnchorPoint: "Anchor-12" 287 0 basechar 0
LayerCount: 2
Fore
SplineSet
177 784 m 2x75e0
 174 786 181 792 183 791 c 2
 292 734 l 1
 400 791 l 2
 403 793 409 786 405 784 c 2
 303 687 l 2
 297 681 286 681 280 687 c 2
 177 784 l 2x75e0
475 149 m 0
 476 153 487 151 487 147 c 0
 482 112 478 57 478 15 c 0
 478 4 474 0 462 0 c 2
 43 0 l 2x73a0
 40 0 40 12 43 12 c 0
 116 12 129 23 129 81 c 2
 129 544 l 2xaba0
 129 601 116 613 43 613 c 0
 40 613 40 625 43 625 c 2
 445 625 l 2
 452 625 454 622 454 616 c 2
 456 493 l 2
 456 489 446 488 445 492 c 0x73a0
 441 563 399 604 336 604 c 2
 275 604 l 2
 208 604 194 592 194 539 c 2
 194 336 l 1
 316 336 l 2
 380 336 405 356 405 406 c 0
 405 409 417 409 417 406 c 0
 417 366 416 350 416 325 c 0
 416 294 418 267 418 233 c 0
 418 230 406 230 406 233 c 0
 406 291 380 315 313 315 c 2
 194 315 l 1
 194 85 l 2
 194 32 207 21 272 21 c 2
 352 21 l 2
 416 21 461 70 475 149 c 0
EndSplineSet
Validated: 1
Position2: "'cpsp' Capital Spacing lookup 0 subtable" dx=5 dy=0 dh=10 dv=0
EndChar

StartChar: Ecircumflex
Encoding: 202 202 45
Width: 537
GlyphClass: 2
Flags: MW
HStem: 0 12<41.5 43 43 79.5 41.5 462> 0 21<272 352 352 384> 315 21<194 313 194 316> 604 21<241.5 275 275 336> 613 12<43 79.5> 685 7<178 184>
VStem: 129 65<81 85 85 315 336 539> 406 12<231.5 250 231.5 262> 445 9<616 625>
AnchorPoint: "Anchor-15" 0 0 basechar 0
AnchorPoint: "Anchor-14" 292 625 basechar 0
AnchorPoint: "Anchor-13" 472 12 basechar 0
AnchorPoint: "Anchor-12" 287 0 basechar 0
LayerCount: 2
Fore
SplineSet
184 685 m 2x7680
 182 684 175 690 178 692 c 2
 281 790 l 2
 287 796 298 796 304 790 c 2
 406 692 l 2
 410 690 404 683 401 685 c 2
 293 743 l 1
 184 685 l 2x7680
475 149 m 0
 476 153 487 151 487 147 c 0
 482 112 478 57 478 15 c 0
 478 4 474 0 462 0 c 2
 43 0 l 2x7680
 40 0 40 12 43 12 c 0
 116 12 129 23 129 81 c 2
 129 544 l 2xae80
 129 601 116 613 43 613 c 0
 40 613 40 625 43 625 c 2
 445 625 l 2
 452 625 454 622 454 616 c 2
 456 493 l 2
 456 489 446 488 445 492 c 0x7680
 441 563 399 604 336 604 c 2
 275 604 l 2
 208 604 194 592 194 539 c 2
 194 336 l 1
 316 336 l 2
 380 336 405 356 405 406 c 0
 405 409 417 409 417 406 c 0
 417 366 416 350 416 325 c 0
 416 294 418 267 418 233 c 0
 418 230 406 230 406 233 c 0
 406 291 380 315 313 315 c 2x7780
 194 315 l 1
 194 85 l 2
 194 32 207 21 272 21 c 2
 352 21 l 2
 416 21 461 70 475 149 c 0
EndSplineSet
Validated: 1
Position2: "'cpsp' Capital Spacing lookup 0 subtable" dx=5 dy=0 dh=10 dv=0
EndChar

StartChar: uni1EBE
Encoding: 7870 7870 46
Width: 537
GlyphClass: 2
Flags: HMW
HStem: 0 12<41.5 43 43 79.5 41.5 462> 0 21<272 352 352 384> 315 21<194 313 194 316> 604 21<241.5 275 275 336> 613 12<43 79.5> 648 7<177 183>
VStem: 129 65<81 85 85 315 336 539> 406 12<231.5 250 231.5 262> 445 9<616 625>
AnchorPoint: "Anchor-15" 0 0 basechar 0
AnchorPoint: "Anchor-14" 337 831 basechar 0
AnchorPoint: "Anchor-13" 472 12 basechar 0
AnchorPoint: "Anchor-12" 287 0 basechar 0
LayerCount: 2
Fore
SplineSet
426 829 m 0x7280
 427 830 428 830 430 830 c 0
 446 830 493 810 493 803 c 0
 493 802 493 801 491 801 c 0
 437 779 398 754 357 724 c 0
 351 721 347 728 350 732 c 0
 378 763 404 797 426 829 c 0x7280
183 648 m 2x7780
 181 647 174 653 177 655 c 2
 280 752 l 2
 286 758 297 758 303 752 c 2
 405 655 l 2
 409 653 403 646 400 648 c 2
 292 705 l 1
 183 648 l 2x7780
475 149 m 0
 476 153 487 151 487 147 c 0
 482 112 478 57 478 15 c 0
 478 4 474 0 462 0 c 2
 43 0 l 2x7280
 40 0 40 12 43 12 c 0
 116 12 129 23 129 81 c 2
 129 544 l 2xaa80
 129 601 116 613 43 613 c 0
 40 613 40 625 43 625 c 2
 445 625 l 2
 452 625 454 622 454 616 c 2
 456 493 l 2
 456 489 446 488 445 492 c 0
 441 563 399 604 336 604 c 2
 275 604 l 2
 208 604 194 592 194 539 c 2x7280
 194 336 l 1
 316 336 l 2
 380 336 405 356 405 406 c 0
 405 409 417 409 417 406 c 0
 417 366 416 350 416 325 c 0
 416 294 418 267 418 233 c 0
 418 230 406 230 406 233 c 0
 406 291 380 315 313 315 c 2
 194 315 l 1
 194 85 l 2
 194 32 207 21 272 21 c 2
 352 21 l 2
 416 21 461 70 475 149 c 0
EndSplineSet
Validated: 1
Position2: "'cpsp' Capital Spacing lookup 0 subtable" dx=5 dy=0 dh=10 dv=0
EndChar

StartChar: uni1EC6
Encoding: 7878 7878 47
Width: 537
GlyphClass: 2
Flags: MW
HStem: -190 84<274 301.5> 0 12<41.5 43 43 79.5 41.5 462> 0 21<272 352 352 384> 315 21<194 313 194 316> 604 21<241.5 275 275 336> 613 12<43 79.5> 648 7<177 183>
VStem: 129 65<81 85 85 315 336 539> 244 86<-161.5 -134.5> 406 12<231.5 250 231.5 262> 445 9<616 625>
AnchorPoint: "Anchor-15" 0 0 basechar 0
AnchorPoint: "Anchor-14" 412 670 basechar 0
AnchorPoint: "Anchor-13" 472 12 basechar 0
AnchorPoint: "Anchor-12" 289 -207 basechar 0
LayerCount: 2
Fore
SplineSet
183 648 m 2x3b60
 181 647 174 653 177 655 c 2
 280 752 l 2
 286 758 297 758 303 752 c 2
 405 655 l 2
 409 653 403 646 400 648 c 2
 292 705 l 1
 183 648 l 2x3b60
475 149 m 0
 476 153 487 151 487 147 c 0
 482 112 478 57 478 15 c 0
 478 4 474 0 462 0 c 2
 43 0 l 2x3920
 40 0 40 12 43 12 c 0
 116 12 129 23 129 81 c 2
 129 544 l 2x5520
 129 601 116 613 43 613 c 0
 40 613 40 625 43 625 c 2
 445 625 l 2
 452 625 454 622 454 616 c 2
 456 493 l 2
 456 489 446 488 445 492 c 0
 441 563 399 604 336 604 c 2
 275 604 l 2
 208 604 194 592 194 539 c 2x3920
 194 336 l 1
 316 336 l 2
 380 336 405 356 405 406 c 0
 405 409 417 409 417 406 c 0
 417 366 416 350 416 325 c 0
 416 294 418 267 418 233 c 0
 418 230 406 230 406 233 c 0
 406 291 380 315 313 315 c 2
 194 315 l 1
 194 85 l 2
 194 32 207 21 272 21 c 2
 352 21 l 2
 416 21 461 70 475 149 c 0
288 -106 m 0xb9a0
 315 -106 330 -121 330 -148 c 0
 330 -175 315 -190 288 -190 c 0
 260 -190 244 -175 244 -148 c 0
 244 -121 260 -106 288 -106 c 0xb9a0
EndSplineSet
Validated: 1
Position2: "'cpsp' Capital Spacing lookup 0 subtable" dx=5 dy=0 dh=10 dv=0
EndChar

StartChar: uni1EC0
Encoding: 7872 7872 48
Width: 537
GlyphClass: 2
Flags: HMW
HStem: 0 12<41.5 43 43 79.5 41.5 462> 0 21<272 352 352 384> 315 21<194 313 194 316> 604 21<241.5 275 275 336> 613 12<43 79.5> 648 7<177 183>
VStem: 129 65<81 85 85 315 336 539> 406 12<231.5 250 231.5 262> 445 9<616 625>
AnchorPoint: "Anchor-15" 0 0 basechar 0
AnchorPoint: "Anchor-14" 329 824 basechar 0
AnchorPoint: "Anchor-13" 472 12 basechar 0
AnchorPoint: "Anchor-12" 287 0 basechar 0
LayerCount: 2
Fore
SplineSet
326 779 m 0x7280
 324 779 324 780 324 781 c 0
 324 788 372 808 387 808 c 0
 389 808 390 808 391 807 c 0
 413 775 438 743 467 711 c 0
 471 706 465 699 459 702 c 0
 418 732 380 757 326 779 c 0x7280
183 648 m 2x7780
 181 647 174 653 177 655 c 2
 280 752 l 2
 286 758 297 758 303 752 c 2
 405 655 l 2
 409 653 403 646 400 648 c 2
 292 705 l 1
 183 648 l 2x7780
475 149 m 0
 476 153 487 151 487 147 c 0
 482 112 478 57 478 15 c 0
 478 4 474 0 462 0 c 2
 43 0 l 2x7280
 40 0 40 12 43 12 c 0
 116 12 129 23 129 81 c 2
 129 544 l 2xaa80
 129 601 116 613 43 613 c 0
 40 613 40 625 43 625 c 2
 445 625 l 2
 452 625 454 622 454 616 c 2
 456 493 l 2
 456 489 446 488 445 492 c 0
 441 563 399 604 336 604 c 2
 275 604 l 2
 208 604 194 592 194 539 c 2x7280
 194 336 l 1
 316 336 l 2
 380 336 405 356 405 406 c 0
 405 409 417 409 417 406 c 0
 417 366 416 350 416 325 c 0
 416 294 418 267 418 233 c 0
 418 230 406 230 406 233 c 0
 406 291 380 315 313 315 c 2
 194 315 l 1
 194 85 l 2
 194 32 207 21 272 21 c 2
 352 21 l 2
 416 21 461 70 475 149 c 0
EndSplineSet
Validated: 1
Position2: "'cpsp' Capital Spacing lookup 0 subtable" dx=5 dy=0 dh=10 dv=0
EndChar

StartChar: uni1EC2
Encoding: 7874 7874 49
Width: 537
GlyphClass: 2
Flags: HMW
HStem: 0 12<41.5 43 43 79.5 41.5 462> 0 21<272 352 352 384> 315 21<194 313 194 316> 604 21<241.5 275 275 336> 613 12<43 79.5> 648 7<177 183> 838 8 843 22<361 409.5>
VStem: 129 65<81 85 85 315 336 539> 369.7 13.3 399 43<801 823> 406 12<231.5 250 231.5 262> 445 9<616 625>
AnchorPoint: "Anchor-15" 0 0 basechar 0
AnchorPoint: "Anchor-14" 311 862 basechar 0
AnchorPoint: "Anchor-13" 472 12 basechar 0
AnchorPoint: "Anchor-12" 287 0 basechar 0
LayerCount: 2
Fore
SplineSet
341 838 m 0x71e0
 338 836 330 844 334 846 c 0x72e0
 355 859 379 865 394 865 c 0
 425 865 442 843 442 822 c 0
 442 782 382 761 382 730 c 0
 382 728 383 726 383 724 c 0
 385 721 373 720 372 724 c 0
 370 729 370 733 370 737 c 0
 370 764 399 784 399 812 c 0
 399 834 380 843 365 843 c 0
 357 843 348 841 341 838 c 0x71e0
183 648 m 2x74d8
 181 647 174 653 177 655 c 2
 280 752 l 2
 286 758 297 758 303 752 c 2
 405 655 l 2
 409 653 403 646 400 648 c 2
 292 705 l 1
 183 648 l 2x74d8
475 149 m 0
 476 153 487 151 487 147 c 0
 482 112 478 57 478 15 c 0
 478 4 474 0 462 0 c 2
 43 0 l 2x70c8
 40 0 40 12 43 12 c 0
 116 12 129 23 129 81 c 2
 129 544 l 2xa8c8
 129 601 116 613 43 613 c 0
 40 613 40 625 43 625 c 2
 445 625 l 2
 452 625 454 622 454 616 c 2
 456 493 l 2
 456 489 446 488 445 492 c 0
 441 563 399 604 336 604 c 2
 275 604 l 2
 208 604 194 592 194 539 c 2x70c8
 194 336 l 1
 316 336 l 2
 380 336 405 356 405 406 c 0
 405 409 417 409 417 406 c 0
 417 366 416 350 416 325 c 0
 416 294 418 267 418 233 c 0
 418 230 406 230 406 233 c 0
 406 291 380 315 313 315 c 2
 194 315 l 1
 194 85 l 2
 194 32 207 21 272 21 c 2
 352 21 l 2
 416 21 461 70 475 149 c 0
EndSplineSet
Validated: 1
Position2: "'cpsp' Capital Spacing lookup 0 subtable" dx=5 dy=0 dh=10 dv=0
EndChar

StartChar: uni1EC4
Encoding: 7876 7876 50
Width: 537
GlyphClass: 2
Flags: MW
HStem: 0 12<41.5 43 43 79.5 41.5 462> 0 21<272 352 352 384> 315 21<194 313 194 316> 604 21<241.5 275 275 336> 613 12<43 79.5> 648 7<177 183> 769 42<349.5 363> 794 41<231.5 245>
VStem: 129 65<81 85 85 315 336 539> 406 12<231.5 250 231.5 262> 445 9<616 625>
AnchorPoint: "Anchor-15" 0 0 basechar 0
AnchorPoint: "Anchor-14" 300 838 basechar 0
AnchorPoint: "Anchor-13" 472 12 basechar 0
AnchorPoint: "Anchor-12" 287 0 basechar 0
LayerCount: 2
Fore
SplineSet
171 767 m 0x71a0
 168 765 161 770 164 774 c 0
 180 796 214 835 249 835 c 0x71a0
 282 835 325 811 374 811 c 0
 399 811 411 824 423 838 c 0
 426 840 433 834 430 831 c 0
 394 781 375 769 351 769 c 0x72a0
 307 769 270 794 220 794 c 0
 193 794 185 780 171 767 c 0x71a0
303 752 m 2x75e0
 405 655 l 2
 409 653 403 646 400 648 c 2
 292 705 l 1
 183 648 l 2
 181 647 174 653 177 655 c 2
 280 752 l 2
 286 758 297 758 303 752 c 2x75e0
475 149 m 0
 476 153 487 151 487 147 c 0
 482 112 478 57 478 15 c 0
 478 4 474 0 462 0 c 2
 43 0 l 2x71a0
 40 0 40 12 43 12 c 0
 116 12 129 23 129 81 c 2
 129 544 l 2xa9a0
 129 601 116 613 43 613 c 0
 40 613 40 625 43 625 c 2
 445 625 l 2
 452 625 454 622 454 616 c 2
 456 493 l 2
 456 489 446 488 445 492 c 0
 441 563 399 604 336 604 c 2
 275 604 l 2
 208 604 194 592 194 539 c 2x71a0
 194 336 l 1
 316 336 l 2
 380 336 405 356 405 406 c 0
 405 409 417 409 417 406 c 0
 417 366 416 350 416 325 c 0
 416 294 418 267 418 233 c 0
 418 230 406 230 406 233 c 0
 406 291 380 315 313 315 c 2
 194 315 l 1
 194 85 l 2
 194 32 207 21 272 21 c 2
 352 21 l 2
 416 21 461 70 475 149 c 0
EndSplineSet
Validated: 1
Position2: "'cpsp' Capital Spacing lookup 0 subtable" dx=5 dy=0 dh=10 dv=0
EndChar

StartChar: Edieresis
Encoding: 203 203 51
Width: 537
GlyphClass: 2
Flags: MW
HStem: 0 12<41.5 43 43 79.5 41.5 462> 0 21<272 352 352 384> 315 21<194 313 194 316> 604 21<241.5 275 275 336> 613 12<43 79.5> 717 82<191.5 218 367 393.5>
VStem: 129 65<81 85 85 315 336 539> 162 84<745 771> 337 85<745 771> 406 12<231.5 250 231.5 262> 445 9<616 625>
AnchorPoint: "Anchor-15" 0 0 basechar 0
AnchorPoint: "Anchor-14" 292 625 basechar 0
AnchorPoint: "Anchor-13" 472 12 basechar 0
AnchorPoint: "Anchor-12" 287 0 basechar 0
LayerCount: 2
Fore
SplineSet
205 717 m 0x75a0
 178 717 162 732 162 758 c 0
 162 784 178 799 205 799 c 0
 231 799 246 784 246 758 c 0
 246 732 231 717 205 717 c 0x75a0
380 717 m 0
 354 717 337 732 337 758 c 0
 337 784 354 799 380 799 c 0
 407 799 422 784 422 758 c 0
 422 732 407 717 380 717 c 0
475 149 m 0
 476 153 487 151 487 147 c 0
 482 112 478 57 478 15 c 0
 478 4 474 0 462 0 c 2
 43 0 l 2x7220
 40 0 40 12 43 12 c 0
 116 12 129 23 129 81 c 2
 129 544 l 2xaa20
 129 601 116 613 43 613 c 0
 40 613 40 625 43 625 c 2
 445 625 l 2
 452 625 454 622 454 616 c 2
 456 493 l 2
 456 489 446 488 445 492 c 0x7220
 441 563 399 604 336 604 c 2
 275 604 l 2
 208 604 194 592 194 539 c 2
 194 336 l 1
 316 336 l 2
 380 336 405 356 405 406 c 0
 405 409 417 409 417 406 c 0
 417 366 416 350 416 325 c 0
 416 294 418 267 418 233 c 0
 418 230 406 230 406 233 c 0
 406 291 380 315 313 315 c 2
 194 315 l 1
 194 85 l 2
 194 32 207 21 272 21 c 2x7260
 352 21 l 2
 416 21 461 70 475 149 c 0
EndSplineSet
Validated: 1
Position2: "'cpsp' Capital Spacing lookup 0 subtable" dx=5 dy=0 dh=10 dv=0
EndChar

StartChar: Edotaccent
Encoding: 278 278 52
Width: 537
GlyphClass: 2
Flags: MW
HStem: 0 12<41.5 43 43 79.5 41.5 462> 0 21<272 352 352 384> 315 21<194 313 194 316> 604 21<241.5 275 275 336> 613 12<43 79.5> 713 85<278 305.5>
VStem: 129 65<81 85 85 315 336 539> 248 86<743 769.5> 406 12<231.5 250 231.5 262> 445 9<616 625>
AnchorPoint: "Anchor-15" 0 0 basechar 0
AnchorPoint: "Anchor-14" 294 613 basechar 0
AnchorPoint: "Anchor-13" 472 12 basechar 0
AnchorPoint: "Anchor-12" 287 0 basechar 0
LayerCount: 2
Fore
SplineSet
292 713 m 0x7740
 264 713 248 729 248 757 c 0
 248 782 264 798 292 798 c 0
 319 798 334 782 334 757 c 0
 334 729 319 713 292 713 c 0x7740
475 149 m 0
 476 153 487 151 487 147 c 0
 482 112 478 57 478 15 c 0
 478 4 474 0 462 0 c 2
 43 0 l 2x7740
 40 0 40 12 43 12 c 0
 116 12 129 23 129 81 c 2
 129 544 l 2xaf40
 129 601 116 613 43 613 c 0
 40 613 40 625 43 625 c 2
 445 625 l 2
 452 625 454 622 454 616 c 2
 456 493 l 2
 456 489 446 488 445 492 c 0x7740
 441 563 399 604 336 604 c 2
 275 604 l 2
 208 604 194 592 194 539 c 2
 194 336 l 1
 316 336 l 2
 380 336 405 356 405 406 c 0
 405 409 417 409 417 406 c 0
 417 366 416 350 416 325 c 0
 416 294 418 267 418 233 c 0
 418 230 406 230 406 233 c 0
 406 291 380 315 313 315 c 2x77c0
 194 315 l 1
 194 85 l 2
 194 32 207 21 272 21 c 2
 352 21 l 2
 416 21 461 70 475 149 c 0
EndSplineSet
Validated: 1
Position2: "'cpsp' Capital Spacing lookup 0 subtable" dx=5 dy=0 dh=10 dv=0
EndChar

StartChar: uni1EB8
Encoding: 7864 7864 53
Width: 537
GlyphClass: 2
Flags: MW
HStem: -190 84<274 301.5> 0 12<41.5 43 43 79.5 41.5 462> 0 21<272 352 352 384> 315 21<194 313 194 316> 604 21<241.5 275 275 336> 613 12<43 79.5>
VStem: 129 65<81 85 85 315 336 539> 244 86<-161.5 -134.5> 406 12<231.5 250 231.5 262> 445 9<616 625>
AnchorPoint: "Anchor-15" 0 0 basechar 0
AnchorPoint: "Anchor-14" 292 625 basechar 0
AnchorPoint: "Anchor-13" 472 12 basechar 0
AnchorPoint: "Anchor-12" 289 -207 basechar 0
LayerCount: 2
Fore
SplineSet
475 149 m 0x3a40
 476 153 487 151 487 147 c 0
 482 112 478 57 478 15 c 0
 478 4 474 0 462 0 c 2
 43 0 l 2x3a40
 40 0 40 12 43 12 c 0
 116 12 129 23 129 81 c 2
 129 544 l 2x5640
 129 601 116 613 43 613 c 0
 40 613 40 625 43 625 c 2
 445 625 l 2
 452 625 454 622 454 616 c 2
 456 493 l 2
 456 489 446 488 445 492 c 0x3a40
 441 563 399 604 336 604 c 2
 275 604 l 2
 208 604 194 592 194 539 c 2
 194 336 l 1
 316 336 l 2
 380 336 405 356 405 406 c 0
 405 409 417 409 417 406 c 0
 417 366 416 350 416 325 c 0
 416 294 418 267 418 233 c 0
 418 230 406 230 406 233 c 0
 406 291 380 315 313 315 c 2x3ac0
 194 315 l 1
 194 85 l 2
 194 32 207 21 272 21 c 2
 352 21 l 2
 416 21 461 70 475 149 c 0x3a40
288 -106 m 0xbb40
 315 -106 330 -121 330 -148 c 0
 330 -175 315 -190 288 -190 c 0
 260 -190 244 -175 244 -148 c 0
 244 -121 260 -106 288 -106 c 0xbb40
EndSplineSet
Validated: 1
Position2: "'cpsp' Capital Spacing lookup 0 subtable" dx=5 dy=0 dh=10 dv=0
EndChar

StartChar: Egrave
Encoding: 200 200 54
Width: 537
GlyphClass: 2
Flags: HMW
HStem: 0 12<41.5 43 43 79.5 41.5 462> 0 21<272 352 352 384> 315 21<194 313 194 316> 604 21<241.5 275 275 336> 613 12<43 79.5>
VStem: 129 65<81 85 85 315 336 539> 406 12<231.5 250 231.5 262> 445 9<616 625>
AnchorPoint: "Anchor-15" 0 0 basechar 0
AnchorPoint: "Anchor-14" 292 625 basechar 0
AnchorPoint: "Anchor-13" 472 12 basechar 0
AnchorPoint: "Anchor-12" 287 0 basechar 0
LayerCount: 2
Fore
SplineSet
168 756 m 0x75
 166 756 166 757 166 758 c 0
 166 764 215 785 230 785 c 0
 231 785 232 784 233 784 c 0
 284 753 334 721 395 689 c 0
 400 687 396 676 391 679 c 0
 323 709 257 734 168 756 c 0x75
475 149 m 0
 476 153 487 151 487 147 c 0
 482 112 478 57 478 15 c 0
 478 4 474 0 462 0 c 2
 43 0 l 2x75
 40 0 40 12 43 12 c 0
 116 12 129 23 129 81 c 2
 129 544 l 2xad
 129 601 116 613 43 613 c 0
 40 613 40 625 43 625 c 2
 445 625 l 2
 452 625 454 622 454 616 c 2
 456 493 l 2
 456 489 446 488 445 492 c 0x75
 441 563 399 604 336 604 c 2
 275 604 l 2
 208 604 194 592 194 539 c 2
 194 336 l 1
 316 336 l 2
 380 336 405 356 405 406 c 0
 405 409 417 409 417 406 c 0
 417 366 416 350 416 325 c 0
 416 294 418 267 418 233 c 0
 418 230 406 230 406 233 c 0
 406 291 380 315 313 315 c 2x77
 194 315 l 1
 194 85 l 2
 194 32 207 21 272 21 c 2
 352 21 l 2
 416 21 461 70 475 149 c 0
EndSplineSet
Validated: 1
Position2: "'cpsp' Capital Spacing lookup 0 subtable" dx=5 dy=0 dh=10 dv=0
EndChar

StartChar: uni1EBA
Encoding: 7866 7866 55
Width: 537
GlyphClass: 2
Flags: HMW
HStem: 0 12<41.5 43 43 79.5 41.5 462> 0 21<272 352 352 384> 315 21<194 313 194 316> 604 21<241.5 275 275 336> 613 12<43 79.5> 820 22<274.5 329.5>
VStem: 129 65<81 85 85 315 336 539> 280.03 14.97 321 52<762 793.5> 406 12<231.5 250 231.5 262> 445 9<616 625>
AnchorPoint: "Anchor-15" 0 0 basechar 0
AnchorPoint: "Anchor-14" 294 789 basechar 0
AnchorPoint: "Anchor-13" 472 12 basechar 0
AnchorPoint: "Anchor-12" 287 0 basechar 0
LayerCount: 2
Fore
SplineSet
251 813 m 0x77a0
 248 811 239 819 244 821 c 0
 265 836 289 842 309 842 c 0
 350 842 373 818 373 790 c 0x77a0
 373 738 294 708 294 661 c 0
 294 658 294 654 295 651 c 0x7720
 295 649 284 648 283 651 c 0
 281 658 280 665 280 672 c 0
 280 716 321 742 321 780 c 0
 321 807 301 820 279 820 c 0
 270 820 259 817 251 813 c 0x77a0
475 149 m 0
 476 153 487 151 487 147 c 0
 482 112 478 57 478 15 c 0
 478 4 474 0 462 0 c 2
 43 0 l 2x7720
 40 0 40 12 43 12 c 0
 116 12 129 23 129 81 c 2
 129 544 l 2xaf20
 129 601 116 613 43 613 c 0
 40 613 40 625 43 625 c 2
 445 625 l 2
 452 625 454 622 454 616 c 2
 456 493 l 2
 456 489 446 488 445 492 c 0x7720
 441 563 399 604 336 604 c 2
 275 604 l 2
 208 604 194 592 194 539 c 2
 194 336 l 1
 316 336 l 2
 380 336 405 356 405 406 c 0
 405 409 417 409 417 406 c 0
 417 366 416 350 416 325 c 0
 416 294 418 267 418 233 c 0
 418 230 406 230 406 233 c 0
 406 291 380 315 313 315 c 2
 194 315 l 1
 194 85 l 2
 194 32 207 21 272 21 c 2
 352 21 l 2x7760
 416 21 461 70 475 149 c 0
EndSplineSet
Validated: 1
Position2: "'cpsp' Capital Spacing lookup 0 subtable" dx=5 dy=0 dh=10 dv=0
EndChar

StartChar: Emacron
Encoding: 274 274 56
Width: 537
GlyphClass: 2
Flags: MW
HStem: 0 12<41.5 43 43 79.5 41.5 462> 0 21<272 352 352 384> 315 21<194 313 194 316> 604 21<241.5 275 275 336> 613 12<43 79.5> 722 28<162 417 166 417>
VStem: 129 65<81 85 85 315 336 539> 406 12<231.5 250 231.5 262> 445 9<616 625>
AnchorPoint: "Anchor-15" 0 0 basechar 0
AnchorPoint: "Anchor-14" 292 625 basechar 0
AnchorPoint: "Anchor-13" 472 12 basechar 0
AnchorPoint: "Anchor-12" 287 0 basechar 0
LayerCount: 2
Fore
SplineSet
166 722 m 2x7680
 158 722 158 750 166 750 c 2
 417 750 l 2
 425 750 425 722 417 722 c 2
 166 722 l 2x7680
475 149 m 0
 476 153 487 151 487 147 c 0
 482 112 478 57 478 15 c 0
 478 4 474 0 462 0 c 2
 43 0 l 2x7680
 40 0 40 12 43 12 c 0
 116 12 129 23 129 81 c 2
 129 544 l 2xae80
 129 601 116 613 43 613 c 0
 40 613 40 625 43 625 c 2
 445 625 l 2
 452 625 454 622 454 616 c 2
 456 493 l 2
 456 489 446 488 445 492 c 0x7680
 441 563 399 604 336 604 c 2
 275 604 l 2
 208 604 194 592 194 539 c 2
 194 336 l 1
 316 336 l 2
 380 336 405 356 405 406 c 0
 405 409 417 409 417 406 c 0
 417 366 416 350 416 325 c 0
 416 294 418 267 418 233 c 0
 418 230 406 230 406 233 c 0
 406 291 380 315 313 315 c 2x7780
 194 315 l 1
 194 85 l 2
 194 32 207 21 272 21 c 2
 352 21 l 2
 416 21 461 70 475 149 c 0
EndSplineSet
Validated: 1
Position2: "'cpsp' Capital Spacing lookup 0 subtable" dx=5 dy=0 dh=10 dv=0
EndChar

StartChar: Eogonek
Encoding: 280 280 57
Width: 537
GlyphClass: 2
Flags: MW
HStem: -275 30<401.5 414.5> 0 12<41.5 43 43 79.5 41.5 396> 0 21<272 352 352 384> 315 21<194 313 194 316> 604 21<241.5 275 275 336> 613 12<43 79.5>
VStem: 129 65<81 85 85 315 336 539> 284 55<-174.5 -147.5> 406 12<231.5 250 231.5 262> 445 9<616 625>
AnchorPoint: "Anchor-15" 0 0 basechar 0
AnchorPoint: "Anchor-14" 269 625 basechar 0
AnchorPoint: "Anchor-13" 472 12 basechar 0
AnchorPoint: "Anchor-12" 287 0 basechar 0
LayerCount: 2
Fore
SplineSet
497 -222 m 0xbb40
 501 -220 508 -227 504 -230 c 0
 467 -262 433 -275 396 -275 c 0
 323 -275 284 -235 284 -176 c 0
 284 -119 321 -60 396 0 c 1
 43 0 l 2xbb40
 40 0 40 12 43 12 c 0
 116 12 129 23 129 81 c 2
 129 544 l 2xd740
 129 601 116 613 43 613 c 0
 40 613 40 625 43 625 c 2
 445 625 l 2
 452 625 454 622 454 616 c 2
 456 493 l 2
 456 489 446 488 445 492 c 0xbb40
 441 563 399 604 336 604 c 2
 275 604 l 2
 208 604 194 592 194 539 c 2
 194 336 l 1
 316 336 l 2
 380 336 405 356 405 406 c 0
 405 409 417 409 417 406 c 0
 417 366 416 350 416 325 c 0
 416 294 418 267 418 233 c 0
 418 230 406 230 406 233 c 0
 406 291 380 315 313 315 c 2xbbc0
 194 315 l 1
 194 85 l 2
 194 32 207 21 272 21 c 2
 352 21 l 2
 416 21 461 70 475 149 c 0
 476 153 487 151 487 147 c 0
 482 112 478 57 478 15 c 0
 478 4 474 0 462 0 c 2
 415 0 l 1
 361 -49 339 -91 339 -143 c 0
 339 -206 371 -245 432 -245 c 0
 463 -245 482 -233 497 -222 c 0xbb40
EndSplineSet
Validated: 1
Position2: "'cpsp' Capital Spacing lookup 0 subtable" dx=5 dy=0 dh=10 dv=0
EndChar

StartChar: uni1EBC
Encoding: 7868 7868 58
Width: 537
GlyphClass: 2
Flags: MW
HStem: 0 12<41.5 43 43 79.5 41.5 462> 0 21<272 352 352 384> 315 21<194 313 194 316> 604 21<241.5 275 275 336> 613 12<43 79.5> 700 42<345.5 359> 724 43<227.5 241.5>
VStem: 129 65<81 85 85 315 336 539> 406 12<231.5 250 231.5 262> 445 9<616 625>
AnchorPoint: "Anchor-15" 0 0 basechar 0
AnchorPoint: "Anchor-14" 292 625 basechar 0
AnchorPoint: "Anchor-13" 472 12 basechar 0
AnchorPoint: "Anchor-12" 287 0 basechar 0
LayerCount: 2
Fore
SplineSet
167 697 m 0x7340
 164 695 157 701 160 704 c 0
 176 728 210 767 245 767 c 0x7340
 278 767 321 742 370 742 c 0
 395 742 407 754 419 769 c 0
 422 771 429 766 426 762 c 0
 390 711 371 700 347 700 c 0x7540
 303 700 266 724 217 724 c 0
 189 724 181 711 167 697 c 0x7340
475 149 m 0
 476 153 487 151 487 147 c 0
 482 112 478 57 478 15 c 0
 478 4 474 0 462 0 c 2
 43 0 l 2x7540
 40 0 40 12 43 12 c 0
 116 12 129 23 129 81 c 2
 129 544 l 2xad40
 129 601 116 613 43 613 c 0
 40 613 40 625 43 625 c 2
 445 625 l 2
 452 625 454 622 454 616 c 2
 456 493 l 2
 456 489 446 488 445 492 c 0x7540
 441 563 399 604 336 604 c 2
 275 604 l 2
 208 604 194 592 194 539 c 2
 194 336 l 1
 316 336 l 2
 380 336 405 356 405 406 c 0
 405 409 417 409 417 406 c 0
 417 366 416 350 416 325 c 0
 416 294 418 267 418 233 c 0
 418 230 406 230 406 233 c 0
 406 291 380 315 313 315 c 2
 194 315 l 1
 194 85 l 2
 194 32 207 21 272 21 c 2
 352 21 l 2x75c0
 416 21 461 70 475 149 c 0
EndSplineSet
Validated: 1
Position2: "'cpsp' Capital Spacing lookup 0 subtable" dx=5 dy=0 dh=10 dv=0
EndChar

StartChar: F
Encoding: 70 70 59
Width: 509
GlyphClass: 2
Flags: MW
HStem: 0 12<40.5 58.5 293 317> 303 21<194 292 194 295> 376.25 20G 604 21<242 275 275 336> 613 12<43 79.5>
VStem: 129 65<81 85 85 303 324 543> 394 12<219.5 238 219.5 250> 445 9<616 625>
AnchorPoint: "Anchor-15" 0 0 basechar 0
AnchorPoint: "Anchor-14" 255 625 basechar 0
AnchorPoint: "Anchor-13" 0 0 basechar 0
AnchorPoint: "Anchor-12" 255 0 basechar 0
LayerCount: 2
Fore
SplineSet
454 616 m 2xf7
 456 493 l 2
 456 489 446 488 445 492 c 0
 441 563 399 604 336 604 c 2
 275 604 l 2
 209 604 194 592 194 543 c 2xf7
 194 324 l 1
 295 324 l 2
 366 324 393 345 393 394 c 0
 393 397 405 397 405 394 c 0
 405 354 404 338 404 313 c 0
 404 282 406 255 406 221 c 0
 406 218 394 218 394 221 c 0
 394 279 366 303 292 303 c 2
 194 303 l 1
 194 85 l 2
 194 25 210 12 315 12 c 0
 319 12 319 0 315 0 c 0
 271 0 222 2 161 2 c 0
 117 2 75 0 42 0 c 0
 39 0 39 12 42 12 c 0
 116 12 129 23 129 81 c 2
 129 544 l 2xef
 129 601 116 613 43 613 c 0
 40 613 40 625 43 625 c 2
 445 625 l 2
 452 625 454 622 454 616 c 2xf7
EndSplineSet
Validated: 1
Position2: "'cpsp' Capital Spacing lookup 0 subtable" dx=5 dy=0 dh=10 dv=0
EndChar

StartChar: G
Encoding: 71 71 60
Width: 714
GlyphClass: 2
Flags: HMW
HStem: -12 15<331 441> 232 11.25 232 16<446 449 445.5 503> 620 16<326.5 459.5 318.5 465.5>
VStem: 49 77<249 415> 564 60<81.5 168 81.5 173>
AnchorPoint: "Anchor-15" 0 0 basechar 0
AnchorPoint: "Anchor-14" 394 625 basechar 0
AnchorPoint: "Anchor-13" 0 0 basechar 0
AnchorPoint: "Anchor-12" 425 0 basechar 0
LayerCount: 2
Fore
SplineSet
408 -12 m 0xbc
 181 -12 49 138 49 316 c 0
 49 514 213 636 424 636 c 0
 495 636 560 622 602 597 c 0
 612 591 612 591 613 575 c 2
 625 457 l 2
 625 453 615 451 613 456 c 0
 586 552 526 620 405 620 c 0
 248 620 126 509 126 331 c 0
 126 167 227 3 435 3 c 0
 530 3 564 36 564 125 c 0xdc
 564 221 556 232 450 232 c 0
 442 232 442 248 449 248 c 0
 496 245 536 243 575 243 c 0
 608 243 639 244 674 246 c 0xbc
 680 246 681 232 674 232 c 0xdc
 672 232 671 232 669 232 c 0
 627 232 624 217 624 115 c 0
 624 48 631 43 631 27 c 0
 631 19 629 18 620 15 c 0
 551 0 474 -12 408 -12 c 0xbc
EndSplineSet
Validated: 1
Position2: "'cpsp' Capital Spacing lookup 0 subtable" dx=5 dy=0 dh=10 dv=0
EndChar

StartChar: G_tildecomb
Encoding: 65537 -1 61
Width: 714
GlyphClass: 2
Flags: HMW
HStem: -12 17<341 439> 233 11.25 233 16<445 448 444.5 501.5> 614 22<320.5 443> 721 42<446.5 460> 746 41<328.5 342>
VStem: 49 74<242.5 403.5> 562 60<82.5 169 82.5 174>
AnchorPoint: "Anchor-15" 0 0 basechar 0
AnchorPoint: "Anchor-14" 358 386 basechar 0
AnchorPoint: "Anchor-13" 0 0 basechar 0
AnchorPoint: "Anchor-12" 358 0 basechar 0
LayerCount: 2
Fore
SplineSet
471 763 m 0xbb
 496 763 508 776 520 790 c 0
 523 792 530 786 527 783 c 0
 491 733 472 721 448 721 c 0xbb
 404 721 367 746 317 746 c 0
 290 746 282 732 268 719 c 0
 265 717 258 722 261 726 c 0
 277 748 311 787 346 787 c 0xb7
 379 787 422 763 471 763 c 0xbb
405 -12 m 0xd7
 180 -12 49 129 49 305 c 0
 49 502 211 636 430 636 c 0
 493 636 557 624 596 600 c 0
 608 592 607 589 608 577 c 2
 620 465 l 2
 620 462 609 459 608 464 c 0
 579 561 499 614 387 614 c 0
 217 614 123 509 123 341 c 0
 123 144 253 5 429 5 c 0
 525 5 562 23 562 126 c 0xd7
 562 222 554 233 449 233 c 0
 441 233 441 249 448 249 c 0
 495 246 535 244 574 244 c 0
 606 244 638 245 672 247 c 0xb7
 678 247 679 233 672 233 c 0
 670 233 669 233 667 233 c 0
 626 233 622 218 622 116 c 0
 622 49 629 44 629 28 c 0
 629 20 627 19 618 16 c 0
 550 0 473 -12 405 -12 c 0xd7
EndSplineSet
Validated: 1
Position2: "'cpsp' Capital Spacing lookup 0 subtable" dx=5 dy=0 dh=10 dv=0
EndChar

StartChar: Gbreve
Encoding: 286 286 62
Width: 714
GlyphClass: 2
Flags: HMW
HStem: -12 15<331 441> 232 11.25 232 16<446 449 445.5 503> 620 16<326.5 459.5 318.5 465.5> 690 43<372.5 415 372.5 422.5>
VStem: 49 77<249 415> 291 11 485 11 564 60<81.5 168 81.5 173>
AnchorPoint: "Anchor-15" 0 0 basechar 0
AnchorPoint: "Anchor-14" 394 625 basechar 0
AnchorPoint: "Anchor-13" 0 0 basechar 0
AnchorPoint: "Anchor-12" 425 0 basechar 0
LayerCount: 2
Fore
SplineSet
394 690 m 0xbf80
 337 690 301 729 291 797 c 0
 290 802 300 803 302 800 c 0
 311 764 351 733 394 733 c 0
 436 733 476 764 485 800 c 0
 486 803 497 802 496 797 c 0
 486 729 451 690 394 690 c 0xbf80
408 -12 m 0
 181 -12 49 138 49 316 c 0
 49 514 213 636 424 636 c 0
 495 636 560 622 602 597 c 0
 612 591 612 591 613 575 c 2
 625 457 l 2
 625 453 615 451 613 456 c 0
 586 552 526 620 405 620 c 0
 248 620 126 509 126 331 c 0
 126 167 227 3 435 3 c 0
 530 3 564 36 564 125 c 0xdf80
 564 221 556 232 450 232 c 0
 442 232 442 248 449 248 c 0
 496 245 536 243 575 243 c 0
 608 243 639 244 674 246 c 0xbf80
 680 246 681 232 674 232 c 0xdf80
 672 232 671 232 669 232 c 0
 627 232 624 217 624 115 c 0
 624 48 631 43 631 27 c 0
 631 19 629 18 620 15 c 0
 551 0 474 -12 408 -12 c 0
EndSplineSet
Validated: 1
Position2: "'cpsp' Capital Spacing lookup 0 subtable" dx=5 dy=0 dh=10 dv=0
EndChar

StartChar: Gcaron
Encoding: 486 486 63
Width: 714
GlyphClass: 2
Flags: HMW
HStem: -12 17<341 439> 233 11.25 233 16<445 448 444.5 501.5> 614 22<320.5 443> 682.5 51.5 714 20G<394 394> 784 7<279 285>
VStem: 49 74<242.5 403.5> 562 60<82.5 169 82.5 174>
AnchorPoint: "Anchor-15" 0 0 basechar 0
AnchorPoint: "Anchor-14" 394 625 basechar 0
AnchorPoint: "Anchor-13" 0 0 basechar 0
AnchorPoint: "Anchor-12" 418 0 basechar 0
LayerCount: 2
Fore
SplineSet
382 687 m 2xdb80
 279 784 l 2
 276 786 283 792 285 791 c 2
 394 734 l 1
 502 791 l 2
 505 793 511 786 507 784 c 2
 405 687 l 2
 399 681 388 681 382 687 c 2xdb80
405 -12 m 0
 180 -12 49 129 49 305 c 0
 49 502 211 636 430 636 c 0
 493 636 557 624 596 600 c 0
 608 592 607 589 608 577 c 2
 620 465 l 2
 620 462 609 459 608 464 c 0
 579 561 499 614 387 614 c 0
 217 614 123 509 123 341 c 0
 123 144 253 5 429 5 c 0
 525 5 562 23 562 126 c 0xd780
 562 222 554 233 449 233 c 0
 441 233 441 249 448 249 c 0
 495 246 535 244 574 244 c 0
 606 244 638 245 672 247 c 0xb780
 678 247 679 233 672 233 c 0
 670 233 669 233 667 233 c 0
 626 233 622 218 622 116 c 0
 622 49 629 44 629 28 c 0
 629 20 627 19 618 16 c 0
 550 0 473 -12 405 -12 c 0
EndSplineSet
Validated: 1
Position2: "'cpsp' Capital Spacing lookup 0 subtable" dx=5 dy=0 dh=10 dv=0
EndChar

StartChar: Gcircumflex
Encoding: 284 284 64
Width: 714
GlyphClass: 2
Flags: HMW
HStem: -12 15<331 441> 232 11.25 232 16<446 449 445.5 503> 620 16<326.5 459.5 318.5 465.5> 685 7<280 286>
VStem: 49 77<249 415> 564 60<81.5 168 81.5 173>
AnchorPoint: "Anchor-15" 0 0 basechar 0
AnchorPoint: "Anchor-14" 394 625 basechar 0
AnchorPoint: "Anchor-13" 0 0 basechar 0
AnchorPoint: "Anchor-12" 425 0 basechar 0
LayerCount: 2
Fore
SplineSet
280 692 m 2xbe
 383 790 l 2
 389 796 400 796 406 790 c 2
 508 692 l 2
 512 690 506 683 503 685 c 2
 395 743 l 1
 286 685 l 2
 284 684 277 690 280 692 c 2xbe
408 -12 m 0
 181 -12 49 138 49 316 c 0
 49 514 213 636 424 636 c 0
 495 636 560 622 602 597 c 0
 612 591 612 591 613 575 c 2
 625 457 l 2
 625 453 615 451 613 456 c 0
 586 552 526 620 405 620 c 0
 248 620 126 509 126 331 c 0
 126 167 227 3 435 3 c 0
 530 3 564 36 564 125 c 0xde
 564 221 556 232 450 232 c 0
 442 232 442 248 449 248 c 0
 496 245 536 243 575 243 c 0
 608 243 639 244 674 246 c 0xbe
 680 246 681 232 674 232 c 0xde
 672 232 671 232 669 232 c 0
 627 232 624 217 624 115 c 0
 624 48 631 43 631 27 c 0
 631 19 629 18 620 15 c 0
 551 0 474 -12 408 -12 c 0
EndSplineSet
Validated: 1
Position2: "'cpsp' Capital Spacing lookup 0 subtable" dx=5 dy=0 dh=10 dv=0
EndChar

StartChar: uni0122
Encoding: 290 290 65
Width: 714
GlyphClass: 2
Flags: HMW
HStem: -164 79<406 421> -12 15<331 441> 232 11.25 232 16<446 449 445.5 503> 620 16<326.5 459.5 318.5 465.5>
VStem: 49 77<249 415> 450 25<-181.5 -171> 564 60<81.5 168 81.5 173>
AnchorPoint: "Anchor-15" 0 0 basechar 0
AnchorPoint: "Anchor-14" 394 625 basechar 0
AnchorPoint: "Anchor-13" 0 0 basechar 0
AnchorPoint: "Anchor-12" 427 -276 basechar 0
LayerCount: 2
Fore
SplineSet
674 246 m 0x5f
 680 246 681 232 674 232 c 0
 672 232 671 232 669 232 c 0
 627 232 624 217 624 115 c 0
 624 48 631 43 631 27 c 0
 631 19 629 18 620 15 c 0
 551 0 474 -12 408 -12 c 0
 181 -12 49 138 49 316 c 0
 49 514 213 636 424 636 c 0
 495 636 560 622 602 597 c 0
 612 591 612 591 613 575 c 2
 625 457 l 2
 625 453 615 451 613 456 c 0
 586 552 526 620 405 620 c 0
 248 620 126 509 126 331 c 0
 126 167 227 3 435 3 c 0
 530 3 564 36 564 125 c 0x6f
 564 221 556 232 450 232 c 0
 442 232 442 248 449 248 c 0
 496 245 536 243 575 243 c 0
 608 243 639 244 674 246 c 0x5f
418 -85 m 0xdf
 455 -85 475 -111 475 -158 c 0
 475 -205 451 -241 414 -275 c 0
 409 -278 402 -271 406 -267 c 0
 436 -241 450 -211 450 -178 c 0
 450 -164 448 -155 444 -149 c 1
 439 -159 428 -164 414 -164 c 0
 390 -164 375 -148 375 -125 c 0
 375 -95 394 -85 418 -85 c 0xdf
EndSplineSet
Validated: 1
Position2: "'cpsp' Capital Spacing lookup 0 subtable" dx=5 dy=0 dh=10 dv=0
EndChar

StartChar: Gdotaccent
Encoding: 288 288 66
Width: 714
GlyphClass: 2
Flags: HMW
HStem: -12 15<331 441> 232 11.25 232 16<446 449 445.5 503> 620 16<326.5 459.5 318.5 465.5> 713 85<380 407.5>
VStem: 49 77<249 415> 350 86<743 769.5> 564 60<81.5 168 81.5 173>
AnchorPoint: "Anchor-15" 0 0 basechar 0
AnchorPoint: "Anchor-14" 396 613 basechar 0
AnchorPoint: "Anchor-13" 0 0 basechar 0
AnchorPoint: "Anchor-12" 425 0 basechar 0
LayerCount: 2
Fore
SplineSet
394 713 m 0xbf
 366 713 350 729 350 757 c 0
 350 782 366 798 394 798 c 0
 421 798 436 782 436 757 c 0
 436 729 421 713 394 713 c 0xbf
408 -12 m 0
 181 -12 49 138 49 316 c 0
 49 514 213 636 424 636 c 0
 495 636 560 622 602 597 c 0
 612 591 612 591 613 575 c 2
 625 457 l 2
 625 453 615 451 613 456 c 0
 586 552 526 620 405 620 c 0
 248 620 126 509 126 331 c 0
 126 167 227 3 435 3 c 0
 530 3 564 36 564 125 c 0xdf
 564 221 556 232 450 232 c 0
 442 232 442 248 449 248 c 0
 496 245 536 243 575 243 c 0
 608 243 639 244 674 246 c 0xbf
 680 246 681 232 674 232 c 0xdf
 672 232 671 232 669 232 c 0
 627 232 624 217 624 115 c 0
 624 48 631 43 631 27 c 0
 631 19 629 18 620 15 c 0
 551 0 474 -12 408 -12 c 0
EndSplineSet
Validated: 1
Position2: "'cpsp' Capital Spacing lookup 0 subtable" dx=5 dy=0 dh=10 dv=0
EndChar

StartChar: uni1E20
Encoding: 7712 7712 67
Width: 714
GlyphClass: 2
Flags: HMW
HStem: -12 17<341 439> 233 11.25 233 16<445 448 444.5 501.5> 614 22<320.5 443> 722 28<264 519 268 519>
VStem: 49 74<242.5 403.5> 562 60<82.5 169 82.5 174>
AnchorPoint: "Anchor-15" 0 0 basechar 0
AnchorPoint: "Anchor-14" 396 740 basechar 0
AnchorPoint: "Anchor-13" 0 0 basechar 0
AnchorPoint: "Anchor-12" 418 0 basechar 0
LayerCount: 2
Fore
SplineSet
268 722 m 2xbe
 260 722 260 750 268 750 c 2
 519 750 l 2
 527 750 527 722 519 722 c 2
 268 722 l 2xbe
405 -12 m 0
 180 -12 49 129 49 305 c 0
 49 502 211 636 430 636 c 0
 493 636 557 624 596 600 c 0
 608 592 607 589 608 577 c 2
 620 465 l 2
 620 462 609 459 608 464 c 0
 579 561 499 614 387 614 c 0
 217 614 123 509 123 341 c 0
 123 144 253 5 429 5 c 0
 525 5 562 23 562 126 c 0xde
 562 222 554 233 449 233 c 0
 441 233 441 249 448 249 c 0
 495 246 535 244 574 244 c 0
 606 244 638 245 672 247 c 0xbe
 678 247 679 233 672 233 c 0xde
 670 233 669 233 667 233 c 0
 626 233 622 218 622 116 c 0
 622 49 629 44 629 28 c 0
 629 20 627 19 618 16 c 0
 550 0 473 -12 405 -12 c 0
EndSplineSet
Validated: 1
Position2: "'cpsp' Capital Spacing lookup 0 subtable" dx=5 dy=0 dh=10 dv=0
EndChar

StartChar: H
Encoding: 72 72 68
Width: 759
GlyphClass: 2
Flags: MW
HStem: 0 12<33.5 51 258.5 276.5 481 499 706.5 724> 315 21<187 571 187 571> 613 12<34.5 52.5 34.5 73 259 276.5 481 499 706.5 724>
VStem: 123 64<81 315 336 542> 571 64<81 315 315 315 336 542 542 544>
AnchorPoint: "Anchor-15" 0 0 basechar 0
AnchorPoint: "Anchor-14" 380 625 basechar 0
AnchorPoint: "Anchor-13" 0 0 basechar 0
AnchorPoint: "Anchor-12" 380 0 basechar 0
LayerCount: 2
Fore
SplineSet
722 12 m 0
 726 12 726 0 722 0 c 0
 691 0 648 2 604 2 c 0
 554 2 515 0 483 0 c 0
 479 0 479 12 483 12 c 0
 559 12 571 23 571 81 c 2
 571 315 l 1
 187 315 l 1
 187 81 l 2
 187 23 199 12 275 12 c 0
 278 12 278 0 275 0 c 0
 242 0 203 2 154 2 c 0
 110 2 67 0 35 0 c 0
 32 0 32 12 35 12 c 0
 109 12 123 23 123 81 c 2
 123 544 l 2
 123 601 110 613 36 613 c 0
 33 613 33 625 36 625 c 0
 69 625 110 622 154 622 c 0
 203 622 243 625 275 625 c 0
 278 625 278 613 275 613 c 0
 200 613 187 599 187 542 c 2
 187 336 l 1
 571 336 l 1
 571 542 l 2
 571 599 559 613 483 613 c 0
 479 613 479 625 483 625 c 0
 515 625 554 622 604 622 c 0
 648 622 691 625 722 625 c 0
 726 625 726 613 722 613 c 0
 648 613 635 601 635 544 c 2
 635 81 l 2
 635 23 648 12 722 12 c 0
EndSplineSet
Validated: 1
Position2: "'cpsp' Capital Spacing lookup 0 subtable" dx=5 dy=0 dh=10 dv=0
EndChar

StartChar: Hbar
Encoding: 294 294 69
Width: 759
GlyphClass: 2
Flags: MW
HStem: 0 12<33.5 51 258.5 276.5 481 499 706.5 724> 221 21<187 571 187 571> 408 21<187 571 187 571> 613 12<34.5 52.5 34.5 73 259 276.5 481 499 706.5 724>
VStem: 123 64<81 221 242 408 429 542> 571 64<81 221 221 221 242 408 408 408 429 542 542 544>
AnchorPoint: "Anchor-15" 0 0 basechar 0
AnchorPoint: "Anchor-14" 379 625 basechar 0
AnchorPoint: "Anchor-13" 0 0 basechar 0
AnchorPoint: "Anchor-12" 0 0 basechar 0
LayerCount: 2
Fore
SplineSet
722 12 m 0
 726 12 726 0 722 0 c 0
 691 0 648 2 604 2 c 0
 554 2 515 0 483 0 c 0
 479 0 479 12 483 12 c 0
 559 12 571 23 571 81 c 2
 571 221 l 1
 187 221 l 1
 187 81 l 2
 187 23 199 12 275 12 c 0
 278 12 278 0 275 0 c 0
 242 0 203 2 154 2 c 0
 110 2 67 0 35 0 c 0
 32 0 32 12 35 12 c 0
 109 12 123 23 123 81 c 2
 123 544 l 2
 123 601 110 613 36 613 c 0
 33 613 33 625 36 625 c 0
 69 625 110 622 154 622 c 0
 203 622 243 625 275 625 c 0
 278 625 278 613 275 613 c 0
 200 613 187 599 187 542 c 2
 187 429 l 1
 571 429 l 1
 571 542 l 2
 571 599 559 613 483 613 c 0
 479 613 479 625 483 625 c 0
 515 625 554 622 604 622 c 0
 648 622 691 625 722 625 c 0
 726 625 726 613 722 613 c 0
 648 613 635 601 635 544 c 2
 635 81 l 2
 635 23 648 12 722 12 c 0
187 242 m 1
 571 242 l 1
 571 408 l 1
 187 408 l 1
 187 242 l 1
EndSplineSet
Validated: 1
Position2: "'cpsp' Capital Spacing lookup 0 subtable" dx=5 dy=0 dh=10 dv=0
EndChar

StartChar: uni1E2A
Encoding: 7722 7722 70
Width: 759
GlyphClass: 2
Flags: MW
HStem: -229 50<353.5 405.5 353.5 413.5> 0 12<33.5 51 258.5 276.5 481 499 706.5 724> 315 21<187 571 187 571> 613 12<34.5 52.5 34.5 73 259 276.5 481 499 706.5 724>
VStem: 123 64<81 315 336 542> 277 11<-105 -76.5> 471 11<-105 -76.5 -128 -74.5> 571 64<81 315 315 315 336 542 542 544>
AnchorPoint: "Anchor-15" 0 0 basechar 0
AnchorPoint: "Anchor-14" 380 625 basechar 0
AnchorPoint: "Anchor-13" 0 0 basechar 0
AnchorPoint: "Anchor-12" 382 -227 basechar 0
LayerCount: 2
Fore
SplineSet
722 12 m 0
 726 12 726 0 722 0 c 0
 691 0 648 2 604 2 c 0
 554 2 515 0 483 0 c 0
 479 0 479 12 483 12 c 0
 559 12 571 23 571 81 c 2
 571 315 l 1
 187 315 l 1
 187 81 l 2
 187 23 199 12 275 12 c 0
 278 12 278 0 275 0 c 0
 242 0 203 2 154 2 c 0
 110 2 67 0 35 0 c 0
 32 0 32 12 35 12 c 0
 109 12 123 23 123 81 c 2
 123 544 l 2
 123 601 110 613 36 613 c 0
 33 613 33 625 36 625 c 0
 69 625 110 622 154 622 c 0
 203 622 243 625 275 625 c 0
 278 625 278 613 275 613 c 0
 200 613 187 599 187 542 c 2
 187 336 l 1
 571 336 l 1
 571 542 l 2
 571 599 559 613 483 613 c 0
 479 613 479 625 483 625 c 0
 515 625 554 622 604 622 c 0
 648 622 691 625 722 625 c 0
 726 625 726 613 722 613 c 0
 648 613 635 601 635 544 c 2
 635 81 l 2
 635 23 648 12 722 12 c 0
471 -76 m 0
 471 -73 482 -74 482 -79 c 0
 482 -177 447 -229 380 -229 c 0
 313 -229 277 -177 277 -79 c 0
 277 -74 288 -73 288 -76 c 0
 288 -134 327 -179 380 -179 c 0
 431 -179 471 -134 471 -76 c 0
EndSplineSet
Validated: 1
Position2: "'cpsp' Capital Spacing lookup 0 subtable" dx=5 dy=0 dh=10 dv=0
EndChar

StartChar: Hcircumflex
Encoding: 292 292 71
Width: 759
GlyphClass: 2
Flags: MW
HStem: 0 12<33.5 51 258.5 276.5 481 499 706.5 724> 315 21<187 571 187 571> 613 12<34.5 52.5 34.5 73 259 276.5 481 499 706.5 724> 685 7<266 272>
VStem: 123 64<81 315 336 542> 571 64<81 315 315 315 336 542 542 544>
AnchorPoint: "Anchor-15" 0 0 basechar 0
AnchorPoint: "Anchor-14" 380 625 basechar 0
AnchorPoint: "Anchor-13" 0 0 basechar 0
AnchorPoint: "Anchor-12" 380 0 basechar 0
LayerCount: 2
Fore
SplineSet
272 685 m 2
 270 684 263 690 266 692 c 2
 369 790 l 2
 375 796 386 796 392 790 c 2
 494 692 l 2
 498 690 492 683 489 685 c 2
 381 743 l 1
 272 685 l 2
722 12 m 0
 726 12 726 0 722 0 c 0
 691 0 648 2 604 2 c 0
 554 2 515 0 483 0 c 0
 479 0 479 12 483 12 c 0
 559 12 571 23 571 81 c 2
 571 315 l 1
 187 315 l 1
 187 81 l 2
 187 23 199 12 275 12 c 0
 278 12 278 0 275 0 c 0
 242 0 203 2 154 2 c 0
 110 2 67 0 35 0 c 0
 32 0 32 12 35 12 c 0
 109 12 123 23 123 81 c 2
 123 544 l 2
 123 601 110 613 36 613 c 0
 33 613 33 625 36 625 c 0
 69 625 110 622 154 622 c 0
 203 622 243 625 275 625 c 0
 278 625 278 613 275 613 c 0
 200 613 187 599 187 542 c 2
 187 336 l 1
 571 336 l 1
 571 542 l 2
 571 599 559 613 483 613 c 0
 479 613 479 625 483 625 c 0
 515 625 554 622 604 622 c 0
 648 622 691 625 722 625 c 0
 726 625 726 613 722 613 c 0
 648 613 635 601 635 544 c 2
 635 81 l 2
 635 23 648 12 722 12 c 0
EndSplineSet
Validated: 1
Position2: "'cpsp' Capital Spacing lookup 0 subtable" dx=5 dy=0 dh=10 dv=0
EndChar

StartChar: uni1E24
Encoding: 7716 7716 72
Width: 759
GlyphClass: 2
Flags: MW
HStem: -190 84<367 394.5> 0 12<33.5 51 258.5 276.5 481 499 706.5 724> 315 21<187 571 187 571> 613 12<34.5 52.5 34.5 73 259 276.5 481 499 706.5 724>
VStem: 123 64<81 315 336 542> 337 86<-161.5 -134.5> 571 64<81 315 315 315 336 542 542 544>
AnchorPoint: "Anchor-15" 0 0 basechar 0
AnchorPoint: "Anchor-14" 380 625 basechar 0
AnchorPoint: "Anchor-13" 0 0 basechar 0
AnchorPoint: "Anchor-12" 382 -207 basechar 0
LayerCount: 2
Fore
SplineSet
722 12 m 0
 726 12 726 0 722 0 c 0
 691 0 648 2 604 2 c 0
 554 2 515 0 483 0 c 0
 479 0 479 12 483 12 c 0
 559 12 571 23 571 81 c 2
 571 315 l 1
 187 315 l 1
 187 81 l 2
 187 23 199 12 275 12 c 0
 278 12 278 0 275 0 c 0
 242 0 203 2 154 2 c 0
 110 2 67 0 35 0 c 0
 32 0 32 12 35 12 c 0
 109 12 123 23 123 81 c 2
 123 544 l 2
 123 601 110 613 36 613 c 0
 33 613 33 625 36 625 c 0
 69 625 110 622 154 622 c 0
 203 622 243 625 275 625 c 0
 278 625 278 613 275 613 c 0
 200 613 187 599 187 542 c 2
 187 336 l 1
 571 336 l 1
 571 542 l 2
 571 599 559 613 483 613 c 0
 479 613 479 625 483 625 c 0
 515 625 554 622 604 622 c 0
 648 622 691 625 722 625 c 0
 726 625 726 613 722 613 c 0
 648 613 635 601 635 544 c 2
 635 81 l 2
 635 23 648 12 722 12 c 0
381 -106 m 0
 408 -106 423 -121 423 -148 c 0
 423 -175 408 -190 381 -190 c 0
 353 -190 337 -175 337 -148 c 0
 337 -121 353 -106 381 -106 c 0
EndSplineSet
Validated: 1
Position2: "'cpsp' Capital Spacing lookup 0 subtable" dx=5 dy=0 dh=10 dv=0
EndChar

StartChar: I
Encoding: 73 73 73
Width: 332
GlyphClass: 2
Flags: MW
HStem: 0 12<45 63 268 286> 613 12<45 63 45 83.5 268.5 286>
VStem: 133 66<81 542>
AnchorPoint: "Anchor-15" 0 0 basechar 0
AnchorPoint: "Anchor-14" 166 625 basechar 0
AnchorPoint: "Anchor-13" 268 12 basechar 0
AnchorPoint: "Anchor-12" 166 0 basechar 0
LayerCount: 2
Fore
SplineSet
199 81 m 2
 199 23 211 12 284 12 c 0
 288 12 288 0 284 0 c 0
 252 0 213 2 165 2 c 0
 120 2 79 0 47 0 c 0
 43 0 43 12 47 12 c 0
 120 12 133 23 133 81 c 2
 133 544 l 2
 133 601 120 613 47 613 c 0
 43 613 43 625 47 625 c 0
 79 625 120 622 165 622 c 0
 213 622 253 625 284 625 c 0
 288 625 288 613 284 613 c 0
 212 613 199 599 199 542 c 2
 199 81 l 2
EndSplineSet
Validated: 1
Substitution2: "'locl' Localized Forms in Latin lookup 9 subtable" I.loclNLD
Substitution2: "'aalt' Access All Alternates lookup 0 subtable" I.loclNLD
Position2: "'cpsp' Capital Spacing lookup 0 subtable" dx=5 dy=0 dh=10 dv=0
EndChar

StartChar: IJ
Encoding: 306 306 74
Width: 690
GlyphClass: 2
Flags: MW
HStem: -13 15<277.5 401.5 244.5 413> 269 12<40.5 58.5 263.5 281.5> 613 12<40.5 58.5 40.5 78.5 264.5 281.5 417 438 642 658>
VStem: 128 66<350 542> 517 65<200 258 258 542>
AnchorPoint: "Anchor-15" 0 0 basechar 0
AnchorPoint: "Anchor-14" 0 0 basechar 0
AnchorPoint: "Anchor-13" 221 12 basechar 0
AnchorPoint: "Anchor-12" 0 0 basechar 0
LayerCount: 2
Fore
SplineSet
194 350 m 2
 194 292 205 281 280 281 c 0
 283 281 283 269 280 269 c 0
 247 269 208 271 160 271 c 0
 116 271 75 269 42 269 c 0
 39 269 39 281 42 281 c 0
 115 281 128 292 128 350 c 2
 128 544 l 2
 128 601 115 613 42 613 c 0
 39 613 39 625 42 625 c 0
 75 625 116 622 160 622 c 0
 208 622 249 625 280 625 c 0
 283 625 283 613 280 613 c 0
 207 613 194 599 194 542 c 2
 194 350 l 2
656 625 m 0
 660 625 660 613 656 613 c 0
 593 613 582 599 582 542 c 2
 582 258 l 2
 582 82 483 -13 343 -13 c 0
 212 -13 119 68 119 135 c 0
 119 157 132 172 153 172 c 0
 235 172 151 2 338 2 c 0
 465 2 517 80 517 200 c 2
 517 544 l 2
 517 601 502 613 419 613 c 0
 415 613 415 625 419 625 c 0
 457 625 501 622 548 622 c 0
 591 622 628 625 656 625 c 0
EndSplineSet
Validated: 1
Position2: "'cpsp' Capital Spacing lookup 0 subtable" dx=5 dy=0 dh=10 dv=0
EndChar

StartChar: Iacute
Encoding: 205 205 75
Width: 332
GlyphClass: 2
Flags: HMW
HStem: 0 12<45 63 268 286> 613 12<45 63 45 83.5 268.5 286> 679 10
VStem: 133 66<81 542>
AnchorPoint: "Anchor-15" 0 0 basechar 0
AnchorPoint: "Anchor-14" 166 625 basechar 0
AnchorPoint: "Anchor-13" 268 12 basechar 0
AnchorPoint: "Anchor-12" 166 0 basechar 0
LayerCount: 2
Fore
SplineSet
69 679 m 0
 63 676 60 687 64 689 c 0
 126 721 175 754 227 784 c 0
 228 784 229 785 230 785 c 0
 245 785 293 764 293 758 c 0
 293 757 293 756 291 756 c 0
 202 734 137 709 69 679 c 0
199 81 m 2
 199 23 211 12 284 12 c 0
 288 12 288 0 284 0 c 0
 252 0 213 2 165 2 c 0
 120 2 79 0 47 0 c 0
 43 0 43 12 47 12 c 0
 120 12 133 23 133 81 c 2
 133 544 l 2
 133 601 120 613 47 613 c 0
 43 613 43 625 47 625 c 0
 79 625 120 622 165 622 c 0
 213 622 253 625 284 625 c 0
 288 625 288 613 284 613 c 0
 212 613 199 599 199 542 c 2
 199 81 l 2
EndSplineSet
Validated: 1
Substitution2: "'locl' Localized Forms in Latin lookup 8 subtable" Iacute.loclHUN
Substitution2: "'aalt' Access All Alternates lookup 0 subtable" Iacute.loclHUN
Position2: "'cpsp' Capital Spacing lookup 0 subtable" dx=5 dy=0 dh=10 dv=0
EndChar

StartChar: Ibreve
Encoding: 300 300 76
Width: 332
GlyphClass: 2
Flags: MW
HStem: 0 12<45 63 268 286> 613 12<45 63 45 83.5 268.5 286> 690 43<144.5 187 144.5 194.5>
VStem: 63 11 133 66<81 542> 257 11
AnchorPoint: "Anchor-15" 0 0 basechar 0
AnchorPoint: "Anchor-14" 166 625 basechar 0
AnchorPoint: "Anchor-13" 268 12 basechar 0
AnchorPoint: "Anchor-12" 166 0 basechar 0
LayerCount: 2
Fore
SplineSet
166 690 m 0
 109 690 73 729 63 797 c 0
 62 802 72 803 74 800 c 0
 83 764 123 733 166 733 c 0
 208 733 248 764 257 800 c 0
 258 803 269 802 268 797 c 0
 258 729 223 690 166 690 c 0
199 81 m 2
 199 23 211 12 284 12 c 0
 288 12 288 0 284 0 c 0
 252 0 213 2 165 2 c 0
 120 2 79 0 47 0 c 0
 43 0 43 12 47 12 c 0
 120 12 133 23 133 81 c 2
 133 544 l 2
 133 601 120 613 47 613 c 0
 43 613 43 625 47 625 c 0
 79 625 120 622 165 622 c 0
 213 622 253 625 284 625 c 0
 288 625 288 613 284 613 c 0
 212 613 199 599 199 542 c 2
 199 81 l 2
EndSplineSet
Validated: 1
Position2: "'cpsp' Capital Spacing lookup 0 subtable" dx=5 dy=0 dh=10 dv=0
EndChar

StartChar: uni01CF
Encoding: 463 463 77
Width: 332
GlyphClass: 2
Flags: MW
HStem: 0 12<45 63 268 286> 613 12<45 63 45 83.5 268.5 286> 682.5 51.5 784 7<51 57>
VStem: 133 66<81 542>
AnchorPoint: "Anchor-15" 0 0 basechar 0
AnchorPoint: "Anchor-14" 166 625 basechar 0
AnchorPoint: "Anchor-13" 268 12 basechar 0
AnchorPoint: "Anchor-12" 166 0 basechar 0
LayerCount: 2
Fore
SplineSet
154 687 m 2
 51 784 l 2
 48 786 55 792 57 791 c 2
 166 734 l 1
 274 791 l 2
 277 793 283 786 279 784 c 2
 177 687 l 2
 171 681 160 681 154 687 c 2
199 81 m 2
 199 23 211 12 284 12 c 0
 288 12 288 0 284 0 c 0
 252 0 213 2 165 2 c 0
 120 2 79 0 47 0 c 0
 43 0 43 12 47 12 c 0
 120 12 133 23 133 81 c 2
 133 544 l 2
 133 601 120 613 47 613 c 0
 43 613 43 625 47 625 c 0
 79 625 120 622 165 622 c 0
 213 622 253 625 284 625 c 0
 288 625 288 613 284 613 c 0
 212 613 199 599 199 542 c 2
 199 81 l 2
EndSplineSet
Validated: 1
Position2: "'cpsp' Capital Spacing lookup 0 subtable" dx=5 dy=0 dh=10 dv=0
EndChar

StartChar: Icircumflex
Encoding: 206 206 78
Width: 332
GlyphClass: 2
Flags: MW
HStem: 0 12<45 63 268 286> 613 12<45 63 45 83.5 268.5 286> 685 7<52 58>
VStem: 133 66<81 542>
AnchorPoint: "Anchor-15" 0 0 basechar 0
AnchorPoint: "Anchor-14" 166 625 basechar 0
AnchorPoint: "Anchor-13" 268 12 basechar 0
AnchorPoint: "Anchor-12" 166 0 basechar 0
LayerCount: 2
Fore
SplineSet
52 692 m 2
 155 790 l 2
 161 796 172 796 178 790 c 2
 280 692 l 2
 284 690 278 683 275 685 c 2
 167 743 l 1
 58 685 l 2
 56 684 49 690 52 692 c 2
199 81 m 2
 199 23 211 12 284 12 c 0
 288 12 288 0 284 0 c 0
 252 0 213 2 165 2 c 0
 120 2 79 0 47 0 c 0
 43 0 43 12 47 12 c 0
 120 12 133 23 133 81 c 2
 133 544 l 2
 133 601 120 613 47 613 c 0
 43 613 43 625 47 625 c 0
 79 625 120 622 165 622 c 0
 213 622 253 625 284 625 c 0
 288 625 288 613 284 613 c 0
 212 613 199 599 199 542 c 2
 199 81 l 2
EndSplineSet
Validated: 1
Position2: "'cpsp' Capital Spacing lookup 0 subtable" dx=5 dy=0 dh=10 dv=0
EndChar

StartChar: Idieresis
Encoding: 207 207 79
Width: 332
GlyphClass: 2
Flags: MW
HStem: 0 12<45 63 268 286> 613 12<45 63 45 83.5 268.5 286> 717 82<82 108 224.5 251>
VStem: 52 85<745 771> 133 66<81 542> 195 84<745 771>
AnchorPoint: "Anchor-15" 0 0 basechar 0
AnchorPoint: "Anchor-14" 166 625 basechar 0
AnchorPoint: "Anchor-13" 268 12 basechar 0
AnchorPoint: "Anchor-12" 166 0 basechar 0
LayerCount: 2
Fore
SplineSet
95 717 m 0xf4
 69 717 52 732 52 758 c 0
 52 784 69 799 95 799 c 0
 121 799 137 784 137 758 c 0
 137 732 121 717 95 717 c 0xf4
238 717 m 0
 211 717 195 732 195 758 c 0
 195 784 211 799 238 799 c 0
 264 799 279 784 279 758 c 0
 279 732 264 717 238 717 c 0
199 81 m 2xc8
 199 23 211 12 284 12 c 0
 288 12 288 0 284 0 c 0
 252 0 213 2 165 2 c 0
 120 2 79 0 47 0 c 0
 43 0 43 12 47 12 c 0
 120 12 133 23 133 81 c 2
 133 544 l 2
 133 601 120 613 47 613 c 0
 43 613 43 625 47 625 c 0
 79 625 120 622 165 622 c 0
 213 622 253 625 284 625 c 0
 288 625 288 613 284 613 c 0
 212 613 199 599 199 542 c 2
 199 81 l 2xc8
EndSplineSet
Validated: 1
Position2: "'cpsp' Capital Spacing lookup 0 subtable" dx=5 dy=0 dh=10 dv=0
EndChar

StartChar: Idotaccent
Encoding: 304 304 80
Width: 332
GlyphClass: 2
Flags: MW
HStem: 0 12<45 63 268 286> 613 12<45 63 45 83.5 268.5 286> 713 85<152 179.5>
VStem: 122 86<743 769.5> 133 66<81 542>
AnchorPoint: "Anchor-15" 0 0 basechar 0
AnchorPoint: "Anchor-14" 168 613 basechar 0
AnchorPoint: "Anchor-13" 268 12 basechar 0
AnchorPoint: "Anchor-12" 166 0 basechar 0
LayerCount: 2
Fore
SplineSet
166 713 m 0xf0
 138 713 122 729 122 757 c 0
 122 782 138 798 166 798 c 0
 193 798 208 782 208 757 c 0
 208 729 193 713 166 713 c 0xf0
199 81 m 2xc8
 199 23 211 12 284 12 c 0
 288 12 288 0 284 0 c 0
 252 0 213 2 165 2 c 0
 120 2 79 0 47 0 c 0
 43 0 43 12 47 12 c 0
 120 12 133 23 133 81 c 2
 133 544 l 2
 133 601 120 613 47 613 c 0
 43 613 43 625 47 625 c 0
 79 625 120 622 165 622 c 0
 213 622 253 625 284 625 c 0
 288 625 288 613 284 613 c 0
 212 613 199 599 199 542 c 2
 199 81 l 2xc8
EndSplineSet
Validated: 1
Position2: "'cpsp' Capital Spacing lookup 0 subtable" dx=5 dy=0 dh=10 dv=0
EndChar

StartChar: uni1ECA
Encoding: 7882 7882 81
Width: 332
GlyphClass: 2
Flags: MW
HStem: -190 84<153 180.5> 0 12<45 63 268 286> 613 12<45 63 45 83.5 268.5 286>
VStem: 123 86<-161.5 -134.5> 133 66<81 542>
AnchorPoint: "Anchor-15" 0 0 basechar 0
AnchorPoint: "Anchor-14" 166 625 basechar 0
AnchorPoint: "Anchor-13" 268 12 basechar 0
AnchorPoint: "Anchor-12" 168 -207 basechar 0
LayerCount: 2
Fore
SplineSet
199 81 m 2x68
 199 23 211 12 284 12 c 0
 288 12 288 0 284 0 c 0
 252 0 213 2 165 2 c 0
 120 2 79 0 47 0 c 0
 43 0 43 12 47 12 c 0
 120 12 133 23 133 81 c 2
 133 544 l 2
 133 601 120 613 47 613 c 0
 43 613 43 625 47 625 c 0
 79 625 120 622 165 622 c 0
 213 622 253 625 284 625 c 0
 288 625 288 613 284 613 c 0
 212 613 199 599 199 542 c 2
 199 81 l 2x68
167 -190 m 0xf0
 139 -190 123 -175 123 -148 c 0
 123 -121 139 -106 167 -106 c 0
 194 -106 209 -121 209 -148 c 0
 209 -175 194 -190 167 -190 c 0xf0
EndSplineSet
Validated: 1
Position2: "'cpsp' Capital Spacing lookup 0 subtable" dx=5 dy=0 dh=10 dv=0
EndChar

StartChar: Igrave
Encoding: 204 204 82
Width: 332
GlyphClass: 2
Flags: HMW
HStem: 0 12<45 63 268 286> 613 12<45 63 45 83.5 268.5 286>
VStem: 133 66<81 542>
AnchorPoint: "Anchor-15" 0 0 basechar 0
AnchorPoint: "Anchor-14" 166 625 basechar 0
AnchorPoint: "Anchor-13" 268 12 basechar 0
AnchorPoint: "Anchor-12" 166 0 basechar 0
LayerCount: 2
Fore
SplineSet
265 679 m 0
 197 709 131 734 42 756 c 0
 40 756 40 757 40 758 c 0
 40 764 89 785 104 785 c 0
 105 785 106 784 107 784 c 0
 158 753 208 721 269 689 c 0
 274 687 270 676 265 679 c 0
199 81 m 2
 199 23 211 12 284 12 c 0
 288 12 288 0 284 0 c 0
 252 0 213 2 165 2 c 0
 120 2 79 0 47 0 c 0
 43 0 43 12 47 12 c 0
 120 12 133 23 133 81 c 2
 133 544 l 2
 133 601 120 613 47 613 c 0
 43 613 43 625 47 625 c 0
 79 625 120 622 165 622 c 0
 213 622 253 625 284 625 c 0
 288 625 288 613 284 613 c 0
 212 613 199 599 199 542 c 2
 199 81 l 2
EndSplineSet
Validated: 1
Position2: "'cpsp' Capital Spacing lookup 0 subtable" dx=5 dy=0 dh=10 dv=0
EndChar

StartChar: uni1EC8
Encoding: 7880 7880 83
Width: 332
GlyphClass: 2
Flags: HMW
HStem: 0 12<45 63 268 286> 613 12<45 63 45 83.5 268.5 286> 820 22<148.5 203.5>
VStem: 133 66<81 542> 154.03 14.97 195 52<762 793.5>
AnchorPoint: "Anchor-15" 0 0 basechar 0
AnchorPoint: "Anchor-14" 168 789 basechar 0
AnchorPoint: "Anchor-13" 268 12 basechar 0
AnchorPoint: "Anchor-12" 166 0 basechar 0
LayerCount: 2
Fore
SplineSet
169 651 m 0xe8
 169 649 158 648 157 651 c 0
 155 658 154 665 154 672 c 0
 154 716 195 742 195 780 c 0
 195 807 175 820 153 820 c 0
 144 820 133 817 125 813 c 0
 122 811 113 819 118 821 c 0
 139 836 163 842 183 842 c 0
 224 842 247 818 247 790 c 0xe4
 247 738 168 708 168 661 c 0
 168 658 168 654 169 651 c 0xe8
199 81 m 2xf0
 199 23 211 12 284 12 c 0
 288 12 288 0 284 0 c 0
 252 0 213 2 165 2 c 0
 120 2 79 0 47 0 c 0
 43 0 43 12 47 12 c 0
 120 12 133 23 133 81 c 2
 133 544 l 2
 133 601 120 613 47 613 c 0
 43 613 43 625 47 625 c 0
 79 625 120 622 165 622 c 0
 213 622 253 625 284 625 c 0
 288 625 288 613 284 613 c 0
 212 613 199 599 199 542 c 2
 199 81 l 2xf0
EndSplineSet
Validated: 1
Position2: "'cpsp' Capital Spacing lookup 0 subtable" dx=5 dy=0 dh=10 dv=0
EndChar

StartChar: Imacron
Encoding: 298 298 84
Width: 332
GlyphClass: 2
Flags: MW
HStem: 0 12<45 63 268 286> 613 12<45 63 45 83.5 268.5 286> 722 28<36 291 40 291>
VStem: 133 66<81 542>
AnchorPoint: "Anchor-15" 0 0 basechar 0
AnchorPoint: "Anchor-14" 166 625 basechar 0
AnchorPoint: "Anchor-13" 268 12 basechar 0
AnchorPoint: "Anchor-12" 166 0 basechar 0
LayerCount: 2
Fore
SplineSet
40 722 m 2
 32 722 32 750 40 750 c 2
 291 750 l 2
 299 750 299 722 291 722 c 2
 40 722 l 2
199 81 m 2
 199 23 211 12 284 12 c 0
 288 12 288 0 284 0 c 0
 252 0 213 2 165 2 c 0
 120 2 79 0 47 0 c 0
 43 0 43 12 47 12 c 0
 120 12 133 23 133 81 c 2
 133 544 l 2
 133 601 120 613 47 613 c 0
 43 613 43 625 47 625 c 0
 79 625 120 622 165 622 c 0
 213 622 253 625 284 625 c 0
 288 625 288 613 284 613 c 0
 212 613 199 599 199 542 c 2
 199 81 l 2
EndSplineSet
Validated: 1
Position2: "'cpsp' Capital Spacing lookup 0 subtable" dx=5 dy=0 dh=10 dv=0
EndChar

StartChar: Iogonek
Encoding: 302 302 85
Width: 332
GlyphClass: 2
Flags: MW
HStem: -275 31<184 191> 0 12<45 62.5 269 286> 613 12<45 63 45 83.5 268.5 286>
VStem: 71 55<-170 -148> 133 66<81 542>
AnchorPoint: "Anchor-15" 0 0 basechar 0
AnchorPoint: "Anchor-14" 166 625 basechar 0
AnchorPoint: "Anchor-13" 268 12 basechar 0
AnchorPoint: "Anchor-12" 166 0 basechar 0
LayerCount: 2
Fore
SplineSet
284 12 m 0
 288 12 288 0 284 0 c 0xe8
 254 0 219 2 175 2 c 1
 141 -43 126 -90 126 -138 c 0
 126 -202 158 -244 210 -244 c 0
 236 -244 248 -233 262 -222 c 0
 265 -220 272 -227 269 -230 c 0
 236 -262 209 -275 173 -275 c 0
 108 -275 71 -236 71 -177 c 0
 71 -119 101 -58 159 2 c 1
 116 2 78 0 47 0 c 0xf0
 43 0 43 12 47 12 c 0
 120 12 133 23 133 81 c 2
 133 544 l 2
 133 601 120 613 47 613 c 0
 43 613 43 625 47 625 c 0
 79 625 120 622 165 622 c 0
 213 622 253 625 284 625 c 0
 288 625 288 613 284 613 c 0
 212 613 199 599 199 542 c 2
 199 81 l 2
 199 23 211 12 284 12 c 0
EndSplineSet
Validated: 1
Position2: "'cpsp' Capital Spacing lookup 0 subtable" dx=5 dy=0 dh=10 dv=0
EndChar

StartChar: Itilde
Encoding: 296 296 86
Width: 332
GlyphClass: 2
Flags: MW
HStem: 0 12<45 63 268 286> 613 12<45 63 45 83.5 268.5 286> 700 42<218.5 233> 724 43<100.5 115>
VStem: 133 66<81 542>
AnchorPoint: "Anchor-15" 0 0 basechar 0
AnchorPoint: "Anchor-14" 166 625 basechar 0
AnchorPoint: "Anchor-13" 268 12 basechar 0
AnchorPoint: "Anchor-12" 166 0 basechar 0
LayerCount: 2
Fore
SplineSet
40 697 m 0xd8
 38 695 31 701 33 704 c 0
 49 728 83 767 118 767 c 0xd8
 152 767 194 742 243 742 c 0
 269 742 280 754 293 769 c 0
 295 771 302 766 300 762 c 0
 263 711 245 700 221 700 c 0xe8
 176 700 140 724 90 724 c 0
 62 724 54 711 40 697 c 0xd8
199 81 m 2xe8
 199 23 211 12 284 12 c 0
 288 12 288 0 284 0 c 0
 252 0 213 2 165 2 c 0
 120 2 79 0 47 0 c 0
 43 0 43 12 47 12 c 0
 120 12 133 23 133 81 c 2
 133 544 l 2
 133 601 120 613 47 613 c 0
 43 613 43 625 47 625 c 0
 79 625 120 622 165 622 c 0
 213 622 253 625 284 625 c 0
 288 625 288 613 284 613 c 0
 212 613 199 599 199 542 c 2
 199 81 l 2xe8
EndSplineSet
Validated: 1
Position2: "'cpsp' Capital Spacing lookup 0 subtable" dx=5 dy=0 dh=10 dv=0
EndChar

StartChar: J
Encoding: 74 74 87
Width: 322
GlyphClass: 2
Flags: MW
HStem: -244 20<49 86.5> 613 12<40.5 61.5 40.5 84 265.5 281.5>
VStem: 140 66<-49 -28 -28 542>
AnchorPoint: "Anchor-15" 0 0 basechar 0
AnchorPoint: "Anchor-14" 163 634 basechar 0
AnchorPoint: "Anchor-13" 0 0 basechar 0
AnchorPoint: "Anchor-12" 161 0 basechar 0
LayerCount: 2
Fore
SplineSet
280 625 m 0
 283 625 283 613 280 613 c 0
 216 613 206 599 206 542 c 2
 206 -28 l 2
 206 -156 146 -244 27 -244 c 0
 -18 -244 -46 -227 -46 -201 c 0
 -46 -182 -34 -168 -12 -168 c 0
 36 -168 29 -224 69 -224 c 0
 115 -224 140 -175 140 -49 c 2
 140 544 l 2
 140 601 126 613 42 613 c 0
 39 613 39 625 42 625 c 0
 81 625 124 622 172 622 c 0
 215 622 251 625 280 625 c 0
EndSplineSet
Validated: 1
Substitution2: "Single Substitution lookup 62 subtable" J.case
Substitution2: "'ss01' Style Set 1 lookup 54 subtable" J.ss01
Substitution2: "'case' Case-Sensitive Forms lookup 44 subtable" J.case
Substitution2: "'locl' Localized Forms in Latin lookup 9 subtable" J.loclNLD
AlternateSubs2: "'aalt' Access All Alternates lookup 1 subtable" J.loclNLD J.case J.ss01
Position2: "'cpsp' Capital Spacing lookup 0 subtable" dx=5 dy=0 dh=10 dv=0
EndChar

StartChar: Jcircumflex
Encoding: 308 308 88
Width: 322
GlyphClass: 2
Flags: MW
HStem: -244 20<49 86.5> 613 12<40.5 61.5 40.5 84 265.5 281.5> 694 7<49 55>
VStem: 140 66<-49 -28 -28 542>
AnchorPoint: "Anchor-15" 0 0 basechar 0
AnchorPoint: "Anchor-14" 163 634 basechar 0
AnchorPoint: "Anchor-13" 0 0 basechar 0
AnchorPoint: "Anchor-12" 161 0 basechar 0
LayerCount: 2
Fore
SplineSet
49 701 m 2
 152 799 l 2
 158 805 169 805 175 799 c 2
 277 701 l 2
 281 699 275 692 272 694 c 2
 164 752 l 1
 55 694 l 2
 53 693 46 699 49 701 c 2
280 625 m 0
 283 625 283 613 280 613 c 0
 216 613 206 599 206 542 c 2
 206 -28 l 2
 206 -156 146 -244 27 -244 c 0
 -18 -244 -46 -227 -46 -201 c 0
 -46 -182 -34 -168 -12 -168 c 0
 36 -168 29 -224 69 -224 c 0
 115 -224 140 -175 140 -49 c 2
 140 544 l 2
 140 601 126 613 42 613 c 0
 39 613 39 625 42 625 c 0
 81 625 124 622 172 622 c 0
 215 622 251 625 280 625 c 0
EndSplineSet
Validated: 1
Substitution2: "'case' Case-Sensitive Forms lookup 44 subtable" Jcircumflex.case
Substitution2: "'aalt' Access All Alternates lookup 0 subtable" Jcircumflex.case
Position2: "'cpsp' Capital Spacing lookup 0 subtable" dx=5 dy=0 dh=10 dv=0
EndChar

StartChar: K
Encoding: 75 75 89
Width: 650
GlyphClass: 2
Flags: HMW
HStem: 0 12<33.5 51 255 273 610 641> 613 12<34.5 52.5 34.5 72.5 255.5 273 372.5 390.5 582 598>
VStem: 121 65<81 306 331 542> 432.2 166.8
AnchorPoint: "Anchor-15" 0 0 basechar 0
AnchorPoint: "Anchor-14" 326 625 basechar 0
AnchorPoint: "Anchor-13" 0 0 basechar 0
AnchorPoint: "Anchor-12" 344 0 basechar 0
LayerCount: 2
Fore
SplineSet
641 12 m 0
 645 12 645 0 641 0 c 2
 529 0 l 2
 519 0 511 -0 505 -0 c 0
 466 -0 479 9 372 145 c 2
 219 338 l 1
 186 306 l 1
 186 81 l 2
 186 23 198 12 271 12 c 0
 275 12 275 0 271 0 c 0
 239 0 200 2 153 2 c 0
 109 2 67 0 35 0 c 0
 32 0 32 12 35 12 c 0
 108 12 121 23 121 81 c 2
 121 544 l 2
 121 601 109 613 36 613 c 0
 33 613 33 625 36 625 c 0
 69 625 109 622 153 622 c 0
 200 622 240 625 271 625 c 0
 275 625 275 613 271 613 c 0
 199 613 186 599 186 542 c 2
 186 331 l 1
 400 544 l 2
 422 566 433 582 433 593 c 0
 433 607 414 613 374 613 c 0
 371 613 371 625 374 625 c 0
 407 625 435 622 490 622 c 0
 542 622 568 625 596 625 c 0
 600 625 600 613 596 613 c 0
 547 613 480 594 423 538 c 2
 265 383 l 1
 409 199 l 2
 547 19 575 12 626 12 c 0
 631 12 636 12 641 12 c 0
EndSplineSet
Validated: 1
Substitution2: "'ss01' Style Set 1 lookup 54 subtable" K.ss01
Substitution2: "'aalt' Access All Alternates lookup 0 subtable" K.ss01
Position2: "'cpsp' Capital Spacing lookup 0 subtable" dx=5 dy=0 dh=10 dv=0
EndChar

StartChar: uni1E30
Encoding: 7728 7728 90
Width: 650
GlyphClass: 2
Flags: HMW
HStem: 0 12<33.5 51 255 273 610 641> 613 12<34.5 52.5 34.5 72.5 255.5 273 372.5 390.5 582 598> 679 10
VStem: 121 65<81 306 331 542> 432.2 166.8
AnchorPoint: "Anchor-15" 0 0 basechar 0
AnchorPoint: "Anchor-14" 326 625 basechar 0
AnchorPoint: "Anchor-13" 0 0 basechar 0
AnchorPoint: "Anchor-12" 344 0 basechar 0
LayerCount: 2
Fore
SplineSet
229 679 m 0
 223 676 220 687 224 689 c 0
 286 721 335 754 387 784 c 0
 388 784 389 785 390 785 c 0
 405 785 453 764 453 758 c 0
 453 757 453 756 451 756 c 0
 362 734 297 709 229 679 c 0
641 12 m 0
 645 12 645 0 641 0 c 2
 529 0 l 2
 519 0 511 -0 505 -0 c 0
 466 -0 479 9 372 145 c 2
 219 338 l 1
 186 306 l 1
 186 81 l 2
 186 23 198 12 271 12 c 0
 275 12 275 0 271 0 c 0
 239 0 200 2 153 2 c 0
 109 2 67 0 35 0 c 0
 32 0 32 12 35 12 c 0
 108 12 121 23 121 81 c 2
 121 544 l 2
 121 601 109 613 36 613 c 0
 33 613 33 625 36 625 c 0
 69 625 109 622 153 622 c 0
 200 622 240 625 271 625 c 0
 275 625 275 613 271 613 c 0
 199 613 186 599 186 542 c 2
 186 331 l 1
 400 544 l 2
 422 566 433 582 433 593 c 0
 433 607 414 613 374 613 c 0
 371 613 371 625 374 625 c 0
 407 625 435 622 490 622 c 0
 542 622 568 625 596 625 c 0
 600 625 600 613 596 613 c 0
 547 613 480 594 423 538 c 2
 265 383 l 1
 409 199 l 2
 547 19 575 12 626 12 c 0
 631 12 636 12 641 12 c 0
EndSplineSet
Validated: 1
Substitution2: "'ss01' Style Set 1 lookup 54 subtable" uni1E30.ss01
Substitution2: "'aalt' Access All Alternates lookup 0 subtable" uni1E30.ss01
Position2: "'cpsp' Capital Spacing lookup 0 subtable" dx=5 dy=0 dh=10 dv=0
EndChar

StartChar: uni01E8
Encoding: 488 488 91
Width: 650
GlyphClass: 2
Flags: HMW
HStem: 0 12<33.5 51 255 273 610 641> 613 12<34.5 52.5 34.5 72.5 255.5 273 372.5 390.5 582 598> 682.5 51.5 784 7<211 217>
VStem: 121 65<81 306 331 542> 432.2 166.8
AnchorPoint: "Anchor-15" 0 0 basechar 0
AnchorPoint: "Anchor-14" 326 625 basechar 0
AnchorPoint: "Anchor-13" 0 0 basechar 0
AnchorPoint: "Anchor-12" 344 0 basechar 0
LayerCount: 2
Fore
SplineSet
211 784 m 2
 208 786 215 792 217 791 c 2
 326 734 l 1
 434 791 l 2
 437 793 443 786 439 784 c 2
 337 687 l 2
 331 681 320 681 314 687 c 2
 211 784 l 2
641 12 m 0
 645 12 645 0 641 0 c 2
 529 0 l 2
 519 0 511 -0 505 -0 c 0
 466 -0 479 9 372 145 c 2
 219 338 l 1
 186 306 l 1
 186 81 l 2
 186 23 198 12 271 12 c 0
 275 12 275 0 271 0 c 0
 239 0 200 2 153 2 c 0
 109 2 67 0 35 0 c 0
 32 0 32 12 35 12 c 0
 108 12 121 23 121 81 c 2
 121 544 l 2
 121 601 109 613 36 613 c 0
 33 613 33 625 36 625 c 0
 69 625 109 622 153 622 c 0
 200 622 240 625 271 625 c 0
 275 625 275 613 271 613 c 0
 199 613 186 599 186 542 c 2
 186 331 l 1
 400 544 l 2
 422 566 433 582 433 593 c 0
 433 607 414 613 374 613 c 0
 371 613 371 625 374 625 c 0
 407 625 435 622 490 622 c 0
 542 622 568 625 596 625 c 0
 600 625 600 613 596 613 c 0
 547 613 480 594 423 538 c 2
 265 383 l 1
 409 199 l 2
 547 19 575 12 626 12 c 0
 631 12 636 12 641 12 c 0
EndSplineSet
Validated: 1
Substitution2: "'ss01' Style Set 1 lookup 54 subtable" uni01E8.ss01
Substitution2: "'aalt' Access All Alternates lookup 0 subtable" uni01E8.ss01
Position2: "'cpsp' Capital Spacing lookup 0 subtable" dx=5 dy=0 dh=10 dv=0
EndChar

StartChar: uni0136
Encoding: 310 310 92
Width: 650
GlyphClass: 2
Flags: HMW
HStem: -164 79<325 340> 0 12<33.5 51 255 273 610 641> 613 12<34.5 52.5 34.5 72.5 255.5 273 372.5 390.5 582 598>
VStem: 121 65<81 306 331 542> 369 25<-181.5 -171> 432.2 166.8
AnchorPoint: "Anchor-15" 0 0 basechar 0
AnchorPoint: "Anchor-14" 326 625 basechar 0
AnchorPoint: "Anchor-13" 0 0 basechar 0
AnchorPoint: "Anchor-12" 347 -276 basechar 0
LayerCount: 2
Fore
SplineSet
641 12 m 0
 645 12 645 0 641 0 c 2
 529 0 l 2
 519 0 511 -0 505 -0 c 0
 466 -0 479 9 372 145 c 2
 219 338 l 1
 186 306 l 1
 186 81 l 2
 186 23 198 12 271 12 c 0
 275 12 275 0 271 0 c 0
 239 0 200 2 153 2 c 0
 109 2 67 0 35 0 c 0
 32 0 32 12 35 12 c 0
 108 12 121 23 121 81 c 2
 121 544 l 2
 121 601 109 613 36 613 c 0
 33 613 33 625 36 625 c 0
 69 625 109 622 153 622 c 0
 200 622 240 625 271 625 c 0
 275 625 275 613 271 613 c 0
 199 613 186 599 186 542 c 2
 186 331 l 1
 400 544 l 2
 422 566 433 582 433 593 c 0
 433 607 414 613 374 613 c 0
 371 613 371 625 374 625 c 0
 407 625 435 622 490 622 c 0
 542 622 568 625 596 625 c 0
 600 625 600 613 596 613 c 0
 547 613 480 594 423 538 c 2
 265 383 l 1
 409 199 l 2
 547 19 575 12 626 12 c 0
 631 12 636 12 641 12 c 0
337 -85 m 0
 374 -85 394 -111 394 -158 c 0
 394 -205 370 -241 333 -275 c 0
 328 -278 321 -271 325 -267 c 0
 355 -241 369 -211 369 -178 c 0
 369 -164 367 -155 363 -149 c 1
 358 -159 347 -164 333 -164 c 0
 309 -164 294 -148 294 -125 c 0
 294 -95 313 -85 337 -85 c 0
EndSplineSet
Validated: 1
Substitution2: "'ss01' Style Set 1 lookup 54 subtable" uni0136.ss01
Substitution2: "'aalt' Access All Alternates lookup 0 subtable" uni0136.ss01
Position2: "'cpsp' Capital Spacing lookup 0 subtable" dx=5 dy=0 dh=10 dv=0
EndChar

StartChar: L
Encoding: 76 76 93
Width: 533
GlyphClass: 2
Flags: MW
HStem: 0 12<33.5 35 35 71.5 33.5 497> 0 21<265 374 374 413> 613 12<33.5 51 33.5 71.5 254.5 272>
VStem: 120 65<81 85 85 543> 510 11<153 154 152 155>
AnchorPoint: "Anchor-15" 496 625 basechar 0
AnchorPoint: "Anchor-14" 158 625 basechar 0
AnchorPoint: "Anchor-13" 0 0 basechar 0
AnchorPoint: "Anchor-12" 297 0 basechar 0
LayerCount: 2
Fore
SplineSet
185 543 m 2x70
 185 85 l 2
 185 30 197 21 265 21 c 2
 374 21 l 2
 452 21 496 74 510 153 c 0
 510 157 521 156 521 152 c 0
 517 115 512 58 512 15 c 0
 512 4 509 0 497 0 c 2
 35 0 l 2x78
 32 0 32 12 35 12 c 0
 108 12 120 23 120 81 c 2xb0
 120 544 l 2
 120 601 108 613 35 613 c 0
 32 613 32 625 35 625 c 0
 67 625 108 622 152 622 c 0
 198 622 239 625 270 625 c 0
 274 625 274 613 270 613 c 0
 198 613 185 600 185 543 c 2x70
EndSplineSet
Validated: 1
Position2: "'cpsp' Capital Spacing lookup 0 subtable" dx=5 dy=0 dh=10 dv=0
EndChar

StartChar: Lacute
Encoding: 313 313 94
Width: 533
GlyphClass: 2
Flags: HMW
HStem: 0 12<33.5 35 35 71.5 33.5 497> 0 21<265 374 374 413> 613 12<33.5 51 33.5 71.5 254.5 272> 679 10
VStem: 120 65<81 85 85 543> 510 11<153 154 152 155>
AnchorPoint: "Anchor-15" 496 625 basechar 0
AnchorPoint: "Anchor-14" 158 625 basechar 0
AnchorPoint: "Anchor-13" 0 0 basechar 0
AnchorPoint: "Anchor-12" 297 0 basechar 0
LayerCount: 2
Fore
SplineSet
61 679 m 0x78
 55 676 52 687 56 689 c 0
 118 721 167 754 219 784 c 0
 220 784 221 785 222 785 c 0
 237 785 285 764 285 758 c 0
 285 757 285 756 283 756 c 0
 194 734 129 709 61 679 c 0x78
185 543 m 2
 185 85 l 2
 185 30 197 21 265 21 c 2
 374 21 l 2
 452 21 496 74 510 153 c 0
 510 157 521 156 521 152 c 0
 517 115 512 58 512 15 c 0
 512 4 509 0 497 0 c 2
 35 0 l 2x7c
 32 0 32 12 35 12 c 0
 108 12 120 23 120 81 c 2xb8
 120 544 l 2
 120 601 108 613 35 613 c 0
 32 613 32 625 35 625 c 0
 67 625 108 622 152 622 c 0
 198 622 239 625 270 625 c 0
 274 625 274 613 270 613 c 0
 198 613 185 600 185 543 c 2
EndSplineSet
Validated: 1
Position2: "'cpsp' Capital Spacing lookup 0 subtable" dx=5 dy=0 dh=10 dv=0
EndChar

StartChar: Lcaron
Encoding: 317 317 95
Width: 533
GlyphClass: 2
Flags: HMW
HStem: 0 12<33.5 35 35 71.5 33.5 497> 0 21<265 374 374 413> 613 12<33.5 51 33.5 71.5 254.5 272>
VStem: 120 65<81 85 85 543> 361 11<351.5 352 350.5 353> 510 11<153 154 152 155>
AnchorPoint: "Anchor-15" 496 625 basechar 0
AnchorPoint: "Anchor-14" 158 625 basechar 0
AnchorPoint: "Anchor-13" 0 0 basechar 0
AnchorPoint: "Anchor-12" 297 0 basechar 0
LayerCount: 2
Fore
SplineSet
353 625 m 2x78
 353 626 354 627 356 627 c 0
 366 627 404 605 404 596 c 0
 404 595 404 595 404 595 c 2
 372 352 l 2
 372 349 361 350 361 353 c 2
 353 625 l 2x78
185 543 m 2
 185 85 l 2
 185 30 197 21 265 21 c 2
 374 21 l 2
 452 21 496 74 510 153 c 0
 510 157 521 156 521 152 c 0
 517 115 512 58 512 15 c 0
 512 4 509 0 497 0 c 2
 35 0 l 2x7c
 32 0 32 12 35 12 c 0
 108 12 120 23 120 81 c 2xb8
 120 544 l 2
 120 601 108 613 35 613 c 0
 32 613 32 625 35 625 c 0
 67 625 108 622 152 622 c 0
 198 622 239 625 270 625 c 0
 274 625 274 613 270 613 c 0
 198 613 185 600 185 543 c 2
EndSplineSet
Validated: 1
Position2: "'cpsp' Capital Spacing lookup 0 subtable" dx=5 dy=0 dh=10 dv=0
EndChar

StartChar: uni013B
Encoding: 315 315 96
Width: 533
GlyphClass: 2
Flags: MW
HStem: -164 79<278 293> 0 12<33.5 35 35 71.5 33.5 497> 0 21<265 374 374 413> 613 12<33.5 51 33.5 71.5 254.5 272>
VStem: 120 65<81 85 85 543> 322 25<-181.5 -171> 510 11<153 154 152 155>
AnchorPoint: "Anchor-15" 496 625 basechar 0
AnchorPoint: "Anchor-14" 158 625 basechar 0
AnchorPoint: "Anchor-13" 0 0 basechar 0
AnchorPoint: "Anchor-12" 299 -276 basechar 0
LayerCount: 2
Fore
SplineSet
510 153 m 0x3c
 510 157 521 156 521 152 c 0
 517 115 512 58 512 15 c 0
 512 4 509 0 497 0 c 2
 35 0 l 2x3e
 32 0 32 12 35 12 c 0
 108 12 120 23 120 81 c 2x5c
 120 544 l 2
 120 601 108 613 35 613 c 0
 32 613 32 625 35 625 c 0
 67 625 108 622 152 622 c 0
 198 622 239 625 270 625 c 0
 274 625 274 613 270 613 c 0
 198 613 185 600 185 543 c 2
 185 85 l 2
 185 30 197 21 265 21 c 2
 374 21 l 2
 452 21 496 74 510 153 c 0x3c
290 -85 m 0xbc
 327 -85 347 -111 347 -158 c 0
 347 -205 323 -241 286 -275 c 0
 281 -278 274 -271 278 -267 c 0
 308 -241 322 -211 322 -178 c 0
 322 -164 320 -155 316 -149 c 1
 311 -159 300 -164 286 -164 c 0
 262 -164 247 -148 247 -125 c 0
 247 -95 266 -85 290 -85 c 0xbc
EndSplineSet
Validated: 1
Position2: "'cpsp' Capital Spacing lookup 0 subtable" dx=5 dy=0 dh=10 dv=0
EndChar

StartChar: Ldot
Encoding: 319 319 97
Width: 533
GlyphClass: 2
Flags: MW
HStem: 0 12<33.5 35 35 71.5 33.5 497> 0 21<265 374 374 413> 278 85<415 442> 613 12<33.5 51 33.5 71.5 254.5 272>
VStem: 120 65<81 85 85 543> 384 88<308.5 334.5> 510 11<153 154 152 155>
AnchorPoint: "Anchor-15" 496 625 basechar 0
AnchorPoint: "Anchor-14" 158 625 basechar 0
AnchorPoint: "Anchor-13" 0 0 basechar 0
AnchorPoint: "Anchor-12" 297 0 basechar 0
LayerCount: 2
Fore
SplineSet
185 543 m 2x58
 185 85 l 2
 185 30 197 21 265 21 c 2
 374 21 l 2
 452 21 496 74 510 153 c 0
 510 157 521 156 521 152 c 0
 517 115 512 58 512 15 c 0
 512 4 509 0 497 0 c 2
 35 0 l 2x7e
 32 0 32 12 35 12 c 0
 108 12 120 23 120 81 c 2x98
 120 544 l 2
 120 601 108 613 35 613 c 0
 32 613 32 625 35 625 c 0
 67 625 108 622 152 622 c 0
 198 622 239 625 270 625 c 0
 274 625 274 613 270 613 c 0
 198 613 185 600 185 543 c 2x58
428 278 m 0
 402 278 384 295 384 322 c 0
 384 347 402 363 428 363 c 0
 456 363 472 347 472 322 c 0
 472 295 456 278 428 278 c 0
EndSplineSet
Validated: 1
Ligature2: "Ligature Substitution lookup 61 subtable" L periodcentered
Position2: "'cpsp' Capital Spacing lookup 0 subtable" dx=5 dy=0 dh=10 dv=0
EndChar

StartChar: uni1E36
Encoding: 7734 7734 98
Width: 533
GlyphClass: 2
Flags: MW
HStem: -190 84<284 311.5> 0 12<33.5 35 35 71.5 33.5 497> 0 21<265 374 374 413> 613 12<33.5 51 33.5 71.5 254.5 272>
VStem: 120 65<81 85 85 543> 254 86<-161.5 -134.5> 510 11<153 154 152 155>
AnchorPoint: "Anchor-15" 496 625 basechar 0
AnchorPoint: "Anchor-14" 158 625 basechar 0
AnchorPoint: "Anchor-13" 0 0 basechar 0
AnchorPoint: "Anchor-12" 299 -207 basechar 0
LayerCount: 2
Fore
SplineSet
185 543 m 2x38
 185 85 l 2
 185 30 197 21 265 21 c 2
 374 21 l 2
 452 21 496 74 510 153 c 0
 510 157 521 156 521 152 c 0
 517 115 512 58 512 15 c 0
 512 4 509 0 497 0 c 2
 35 0 l 2xbe
 32 0 32 12 35 12 c 0
 108 12 120 23 120 81 c 2x58
 120 544 l 2
 120 601 108 613 35 613 c 0
 32 613 32 625 35 625 c 0
 67 625 108 622 152 622 c 0
 198 622 239 625 270 625 c 0
 274 625 274 613 270 613 c 0
 198 613 185 600 185 543 c 2x38
298 -190 m 0
 270 -190 254 -175 254 -148 c 0
 254 -121 270 -106 298 -106 c 0
 325 -106 340 -121 340 -148 c 0
 340 -175 325 -190 298 -190 c 0
EndSplineSet
Validated: 1
Position2: "'cpsp' Capital Spacing lookup 0 subtable" dx=5 dy=0 dh=10 dv=0
EndChar

StartChar: uni1E38
Encoding: 7736 7736 99
Width: 533
GlyphClass: 2
Flags: MW
HStem: -190 84<284 311.5> 0 12<33.5 35 35 71.5 33.5 497> 0 21<265 374 374 413> 613 12<33.5 51 33.5 71.5 254.5 272> 722 28<28 283 32 283>
VStem: 120 65<81 85 85 543> 254 86<-161.5 -134.5> 510 11<153 154 152 155>
AnchorPoint: "Anchor-15" 496 625 basechar 0
AnchorPoint: "Anchor-14" 160 740 basechar 0
AnchorPoint: "Anchor-13" 0 0 basechar 0
AnchorPoint: "Anchor-12" 299 -207 basechar 0
LayerCount: 2
Fore
SplineSet
32 722 m 2x3c
 24 722 24 750 32 750 c 2
 283 750 l 2
 291 750 291 722 283 722 c 2
 32 722 l 2x3c
185 543 m 2
 185 85 l 2
 185 30 197 21 265 21 c 2
 374 21 l 2
 452 21 496 74 510 153 c 0
 510 157 521 156 521 152 c 0
 517 115 512 58 512 15 c 0
 512 4 509 0 497 0 c 2
 35 0 l 2xbf
 32 0 32 12 35 12 c 0
 108 12 120 23 120 81 c 2x5c
 120 544 l 2
 120 601 108 613 35 613 c 0
 32 613 32 625 35 625 c 0
 67 625 108 622 152 622 c 0
 198 622 239 625 270 625 c 0
 274 625 274 613 270 613 c 0
 198 613 185 600 185 543 c 2
298 -190 m 0
 270 -190 254 -175 254 -148 c 0
 254 -121 270 -106 298 -106 c 0
 325 -106 340 -121 340 -148 c 0
 340 -175 325 -190 298 -190 c 0
EndSplineSet
Validated: 1
Position2: "'cpsp' Capital Spacing lookup 0 subtable" dx=5 dy=0 dh=10 dv=0
EndChar

StartChar: uni1E3A
Encoding: 7738 7738 100
Width: 533
GlyphClass: 2
Flags: MW
HStem: -113 28<167 422 171 422> 0 12<33.5 35 35 71.5 33.5 497> 0 21<265 374 374 413> 613 12<33.5 51 33.5 71.5 254.5 272>
VStem: 120 65<81 85 85 543> 510 11<153 154 152 155>
AnchorPoint: "Anchor-15" 496 625 basechar 0
AnchorPoint: "Anchor-14" 158 625 basechar 0
AnchorPoint: "Anchor-13" 0 0 basechar 0
AnchorPoint: "Anchor-12" 299 -170 basechar 0
LayerCount: 2
Fore
SplineSet
185 543 m 2xb8
 185 85 l 2
 185 30 197 21 265 21 c 2
 374 21 l 2
 452 21 496 74 510 153 c 0
 510 157 521 156 521 152 c 0
 517 115 512 58 512 15 c 0
 512 4 509 0 497 0 c 2
 35 0 l 2xbc
 32 0 32 12 35 12 c 0
 108 12 120 23 120 81 c 2xd8
 120 544 l 2
 120 601 108 613 35 613 c 0
 32 613 32 625 35 625 c 0
 67 625 108 622 152 622 c 0
 198 622 239 625 270 625 c 0
 274 625 274 613 270 613 c 0
 198 613 185 600 185 543 c 2xb8
171 -113 m 2
 163 -113 163 -85 171 -85 c 2
 422 -85 l 2
 430 -85 430 -113 422 -113 c 2
 171 -113 l 2
EndSplineSet
Validated: 1
Position2: "'cpsp' Capital Spacing lookup 0 subtable" dx=5 dy=0 dh=10 dv=0
EndChar

StartChar: Lslash
Encoding: 321 321 101
Width: 524
GlyphClass: 2
Flags: MW
HStem: 0 12<33.5 35 35 71.5 33.5 497> 0 21<265 374 374 413> 613 12<33.5 51 33.5 71.5 254.5 272>
VStem: 120 65<81 85 85 264 264 264 289 302 326 543> 510 11<153 154 152 155>
AnchorPoint: "Anchor-15" 496 625 basechar 0
AnchorPoint: "Anchor-14" 158 625 basechar 0
AnchorPoint: "Anchor-13" 0 0 basechar 0
AnchorPoint: "Anchor-12" 297 0 basechar 0
LayerCount: 2
Fore
SplineSet
510 153 m 0x70
 510 157 521 156 521 152 c 0
 517 115 512 58 512 15 c 0
 512 4 509 0 497 0 c 2
 35 0 l 2x78
 32 0 32 12 35 12 c 0
 108 12 120 23 120 81 c 2xb0
 120 264 l 1
 69 235 l 2
 64 232 54 251 58 253 c 2
 120 289 l 1
 120 544 l 2
 120 601 108 613 35 613 c 0
 32 613 32 625 35 625 c 0
 67 625 108 622 152 622 c 0
 198 622 239 625 270 625 c 0
 274 625 274 613 270 613 c 0
 198 613 185 600 185 543 c 2
 185 326 l 1
 292 387 l 2
 296 390 306 371 301 369 c 2
 185 302 l 1
 185 85 l 2
 185 30 197 21 265 21 c 2
 374 21 l 2
 452 21 496 74 510 153 c 0x70
EndSplineSet
Validated: 1
Position2: "'cpsp' Capital Spacing lookup 0 subtable" dx=5 dy=0 dh=10 dv=0
EndChar

StartChar: M
Encoding: 77 77 102
Width: 836
GlyphClass: 2
Flags: HMW
HStem: 0 12<37.5 52.5 213.5 229.5 583.5 600 796 814> 613 12<44.5 57 44.5 63.5 785.5 800>
VStem: 123.5 24 652 64
AnchorPoint: "Anchor-15" 0 0 basechar 0
AnchorPoint: "Anchor-14" 418 625 basechar 0
AnchorPoint: "Anchor-13" 0 0 basechar 0
AnchorPoint: "Anchor-12" 408 0 basechar 0
LayerCount: 2
Fore
SplineSet
812 12 m 0
 816 12 816 0 812 0 c 0
 780 0 739 2 694 2 c 0
 651 2 615 0 585 0 c 0
 582 0 582 12 585 12 c 0
 645 12 661 21 661 67 c 0
 661 71 661 76 661 81 c 2
 643 536 l 1
 415 7 l 2
 413 2 401 2 398 7 c 2
 152 530 l 1
 143 109 l 2
 143 107 143 106 143 104 c 0
 143 39 164 12 228 12 c 0
 231 12 231 0 228 0 c 0
 199 0 168 2 131 2 c 0
 96 2 66 0 39 0 c 0
 36 0 36 12 39 12 c 0
 95 12 118 40 119 109 c 2
 128 573 l 1
 108 600 81 613 46 613 c 0
 43 613 43 625 46 625 c 0
 68 625 94 623 111 623 c 0
 132 623 152 625 161 625 c 0
 179 625 186 617 207 573 c 2
 430 103 l 1
 648 600 l 2
 655 616 666 625 678 625 c 0
 685 625 699 623 718 623 c 0
 753 623 773 625 798 625 c 0
 802 625 802 613 798 613 c 0
 736 613 706 600 706 549 c 0
 706 547 706 546 706 544 c 2
 726 81 l 2
 728 23 739 12 812 12 c 0
EndSplineSet
Validated: 1
Position2: "'cpsp' Capital Spacing lookup 0 subtable" dx=5 dy=0 dh=10 dv=0
EndChar

StartChar: uni1E40
Encoding: 7744 7744 103
Width: 836
GlyphClass: 2
Flags: HMW
HStem: 0 12<37.5 52.5 213.5 229.5 583.5 600 796 814> 613 12<44.5 57 44.5 63.5 785.5 800> 713 85<404 431.5>
VStem: 123.5 24 374 86<743 769.5> 652 64
AnchorPoint: "Anchor-15" 0 0 basechar 0
AnchorPoint: "Anchor-14" 420 613 basechar 0
AnchorPoint: "Anchor-13" 0 0 basechar 0
AnchorPoint: "Anchor-12" 408 0 basechar 0
LayerCount: 2
Fore
SplineSet
418 713 m 0
 390 713 374 729 374 757 c 0
 374 782 390 798 418 798 c 0
 445 798 460 782 460 757 c 0
 460 729 445 713 418 713 c 0
812 12 m 0
 816 12 816 0 812 0 c 0
 780 0 739 2 694 2 c 0
 651 2 615 0 585 0 c 0
 582 0 582 12 585 12 c 0
 645 12 661 21 661 67 c 0
 661 71 661 76 661 81 c 2
 643 536 l 1
 415 7 l 2
 413 2 401 2 398 7 c 2
 152 530 l 1
 143 109 l 2
 143 107 143 106 143 104 c 0
 143 39 164 12 228 12 c 0
 231 12 231 0 228 0 c 0
 199 0 168 2 131 2 c 0
 96 2 66 0 39 0 c 0
 36 0 36 12 39 12 c 0
 95 12 118 40 119 109 c 2
 128 573 l 1
 108 600 81 613 46 613 c 0
 43 613 43 625 46 625 c 0
 68 625 94 623 111 623 c 0
 132 623 152 625 161 625 c 0
 179 625 186 617 207 573 c 2
 430 103 l 1
 648 600 l 2
 655 616 666 625 678 625 c 0
 685 625 699 623 718 623 c 0
 753 623 773 625 798 625 c 0
 802 625 802 613 798 613 c 0
 736 613 706 600 706 549 c 0
 706 547 706 546 706 544 c 2
 726 81 l 2
 728 23 739 12 812 12 c 0
EndSplineSet
Validated: 1
Position2: "'cpsp' Capital Spacing lookup 0 subtable" dx=5 dy=0 dh=10 dv=0
EndChar

StartChar: uni1E42
Encoding: 7746 7746 104
Width: 836
GlyphClass: 2
Flags: HMW
HStem: -190 84<395 422.5> 0 12<37.5 52.5 213.5 229.5 583.5 600 796 814> 613 12<44.5 57 44.5 63.5 785.5 800>
VStem: 123.5 24 365 86<-161.5 -134.5> 652 64
AnchorPoint: "Anchor-15" 0 0 basechar 0
AnchorPoint: "Anchor-14" 418 625 basechar 0
AnchorPoint: "Anchor-13" 0 0 basechar 0
AnchorPoint: "Anchor-12" 410 -207 basechar 0
LayerCount: 2
Fore
SplineSet
812 12 m 0
 816 12 816 0 812 0 c 0
 780 0 739 2 694 2 c 0
 651 2 615 0 585 0 c 0
 582 0 582 12 585 12 c 0
 645 12 661 21 661 67 c 0
 661 71 661 76 661 81 c 2
 643 536 l 1
 415 7 l 2
 413 2 401 2 398 7 c 2
 152 530 l 1
 143 109 l 2
 143 107 143 106 143 104 c 0
 143 39 164 12 228 12 c 0
 231 12 231 0 228 0 c 0
 199 0 168 2 131 2 c 0
 96 2 66 0 39 0 c 0
 36 0 36 12 39 12 c 0
 95 12 118 40 119 109 c 2
 128 573 l 1
 108 600 81 613 46 613 c 0
 43 613 43 625 46 625 c 0
 68 625 94 623 111 623 c 0
 132 623 152 625 161 625 c 0
 179 625 186 617 207 573 c 2
 430 103 l 1
 648 600 l 2
 655 616 666 625 678 625 c 0
 685 625 699 623 718 623 c 0
 753 623 773 625 798 625 c 0
 802 625 802 613 798 613 c 0
 736 613 706 600 706 549 c 0
 706 547 706 546 706 544 c 2
 726 81 l 2
 728 23 739 12 812 12 c 0
409 -106 m 0
 436 -106 451 -121 451 -148 c 0
 451 -175 436 -190 409 -190 c 0
 381 -190 365 -175 365 -148 c 0
 365 -121 381 -106 409 -106 c 0
EndSplineSet
Validated: 1
Position2: "'cpsp' Capital Spacing lookup 0 subtable" dx=5 dy=0 dh=10 dv=0
EndChar

StartChar: N
Encoding: 78 78 105
Width: 727
GlyphClass: 2
Flags: MW
HStem: -14 21G<612 612> 0 12<39.5 54.5 208 223> 613 12<39 52.5 39 53 523.5 538.5 691 706>
VStem: 120 23<109 553> 601 23<100 515>
AnchorPoint: "Anchor-15" 0 0 basechar 0
AnchorPoint: "Anchor-14" 376 625 basechar 0
AnchorPoint: "Anchor-13" 0 0 basechar 0
AnchorPoint: "Anchor-12" 374 0 basechar 0
LayerCount: 2
Fore
SplineSet
704 625 m 0x78
 708 625 708 613 704 613 c 0
 648 613 624 584 624 515 c 2
 624 -12 l 2
 624 -15 615 -16 612 -14 c 2xb8
 152 543 l 2
 149 547 146 550 143 553 c 2
 143 109 l 2
 143 40 166 12 221 12 c 0
 225 12 225 0 221 0 c 0
 195 0 167 2 133 2 c 0
 100 2 68 0 41 0 c 0
 38 0 38 12 41 12 c 0
 99 12 120 40 120 109 c 2
 120 577 l 1
 90 605 65 613 41 613 c 0
 37 613 37 625 41 625 c 0
 64 625 91 623 111 623 c 0
 136 623 158 625 169 625 c 0
 186 625 185 611 216 573 c 2
 601 100 l 1
 601 515 l 2
 601 584 580 613 525 613 c 0
 522 613 522 625 525 625 c 0
 552 625 579 622 613 622 c 0
 645 622 678 625 704 625 c 0x78
EndSplineSet
Validated: 1
Position2: "'cpsp' Capital Spacing lookup 0 subtable" dx=5 dy=0 dh=10 dv=0
EndChar

StartChar: Nacute
Encoding: 323 323 106
Width: 727
GlyphClass: 2
Flags: HMW
HStem: -14 21G<612 612> 0 12<39.5 54.5 208 223> 613 12<39 52.5 39 53 523.5 538.5 691 706> 679 10
VStem: 120 23<109 553> 601 23<100 515>
AnchorPoint: "Anchor-15" 0 0 basechar 0
AnchorPoint: "Anchor-14" 376 625 basechar 0
AnchorPoint: "Anchor-13" 0 0 basechar 0
AnchorPoint: "Anchor-12" 374 0 basechar 0
LayerCount: 2
Fore
SplineSet
279 679 m 0x7c
 273 676 270 687 274 689 c 0
 336 721 385 754 437 784 c 0
 438 784 439 785 440 785 c 0
 455 785 503 764 503 758 c 0
 503 757 503 756 501 756 c 0
 412 734 347 709 279 679 c 0x7c
704 625 m 0
 708 625 708 613 704 613 c 0
 648 613 624 584 624 515 c 2
 624 -12 l 2
 624 -15 615 -16 612 -14 c 2xbc
 152 543 l 2
 149 547 146 550 143 553 c 2
 143 109 l 2
 143 40 166 12 221 12 c 0
 225 12 225 0 221 0 c 0
 195 0 167 2 133 2 c 0
 100 2 68 0 41 0 c 0
 38 0 38 12 41 12 c 0
 99 12 120 40 120 109 c 2
 120 577 l 1
 90 605 65 613 41 613 c 0
 37 613 37 625 41 625 c 0
 64 625 91 623 111 623 c 0
 136 623 158 625 169 625 c 0
 186 625 185 611 216 573 c 2
 601 100 l 1
 601 515 l 2
 601 584 580 613 525 613 c 0
 522 613 522 625 525 625 c 0
 552 625 579 622 613 622 c 0
 645 622 678 625 704 625 c 0
EndSplineSet
Validated: 1
Substitution2: "'locl' Localized Forms in Latin lookup 15 subtable" Nacute.loclPLK
Substitution2: "'aalt' Access All Alternates lookup 0 subtable" Nacute.loclPLK
Position2: "'cpsp' Capital Spacing lookup 0 subtable" dx=5 dy=0 dh=10 dv=0
EndChar

StartChar: Ncaron
Encoding: 327 327 107
Width: 727
GlyphClass: 2
Flags: MW
HStem: -14 21G<612 612> 0 12<39.5 54.5 208 223> 613 12<39 52.5 39 53 523.5 538.5 691 706> 682.5 51.5 714 20G<376 376> 784 7<261 267>
VStem: 120 23<109 553> 601 23<100 515>
AnchorPoint: "Anchor-15" 0 0 basechar 0
AnchorPoint: "Anchor-14" 376 625 basechar 0
AnchorPoint: "Anchor-13" 0 0 basechar 0
AnchorPoint: "Anchor-12" 374 0 basechar 0
LayerCount: 2
Fore
SplineSet
261 784 m 2x77
 258 786 265 792 267 791 c 2
 376 734 l 1
 484 791 l 2
 487 793 493 786 489 784 c 2
 387 687 l 2
 381 681 370 681 364 687 c 2
 261 784 l 2x77
704 625 m 0
 708 625 708 613 704 613 c 0
 648 613 624 584 624 515 c 2
 624 -12 l 2
 624 -15 615 -16 612 -14 c 2xaf
 152 543 l 2
 149 547 146 550 143 553 c 2
 143 109 l 2
 143 40 166 12 221 12 c 0
 225 12 225 0 221 0 c 0
 195 0 167 2 133 2 c 0
 100 2 68 0 41 0 c 0
 38 0 38 12 41 12 c 0
 99 12 120 40 120 109 c 2
 120 577 l 1
 90 605 65 613 41 613 c 0
 37 613 37 625 41 625 c 0
 64 625 91 623 111 623 c 0
 136 623 158 625 169 625 c 0
 186 625 185 611 216 573 c 2
 601 100 l 1
 601 515 l 2
 601 584 580 613 525 613 c 0
 522 613 522 625 525 625 c 0
 552 625 579 622 613 622 c 0
 645 622 678 625 704 625 c 0
EndSplineSet
Validated: 1
Position2: "'cpsp' Capital Spacing lookup 0 subtable" dx=5 dy=0 dh=10 dv=0
EndChar

StartChar: uni0145
Encoding: 325 325 108
Width: 727
GlyphClass: 2
Flags: MW
HStem: -164 79<355 370> -14 21G<612 612> 0 12<39.5 54.5 208 223> 613 12<39 52.5 39 53 523.5 538.5 691 706>
VStem: 120 23<109 553> 399 25<-181.5 -171> 601 23<100 515>
AnchorPoint: "Anchor-15" 0 0 basechar 0
AnchorPoint: "Anchor-14" 376 625 basechar 0
AnchorPoint: "Anchor-13" 0 0 basechar 0
AnchorPoint: "Anchor-12" 376 -276 basechar 0
LayerCount: 2
Fore
SplineSet
704 625 m 0x3e
 708 625 708 613 704 613 c 0
 648 613 624 584 624 515 c 2
 624 -12 l 2
 624 -15 615 -16 612 -14 c 2x5e
 152 543 l 2
 149 547 146 550 143 553 c 2
 143 109 l 2
 143 40 166 12 221 12 c 0
 225 12 225 0 221 0 c 0
 195 0 167 2 133 2 c 0
 100 2 68 0 41 0 c 0
 38 0 38 12 41 12 c 0
 99 12 120 40 120 109 c 2
 120 577 l 1
 90 605 65 613 41 613 c 0
 37 613 37 625 41 625 c 0
 64 625 91 623 111 623 c 0
 136 623 158 625 169 625 c 0
 186 625 185 611 216 573 c 2
 601 100 l 1
 601 515 l 2
 601 584 580 613 525 613 c 0
 522 613 522 625 525 625 c 0
 552 625 579 622 613 622 c 0
 645 622 678 625 704 625 c 0x3e
367 -85 m 0xbe
 404 -85 424 -111 424 -158 c 0
 424 -205 400 -241 363 -275 c 0
 358 -278 351 -271 355 -267 c 0
 385 -241 399 -211 399 -178 c 0
 399 -164 397 -155 393 -149 c 1
 388 -159 377 -164 363 -164 c 0
 339 -164 324 -148 324 -125 c 0
 324 -95 343 -85 367 -85 c 0xbe
EndSplineSet
Validated: 1
Position2: "'cpsp' Capital Spacing lookup 0 subtable" dx=5 dy=0 dh=10 dv=0
EndChar

StartChar: uni1E44
Encoding: 7748 7748 109
Width: 727
GlyphClass: 2
Flags: MW
HStem: -14 21G<612 612> 0 12<39.5 54.5 208 223> 613 12<39 52.5 39 53 523.5 538.5 691 706> 713 85<362 389.5>
VStem: 120 23<109 553> 332 86<743 769.5> 601 23<100 515>
AnchorPoint: "Anchor-15" 0 0 basechar 0
AnchorPoint: "Anchor-14" 378 613 basechar 0
AnchorPoint: "Anchor-13" 0 0 basechar 0
AnchorPoint: "Anchor-12" 374 0 basechar 0
LayerCount: 2
Fore
SplineSet
376 713 m 0x7e
 348 713 332 729 332 757 c 0
 332 782 348 798 376 798 c 0
 403 798 418 782 418 757 c 0
 418 729 403 713 376 713 c 0x7e
704 625 m 0
 708 625 708 613 704 613 c 0
 648 613 624 584 624 515 c 2
 624 -12 l 2
 624 -15 615 -16 612 -14 c 2xbe
 152 543 l 2
 149 547 146 550 143 553 c 2
 143 109 l 2
 143 40 166 12 221 12 c 0
 225 12 225 0 221 0 c 0
 195 0 167 2 133 2 c 0
 100 2 68 0 41 0 c 0
 38 0 38 12 41 12 c 0
 99 12 120 40 120 109 c 2
 120 577 l 1
 90 605 65 613 41 613 c 0
 37 613 37 625 41 625 c 0
 64 625 91 623 111 623 c 0
 136 623 158 625 169 625 c 0
 186 625 185 611 216 573 c 2
 601 100 l 1
 601 515 l 2
 601 584 580 613 525 613 c 0
 522 613 522 625 525 625 c 0
 552 625 579 622 613 622 c 0
 645 622 678 625 704 625 c 0
EndSplineSet
Validated: 1
Position2: "'cpsp' Capital Spacing lookup 0 subtable" dx=5 dy=0 dh=10 dv=0
EndChar

StartChar: uni1E46
Encoding: 7750 7750 110
Width: 727
GlyphClass: 2
Flags: MW
HStem: -190 84<361 388.5> -14 21G<612 612> 0 12<39.5 54.5 208 223> 613 12<39 52.5 39 53 523.5 538.5 691 706>
VStem: 120 23<109 553> 331 86<-161.5 -134.5> 601 23<100 515>
AnchorPoint: "Anchor-15" 0 0 basechar 0
AnchorPoint: "Anchor-14" 376 625 basechar 0
AnchorPoint: "Anchor-13" 0 0 basechar 0
AnchorPoint: "Anchor-12" 376 -207 basechar 0
LayerCount: 2
Fore
SplineSet
704 625 m 0x3a
 708 625 708 613 704 613 c 0
 648 613 624 584 624 515 c 2
 624 -12 l 2
 624 -15 615 -16 612 -14 c 2x5a
 152 543 l 2
 149 547 146 550 143 553 c 2
 143 109 l 2
 143 40 166 12 221 12 c 0
 225 12 225 0 221 0 c 0
 195 0 167 2 133 2 c 0
 100 2 68 0 41 0 c 0
 38 0 38 12 41 12 c 0
 99 12 120 40 120 109 c 2
 120 577 l 1
 90 605 65 613 41 613 c 0
 37 613 37 625 41 625 c 0
 64 625 91 623 111 623 c 0
 136 623 158 625 169 625 c 0
 186 625 185 611 216 573 c 2
 601 100 l 1
 601 515 l 2
 601 584 580 613 525 613 c 0
 522 613 522 625 525 625 c 0
 552 625 579 622 613 622 c 0
 645 622 678 625 704 625 c 0x3a
375 -106 m 0xbe
 402 -106 417 -121 417 -148 c 0
 417 -175 402 -190 375 -190 c 0
 347 -190 331 -175 331 -148 c 0
 331 -121 347 -106 375 -106 c 0xbe
EndSplineSet
Validated: 1
Position2: "'cpsp' Capital Spacing lookup 0 subtable" dx=5 dy=0 dh=10 dv=0
EndChar

StartChar: Eng
Encoding: 330 330 111
Width: 727
GlyphClass: 2
Flags: MW
HStem: -191 20<496.5 538.5> 0 12<39.5 54.5 208 223> 613 12<39 52.5 39 53 523.5 538.5 691 706>
VStem: 121 22<109 553> 602 22<-14 -12 -12 -2 -2 -2 99 515>
AnchorPoint: "Anchor-15" 0 0 basechar 0
AnchorPoint: "Anchor-14" 374 625 basechar 0
AnchorPoint: "Anchor-13" 0 0 basechar 0
AnchorPoint: "Anchor-12" 374 0 basechar 0
LayerCount: 2
Fore
SplineSet
704 625 m 0
 708 625 708 613 704 613 c 0
 648 613 624 584 624 515 c 2
 624 -12 l 2
 624 -128 580 -191 497 -191 c 0
 447 -191 415 -165 415 -134 c 0
 415 -112 427 -98 447 -98 c 0
 497 -98 471 -171 522 -171 c 0
 573 -171 602 -107 602 -14 c 2
 602 -2 l 1
 152 543 l 2
 149 547 146 550 143 553 c 2
 143 109 l 2
 143 40 166 12 221 12 c 0
 225 12 225 0 221 0 c 0
 195 0 167 2 133 2 c 0
 100 2 68 0 41 0 c 0
 38 0 38 12 41 12 c 0
 99 12 121 40 121 109 c 2
 121 576 l 1
 90 604 65 613 41 613 c 0
 37 613 37 625 41 625 c 0
 64 625 91 623 111 623 c 0
 136 623 158 625 169 625 c 0
 186 625 185 611 216 573 c 2
 602 99 l 1
 602 515 l 2
 602 584 580 613 525 613 c 0
 522 613 522 625 525 625 c 0
 552 625 579 622 613 622 c 0
 645 622 678 625 704 625 c 0
EndSplineSet
Validated: 1
Position2: "'cpsp' Capital Spacing lookup 0 subtable" dx=5 dy=0 dh=10 dv=0
EndChar

StartChar: uni1E48
Encoding: 7752 7752 112
Width: 727
GlyphClass: 2
Flags: MW
HStem: -113 28<244 499 248 499> -14 21G<612 612> 0 12<39.5 54.5 208 223> 613 12<39 52.5 39 53 523.5 538.5 691 706>
VStem: 120 23<109 553> 601 23<100 515>
AnchorPoint: "Anchor-15" 0 0 basechar 0
AnchorPoint: "Anchor-14" 376 625 basechar 0
AnchorPoint: "Anchor-13" 0 0 basechar 0
AnchorPoint: "Anchor-12" 376 -170 basechar 0
LayerCount: 2
Fore
SplineSet
704 625 m 0xbc
 708 625 708 613 704 613 c 0
 648 613 624 584 624 515 c 2
 624 -12 l 2
 624 -15 615 -16 612 -14 c 2xdc
 152 543 l 2
 149 547 146 550 143 553 c 2
 143 109 l 2
 143 40 166 12 221 12 c 0
 225 12 225 0 221 0 c 0
 195 0 167 2 133 2 c 0
 100 2 68 0 41 0 c 0
 38 0 38 12 41 12 c 0
 99 12 120 40 120 109 c 2
 120 577 l 1
 90 605 65 613 41 613 c 0
 37 613 37 625 41 625 c 0
 64 625 91 623 111 623 c 0
 136 623 158 625 169 625 c 0
 186 625 185 611 216 573 c 2
 601 100 l 1
 601 515 l 2
 601 584 580 613 525 613 c 0
 522 613 522 625 525 625 c 0
 552 625 579 622 613 622 c 0
 645 622 678 625 704 625 c 0xbc
499 -85 m 2
 507 -85 507 -113 499 -113 c 2
 248 -113 l 2
 240 -113 240 -85 248 -85 c 2
 499 -85 l 2
EndSplineSet
Validated: 1
Position2: "'cpsp' Capital Spacing lookup 0 subtable" dx=5 dy=0 dh=10 dv=0
EndChar

StartChar: Ntilde
Encoding: 209 209 113
Width: 727
GlyphClass: 2
Flags: MW
HStem: -14 21G<612 612> 0 12<39.5 54.5 208 223> 613 12<39 52.5 39 53 523.5 538.5 691 706> 700 42<429.5 443> 724 43<311.5 325.5>
VStem: 120 23<109 553> 601 23<100 515>
AnchorPoint: "Anchor-15" 0 0 basechar 0
AnchorPoint: "Anchor-14" 376 625 basechar 0
AnchorPoint: "Anchor-13" 0 0 basechar 0
AnchorPoint: "Anchor-12" 374 0 basechar 0
LayerCount: 2
Fore
SplineSet
251 697 m 0x6e
 248 695 241 701 244 704 c 0
 260 728 294 767 329 767 c 0x6e
 362 767 405 742 454 742 c 0
 479 742 491 754 503 769 c 0
 506 771 513 766 510 762 c 0
 474 711 455 700 431 700 c 0x76
 387 700 350 724 301 724 c 0
 273 724 265 711 251 697 c 0x6e
704 625 m 0x76
 708 625 708 613 704 613 c 0
 648 613 624 584 624 515 c 2
 624 -12 l 2
 624 -15 615 -16 612 -14 c 2xb6
 152 543 l 2
 149 547 146 550 143 553 c 2
 143 109 l 2
 143 40 166 12 221 12 c 0
 225 12 225 0 221 0 c 0
 195 0 167 2 133 2 c 0
 100 2 68 0 41 0 c 0
 38 0 38 12 41 12 c 0
 99 12 120 40 120 109 c 2
 120 577 l 1
 90 605 65 613 41 613 c 0
 37 613 37 625 41 625 c 0
 64 625 91 623 111 623 c 0
 136 623 158 625 169 625 c 0
 186 625 185 611 216 573 c 2
 601 100 l 1
 601 515 l 2
 601 584 580 613 525 613 c 0
 522 613 522 625 525 625 c 0
 552 625 579 622 613 622 c 0
 645 622 678 625 704 625 c 0x76
EndSplineSet
Validated: 1
Position2: "'cpsp' Capital Spacing lookup 0 subtable" dx=5 dy=0 dh=10 dv=0
EndChar

StartChar: O
Encoding: 79 79 114
Width: 766
GlyphClass: 2
Flags: MW
HStem: -12 21<319 461> 613 23<320 445>
VStem: 49 76<252.5 420.5> 641 76<226 385>
AnchorPoint: "Anchor-15" 607 579 basechar 0
AnchorPoint: "Anchor-14" 385 625 basechar 0
AnchorPoint: "Anchor-13" 501 12 basechar 0
AnchorPoint: "Anchor-12" 395 0 basechar 0
LayerCount: 2
Fore
SplineSet
366 -12 m 0
 174 -12 49 136 49 312 c 0
 49 529 239 636 401 636 c 0
 598 636 717 480 717 319 c 0
 717 133 556 -12 366 -12 c 0
401 9 m 0
 535 9 641 109 641 291 c 0
 641 479 531 613 359 613 c 0
 211 613 125 511 125 347 c 0
 125 158 237 9 401 9 c 0
EndSplineSet
Validated: 1
Substitution2: "Single Substitution lookup 62 subtable" ordmasculine
Substitution2: "'aalt' Access All Alternates lookup 0 subtable" ordmasculine
Position2: "'cpsp' Capital Spacing lookup 0 subtable" dx=5 dy=0 dh=10 dv=0
EndChar

StartChar: Oacute
Encoding: 211 211 115
Width: 766
GlyphClass: 2
Flags: HMW
HStem: -12 21<319 461> 613 23<320 445> 679 10
VStem: 49 76<252.5 420.5> 641 76<226 385>
AnchorPoint: "Anchor-15" 607 579 basechar 0
AnchorPoint: "Anchor-14" 385 625 basechar 0
AnchorPoint: "Anchor-13" 501 12 basechar 0
AnchorPoint: "Anchor-12" 395 0 basechar 0
LayerCount: 2
Fore
SplineSet
288 679 m 0
 282 676 279 687 283 689 c 0
 345 721 394 754 446 784 c 0
 447 784 448 785 449 785 c 0
 464 785 512 764 512 758 c 0
 512 757 512 756 510 756 c 0
 421 734 356 709 288 679 c 0
366 -12 m 0
 174 -12 49 136 49 312 c 0
 49 529 239 636 401 636 c 0
 598 636 717 480 717 319 c 0
 717 133 556 -12 366 -12 c 0
401 9 m 0
 535 9 641 109 641 291 c 0
 641 479 531 613 359 613 c 0
 211 613 125 511 125 347 c 0
 125 158 237 9 401 9 c 0
EndSplineSet
Validated: 1
Substitution2: "'locl' Localized Forms in Latin lookup 15 subtable" Oacute.loclPLK
Substitution2: "'locl' Localized Forms in Latin lookup 8 subtable" Oacute.loclHUN
AlternateSubs2: "'aalt' Access All Alternates lookup 1 subtable" Oacute.loclHUN Oacute.loclPLK
Position2: "'cpsp' Capital Spacing lookup 0 subtable" dx=5 dy=0 dh=10 dv=0
EndChar

StartChar: Obreve
Encoding: 334 334 116
Width: 766
GlyphClass: 2
Flags: MW
HStem: -12 21<319 461> 613 23<320 445> 690 43<363.5 406 363.5 413.5>
VStem: 49 76<252.5 420.5> 282 11 476 11 641 76<226 385>
AnchorPoint: "Anchor-15" 607 579 basechar 0
AnchorPoint: "Anchor-14" 385 625 basechar 0
AnchorPoint: "Anchor-13" 501 12 basechar 0
AnchorPoint: "Anchor-12" 395 0 basechar 0
LayerCount: 2
Fore
SplineSet
385 690 m 0
 328 690 292 729 282 797 c 0
 281 802 291 803 293 800 c 0
 302 764 342 733 385 733 c 0
 427 733 467 764 476 800 c 0
 477 803 488 802 487 797 c 0
 477 729 442 690 385 690 c 0
366 -12 m 0
 174 -12 49 136 49 312 c 0
 49 529 239 636 401 636 c 0
 598 636 717 480 717 319 c 0
 717 133 556 -12 366 -12 c 0
401 9 m 0
 535 9 641 109 641 291 c 0
 641 479 531 613 359 613 c 0
 211 613 125 511 125 347 c 0
 125 158 237 9 401 9 c 0
EndSplineSet
Validated: 1
Position2: "'cpsp' Capital Spacing lookup 0 subtable" dx=5 dy=0 dh=10 dv=0
EndChar

StartChar: uni01D1
Encoding: 465 465 117
Width: 766
GlyphClass: 2
Flags: MW
HStem: -12 21<319 461> 613 23<320 445> 682.5 51.5 784 7<270 276>
VStem: 49 76<252.5 420.5> 641 76<226 385>
AnchorPoint: "Anchor-15" 607 579 basechar 0
AnchorPoint: "Anchor-14" 385 625 basechar 0
AnchorPoint: "Anchor-13" 501 12 basechar 0
AnchorPoint: "Anchor-12" 395 0 basechar 0
LayerCount: 2
Fore
SplineSet
373 687 m 2
 270 784 l 2
 267 786 274 792 276 791 c 2
 385 734 l 1
 493 791 l 2
 496 793 502 786 498 784 c 2
 396 687 l 2
 390 681 379 681 373 687 c 2
366 -12 m 0
 174 -12 49 136 49 312 c 0
 49 529 239 636 401 636 c 0
 598 636 717 480 717 319 c 0
 717 133 556 -12 366 -12 c 0
401 9 m 0
 535 9 641 109 641 291 c 0
 641 479 531 613 359 613 c 0
 211 613 125 511 125 347 c 0
 125 158 237 9 401 9 c 0
EndSplineSet
Validated: 1
Position2: "'cpsp' Capital Spacing lookup 0 subtable" dx=5 dy=0 dh=10 dv=0
EndChar

StartChar: Ocircumflex
Encoding: 212 212 118
Width: 766
GlyphClass: 2
Flags: MW
HStem: -12 21<319 461> 613 23<320 445> 685 7<271 277>
VStem: 49 76<252.5 420.5> 641 76<226 385>
AnchorPoint: "Anchor-15" 607 579 basechar 0
AnchorPoint: "Anchor-14" 385 625 basechar 0
AnchorPoint: "Anchor-13" 501 12 basechar 0
AnchorPoint: "Anchor-12" 395 0 basechar 0
LayerCount: 2
Fore
SplineSet
271 692 m 2
 374 790 l 2
 380 796 391 796 397 790 c 2
 499 692 l 2
 503 690 497 683 494 685 c 2
 386 743 l 1
 277 685 l 2
 275 684 268 690 271 692 c 2
366 -12 m 0
 174 -12 49 136 49 312 c 0
 49 529 239 636 401 636 c 0
 598 636 717 480 717 319 c 0
 717 133 556 -12 366 -12 c 0
401 9 m 0
 535 9 641 109 641 291 c 0
 641 479 531 613 359 613 c 0
 211 613 125 511 125 347 c 0
 125 158 237 9 401 9 c 0
EndSplineSet
Validated: 1
Position2: "'cpsp' Capital Spacing lookup 0 subtable" dx=5 dy=0 dh=10 dv=0
EndChar

StartChar: uni1ED0
Encoding: 7888 7888 119
Width: 766
GlyphClass: 2
Flags: HMW
HStem: -12 21<319 461> 613 23<320 445> 648 7<270 276>
VStem: 49 76<252.5 420.5> 641 76<226 385>
AnchorPoint: "Anchor-15" 607 579 basechar 0
AnchorPoint: "Anchor-14" 430 831 basechar 0
AnchorPoint: "Anchor-13" 501 12 basechar 0
AnchorPoint: "Anchor-12" 395 0 basechar 0
LayerCount: 2
Fore
SplineSet
451 724 m 0
 445 721 441 728 444 732 c 0
 472 763 498 797 520 829 c 0
 521 830 522 830 524 830 c 0
 540 830 587 810 587 803 c 0
 587 802 587 801 585 801 c 0
 531 779 492 754 451 724 c 0
270 655 m 2xf8
 373 752 l 2
 379 758 390 758 396 752 c 2
 498 655 l 2
 502 653 496 646 493 648 c 2
 385 705 l 1
 276 648 l 2
 274 647 267 653 270 655 c 2xf8
366 -12 m 0
 174 -12 49 136 49 312 c 0
 49 529 239 636 401 636 c 0xd8
 598 636 717 480 717 319 c 0
 717 133 556 -12 366 -12 c 0
401 9 m 0
 535 9 641 109 641 291 c 0
 641 479 531 613 359 613 c 0xd8
 211 613 125 511 125 347 c 0
 125 158 237 9 401 9 c 0
EndSplineSet
Validated: 1
Position2: "'cpsp' Capital Spacing lookup 0 subtable" dx=5 dy=0 dh=10 dv=0
EndChar

StartChar: uni1ED8
Encoding: 7896 7896 120
Width: 766
GlyphClass: 2
Flags: MW
HStem: -190 84<382 409.5> -12 21<319 461> 613 23<320 445> 648 7<270 276>
VStem: 49 76<252.5 420.5> 352 86<-161.5 -134.5> 641 76<226 385>
AnchorPoint: "Anchor-15" 607 579 basechar 0
AnchorPoint: "Anchor-14" 505 670 basechar 0
AnchorPoint: "Anchor-13" 501 12 basechar 0
AnchorPoint: "Anchor-12" 397 -207 basechar 0
LayerCount: 2
Fore
SplineSet
270 655 m 2
 373 752 l 2
 379 758 390 758 396 752 c 2
 498 655 l 2
 502 653 496 646 493 648 c 2
 385 705 l 1
 276 648 l 2
 274 647 267 653 270 655 c 2
366 -12 m 0
 174 -12 49 136 49 312 c 0
 49 529 239 636 401 636 c 0x6a
 598 636 717 480 717 319 c 0
 717 133 556 -12 366 -12 c 0
401 9 m 0
 535 9 641 109 641 291 c 0
 641 479 531 613 359 613 c 0x6a
 211 613 125 511 125 347 c 0
 125 158 237 9 401 9 c 0
396 -190 m 0xee
 368 -190 352 -175 352 -148 c 0
 352 -121 368 -106 396 -106 c 0
 423 -106 438 -121 438 -148 c 0
 438 -175 423 -190 396 -190 c 0xee
EndSplineSet
Validated: 1
Position2: "'cpsp' Capital Spacing lookup 0 subtable" dx=5 dy=0 dh=10 dv=0
EndChar

StartChar: uni1ED2
Encoding: 7890 7890 121
Width: 766
GlyphClass: 2
Flags: HMW
HStem: -12 21<319 461> 613 23<320 445> 648 7<270 276>
VStem: 49 76<252.5 420.5> 641 76<226 385>
AnchorPoint: "Anchor-15" 607 579 basechar 0
AnchorPoint: "Anchor-14" 422 824 basechar 0
AnchorPoint: "Anchor-13" 501 12 basechar 0
AnchorPoint: "Anchor-12" 395 0 basechar 0
LayerCount: 2
Fore
SplineSet
552 702 m 0
 511 732 473 757 419 779 c 0
 417 779 417 780 417 781 c 0
 417 788 465 808 480 808 c 0
 482 808 483 808 484 807 c 0
 506 775 531 743 560 711 c 0
 564 706 558 699 552 702 c 0
270 655 m 2xf8
 373 752 l 2
 379 758 390 758 396 752 c 2
 498 655 l 2
 502 653 496 646 493 648 c 2
 385 705 l 1
 276 648 l 2
 274 647 267 653 270 655 c 2xf8
366 -12 m 0
 174 -12 49 136 49 312 c 0
 49 529 239 636 401 636 c 0xd8
 598 636 717 480 717 319 c 0
 717 133 556 -12 366 -12 c 0
401 9 m 0
 535 9 641 109 641 291 c 0
 641 479 531 613 359 613 c 0xd8
 211 613 125 511 125 347 c 0
 125 158 237 9 401 9 c 0
EndSplineSet
Validated: 1
Position2: "'cpsp' Capital Spacing lookup 0 subtable" dx=5 dy=0 dh=10 dv=0
EndChar

StartChar: uni1ED4
Encoding: 7892 7892 122
Width: 766
GlyphClass: 2
Flags: HMW
HStem: -12 21<319 461> 613 23<320 445> 648 7<270 276> 838 8 843 22<454 502.5>
VStem: 49 76<252.5 420.5> 462.7 13.3 492 43<801 823> 641 76<226 385>
AnchorPoint: "Anchor-15" 607 579 basechar 0
AnchorPoint: "Anchor-14" 404 862 basechar 0
AnchorPoint: "Anchor-13" 501 12 basechar 0
AnchorPoint: "Anchor-12" 395 0 basechar 0
LayerCount: 2
Fore
SplineSet
465 724 m 0xc680
 463 729 463 733 463 737 c 0
 463 764 492 784 492 812 c 0
 492 834 473 843 458 843 c 0xcf80
 450 843 441 841 434 838 c 0
 431 836 423 844 427 846 c 0xd780
 448 859 472 865 487 865 c 0
 518 865 535 843 535 822 c 0xcf80
 535 782 475 761 475 730 c 0
 475 728 476 726 476 724 c 0
 478 721 466 720 465 724 c 0xc680
270 655 m 2xe680
 373 752 l 2
 379 758 390 758 396 752 c 2
 498 655 l 2
 502 653 496 646 493 648 c 2
 385 705 l 1
 276 648 l 2
 274 647 267 653 270 655 c 2xe680
366 -12 m 0
 174 -12 49 136 49 312 c 0
 49 529 239 636 401 636 c 0xc680
 598 636 717 480 717 319 c 0
 717 133 556 -12 366 -12 c 0
401 9 m 0
 535 9 641 109 641 291 c 0
 641 479 531 613 359 613 c 0xc680
 211 613 125 511 125 347 c 0
 125 158 237 9 401 9 c 0
EndSplineSet
Validated: 1
Position2: "'cpsp' Capital Spacing lookup 0 subtable" dx=5 dy=0 dh=10 dv=0
EndChar

StartChar: uni1ED6
Encoding: 7894 7894 123
Width: 766
GlyphClass: 2
Flags: MW
HStem: -12 21<319 461> 613 23<320 445> 648 7<270 276> 769 42<442.5 456> 794 41<324.5 338>
VStem: 49 76<252.5 420.5> 641 76<226 385>
AnchorPoint: "Anchor-15" 607 579 basechar 0
AnchorPoint: "Anchor-14" 393 838 basechar 0
AnchorPoint: "Anchor-13" 501 12 basechar 0
AnchorPoint: "Anchor-12" 395 0 basechar 0
LayerCount: 2
Fore
SplineSet
467 811 m 0xd6
 492 811 504 824 516 838 c 0
 519 840 526 834 523 831 c 0
 487 781 468 769 444 769 c 0xd6
 400 769 363 794 313 794 c 0
 286 794 278 780 264 767 c 0
 261 765 254 770 257 774 c 0
 273 796 307 835 342 835 c 0xce
 375 835 418 811 467 811 c 0xd6
270 655 m 2xee
 373 752 l 2
 379 758 390 758 396 752 c 2
 498 655 l 2
 502 653 496 646 493 648 c 2
 385 705 l 1
 276 648 l 2
 274 647 267 653 270 655 c 2xee
366 -12 m 0
 174 -12 49 136 49 312 c 0
 49 529 239 636 401 636 c 0xce
 598 636 717 480 717 319 c 0
 717 133 556 -12 366 -12 c 0
401 9 m 0
 535 9 641 109 641 291 c 0
 641 479 531 613 359 613 c 0xce
 211 613 125 511 125 347 c 0
 125 158 237 9 401 9 c 0
EndSplineSet
Validated: 1
Position2: "'cpsp' Capital Spacing lookup 0 subtable" dx=5 dy=0 dh=10 dv=0
EndChar

StartChar: Odieresis
Encoding: 214 214 124
Width: 766
GlyphClass: 2
Flags: MW
HStem: -12 21<319 461> 613 23<320 445> 717 82<284.5 311 460 486.5>
VStem: 49 76<252.5 420.5> 255 84<745 771> 430 85<745 771> 641 76<226 385>
AnchorPoint: "Anchor-15" 607 579 basechar 0
AnchorPoint: "Anchor-14" 385 625 basechar 0
AnchorPoint: "Anchor-13" 501 12 basechar 0
AnchorPoint: "Anchor-12" 395 0 basechar 0
LayerCount: 2
Fore
SplineSet
298 717 m 0
 271 717 255 732 255 758 c 0
 255 784 271 799 298 799 c 0
 324 799 339 784 339 758 c 0
 339 732 324 717 298 717 c 0
473 717 m 0
 447 717 430 732 430 758 c 0
 430 784 447 799 473 799 c 0
 500 799 515 784 515 758 c 0
 515 732 500 717 473 717 c 0
366 -12 m 0
 174 -12 49 136 49 312 c 0
 49 529 239 636 401 636 c 0
 598 636 717 480 717 319 c 0
 717 133 556 -12 366 -12 c 0
401 9 m 0
 535 9 641 109 641 291 c 0
 641 479 531 613 359 613 c 0
 211 613 125 511 125 347 c 0
 125 158 237 9 401 9 c 0
EndSplineSet
Validated: 1
Substitution2: "'ss04' Style Set 4 lookup 55 subtable" Odieresis.ss04
Substitution2: "'aalt' Access All Alternates lookup 0 subtable" Odieresis.ss04
Position2: "'cpsp' Capital Spacing lookup 0 subtable" dx=5 dy=0 dh=10 dv=0
EndChar

StartChar: uni1ECC
Encoding: 7884 7884 125
Width: 766
GlyphClass: 2
Flags: MW
HStem: -190 84<382 409.5> -12 21<319 461> 613 23<320 445>
VStem: 49 76<252.5 420.5> 352 86<-161.5 -134.5> 641 76<226 385>
AnchorPoint: "Anchor-15" 607 579 basechar 0
AnchorPoint: "Anchor-14" 385 625 basechar 0
AnchorPoint: "Anchor-13" 501 12 basechar 0
AnchorPoint: "Anchor-12" 397 -207 basechar 0
LayerCount: 2
Fore
SplineSet
366 -12 m 0
 174 -12 49 136 49 312 c 0
 49 529 239 636 401 636 c 0
 598 636 717 480 717 319 c 0
 717 133 556 -12 366 -12 c 0
401 9 m 0
 535 9 641 109 641 291 c 0
 641 479 531 613 359 613 c 0
 211 613 125 511 125 347 c 0
 125 158 237 9 401 9 c 0
396 -190 m 0
 368 -190 352 -175 352 -148 c 0
 352 -121 368 -106 396 -106 c 0
 423 -106 438 -121 438 -148 c 0
 438 -175 423 -190 396 -190 c 0
EndSplineSet
Validated: 1
Position2: "'cpsp' Capital Spacing lookup 0 subtable" dx=5 dy=0 dh=10 dv=0
EndChar

StartChar: Ograve
Encoding: 210 210 126
Width: 766
GlyphClass: 2
Flags: HMW
HStem: -12 21<319 461> 613 23<320 445>
VStem: 49 76<252.5 420.5> 641 76<226 385>
AnchorPoint: "Anchor-15" 607 579 basechar 0
AnchorPoint: "Anchor-14" 385 625 basechar 0
AnchorPoint: "Anchor-13" 501 12 basechar 0
AnchorPoint: "Anchor-12" 395 0 basechar 0
LayerCount: 2
Fore
SplineSet
484 679 m 0
 416 709 350 734 261 756 c 0
 259 756 259 757 259 758 c 0
 259 764 308 785 323 785 c 0
 324 785 325 784 326 784 c 0
 377 753 427 721 488 689 c 0
 493 687 489 676 484 679 c 0
366 -12 m 0
 174 -12 49 136 49 312 c 0
 49 529 239 636 401 636 c 0
 598 636 717 480 717 319 c 0
 717 133 556 -12 366 -12 c 0
401 9 m 0
 535 9 641 109 641 291 c 0
 641 479 531 613 359 613 c 0
 211 613 125 511 125 347 c 0
 125 158 237 9 401 9 c 0
EndSplineSet
Validated: 1
Position2: "'cpsp' Capital Spacing lookup 0 subtable" dx=5 dy=0 dh=10 dv=0
EndChar

StartChar: uni1ECE
Encoding: 7886 7886 127
Width: 766
GlyphClass: 2
Flags: HMW
HStem: -12 21<319 461> 613 23<320 445> 820 22<367.5 422.5>
VStem: 49 76<252.5 420.5> 373.03 14.97 414 52<762 793.5> 641 76<226 385>
AnchorPoint: "Anchor-15" 607 579 basechar 0
AnchorPoint: "Anchor-14" 387 789 basechar 0
AnchorPoint: "Anchor-13" 501 12 basechar 0
AnchorPoint: "Anchor-12" 395 0 basechar 0
LayerCount: 2
Fore
SplineSet
388 651 m 0
 388 649 377 648 376 651 c 0
 374 658 373 665 373 672 c 0
 373 716 414 742 414 780 c 0
 414 807 394 820 372 820 c 0
 363 820 352 817 344 813 c 0
 341 811 332 819 337 821 c 0
 358 836 382 842 402 842 c 0
 443 842 466 818 466 790 c 0xfe
 466 738 387 708 387 661 c 0
 387 658 387 654 388 651 c 0
366 -12 m 0
 174 -12 49 136 49 312 c 0
 49 529 239 636 401 636 c 0
 598 636 717 480 717 319 c 0
 717 133 556 -12 366 -12 c 0
401 9 m 0
 535 9 641 109 641 291 c 0
 641 479 531 613 359 613 c 0
 211 613 125 511 125 347 c 0
 125 158 237 9 401 9 c 0
EndSplineSet
Validated: 1
Position2: "'cpsp' Capital Spacing lookup 0 subtable" dx=5 dy=0 dh=10 dv=0
EndChar

StartChar: Ohorn
Encoding: 416 416 128
Width: 766
GlyphClass: 2
Flags: MW
HStem: -12 21<319 461> 613 23<320 445>
VStem: 49 76<252.5 420.5> 641 76<226 360.5 226 385> 653 80<652 670.5 632.5 678.5>
AnchorPoint: "Anchor-15" 607 578 basechar 0
AnchorPoint: "Anchor-14" 384 625 basechar 0
AnchorPoint: "Anchor-13" 501 12 basechar 0
AnchorPoint: "Anchor-12" 384 0 basechar 0
LayerCount: 2
Fore
SplineSet
733 660 m 0xe8
 733 605 681 568 628 543 c 1
 685 483 717 402 717 319 c 0xf0
 717 133 556 -12 366 -12 c 0
 174 -12 49 136 49 312 c 0
 49 529 239 636 401 636 c 0
 490 636 564 604 617 554 c 1
 654 572 674 594 674 616 c 0
 674 637 653 638 653 666 c 0
 653 691 675 704 694 704 c 0
 721 704 733 681 733 660 c 0xe8
401 9 m 0xf0
 535 9 641 109 641 291 c 0
 641 479 531 613 359 613 c 0
 211 613 125 511 125 347 c 0
 125 158 237 9 401 9 c 0xf0
EndSplineSet
Validated: 1
Position2: "'cpsp' Capital Spacing lookup 0 subtable" dx=5 dy=0 dh=10 dv=0
EndChar

StartChar: uni1EDA
Encoding: 7898 7898 129
Width: 766
GlyphClass: 2
Flags: HMW
HStem: -12 21<319 461> 613 23<320 445> 678 11
VStem: 49 76<252.5 420.5> 641 76<226 360.5 226 385> 653 80<652 670.5 632.5 678.5>
AnchorPoint: "Anchor-15" 607 578 basechar 0
AnchorPoint: "Anchor-14" 398 784 basechar 0
AnchorPoint: "Anchor-13" 501 12 basechar 0
AnchorPoint: "Anchor-12" 384 0 basechar 0
LayerCount: 2
Fore
SplineSet
287 678 m 0xf8
 281 676 278 687 282 689 c 0
 344 720 393 754 445 783 c 0
 446 784 447 784 449 784 c 0
 464 784 511 764 511 758 c 0
 511 757 511 756 509 756 c 0
 420 733 355 709 287 678 c 0xf8
733 660 m 0xf4
 733 605 681 568 628 543 c 1
 685 483 717 402 717 319 c 0xf8
 717 133 556 -12 366 -12 c 0
 174 -12 49 136 49 312 c 0
 49 529 239 636 401 636 c 0
 490 636 564 604 617 554 c 1
 654 572 674 594 674 616 c 0
 674 637 653 638 653 666 c 0
 653 691 675 704 694 704 c 0
 721 704 733 681 733 660 c 0xf4
401 9 m 0xf8
 535 9 641 109 641 291 c 0
 641 479 531 613 359 613 c 0
 211 613 125 511 125 347 c 0
 125 158 237 9 401 9 c 0xf8
EndSplineSet
Validated: 1
Position2: "'cpsp' Capital Spacing lookup 0 subtable" dx=5 dy=0 dh=10 dv=0
EndChar

StartChar: uni1EE2
Encoding: 7906 7906 130
Width: 766
GlyphClass: 2
Flags: MW
HStem: -190 84<371 398.5> -12 21<319 461> 613 23<320 445>
VStem: 49 76<252.5 420.5> 341 86<-161.5 -134.5> 641 76<226 360.5 226 385> 653 80<652 670.5 632.5 678.5>
AnchorPoint: "Anchor-15" 607 578 basechar 0
AnchorPoint: "Anchor-14" 384 625 basechar 0
AnchorPoint: "Anchor-13" 501 12 basechar 0
AnchorPoint: "Anchor-12" 386 -207 basechar 0
LayerCount: 2
Fore
SplineSet
733 660 m 0x72
 733 605 681 568 628 543 c 1
 685 483 717 402 717 319 c 0x74
 717 133 556 -12 366 -12 c 0
 174 -12 49 136 49 312 c 0
 49 529 239 636 401 636 c 0
 490 636 564 604 617 554 c 1
 654 572 674 594 674 616 c 0
 674 637 653 638 653 666 c 0
 653 691 675 704 694 704 c 0
 721 704 733 681 733 660 c 0x72
401 9 m 0xfc
 535 9 641 109 641 291 c 0
 641 479 531 613 359 613 c 0
 211 613 125 511 125 347 c 0
 125 158 237 9 401 9 c 0xfc
385 -106 m 0
 412 -106 427 -121 427 -148 c 0
 427 -175 412 -190 385 -190 c 0
 357 -190 341 -175 341 -148 c 0
 341 -121 357 -106 385 -106 c 0
EndSplineSet
Validated: 1
Position2: "'cpsp' Capital Spacing lookup 0 subtable" dx=5 dy=0 dh=10 dv=0
EndChar

StartChar: uni1EDC
Encoding: 7900 7900 131
Width: 766
GlyphClass: 2
Flags: HMW
HStem: -12 21<319 461> 613 23<320 445>
VStem: 49 76<252.5 420.5> 641 76<226 360.5 226 385> 653 80<652 670.5 632.5 678.5>
AnchorPoint: "Anchor-15" 607 578 basechar 0
AnchorPoint: "Anchor-14" 384 625 basechar 0
AnchorPoint: "Anchor-13" 501 12 basechar 0
AnchorPoint: "Anchor-12" 384 0 basechar 0
LayerCount: 2
Fore
SplineSet
260 756 m 0xf0
 258 756 258 757 258 758 c 0
 258 764 307 785 322 785 c 0
 323 785 324 784 325 784 c 0
 376 753 426 721 487 689 c 0
 492 687 488 676 483 679 c 0
 415 709 349 734 260 756 c 0xf0
733 660 m 0xe8
 733 605 681 568 628 543 c 1
 685 483 717 402 717 319 c 0xf0
 717 133 556 -12 366 -12 c 0
 174 -12 49 136 49 312 c 0
 49 529 239 636 401 636 c 0
 490 636 564 604 617 554 c 1
 654 572 674 594 674 616 c 0
 674 637 653 638 653 666 c 0
 653 691 675 704 694 704 c 0
 721 704 733 681 733 660 c 0xe8
401 9 m 0xf0
 535 9 641 109 641 291 c 0
 641 479 531 613 359 613 c 0
 211 613 125 511 125 347 c 0
 125 158 237 9 401 9 c 0xf0
EndSplineSet
Validated: 1
Position2: "'cpsp' Capital Spacing lookup 0 subtable" dx=5 dy=0 dh=10 dv=0
EndChar

StartChar: uni1EDE
Encoding: 7902 7902 132
Width: 766
GlyphClass: 2
Flags: HMW
HStem: -12 21<319 461> 613 23<320 445> 829 22<358 413.5>
VStem: 49 76<252.5 420.5> 363.74 14.26 405 51<770.5 802> 641 76<226 360.5 226 385> 653 80<652 670.5 632.5 678.5>
AnchorPoint: "Anchor-15" 607 578 basechar 0
AnchorPoint: "Anchor-14" 388 851 basechar 0
AnchorPoint: "Anchor-13" 501 12 basechar 0
AnchorPoint: "Anchor-12" 384 0 basechar 0
LayerCount: 2
Fore
SplineSet
335 822 m 0xfd
 332 820 324 828 328 830 c 0
 349 844 373 851 393 851 c 0
 434 851 456 827 456 799 c 0
 456 745 377 717 377 670 c 0
 377 667 377 664 378 661 c 0
 380 658 368 657 367 661 c 0
 365 669 364 676 364 682 c 0
 364 726 405 751 405 789 c 0
 405 815 385 829 363 829 c 0
 353 829 343 826 335 822 c 0xfd
733 660 m 0
 733 605 681 568 628 543 c 1
 685 483 717 402 717 319 c 0xfa
 717 133 556 -12 366 -12 c 0
 174 -12 49 136 49 312 c 0
 49 529 239 636 401 636 c 0
 490 636 564 604 617 554 c 1
 654 572 674 594 674 616 c 0
 674 637 653 638 653 666 c 0
 653 691 675 704 694 704 c 0
 721 704 733 681 733 660 c 0
401 9 m 0xfa
 535 9 641 109 641 291 c 0
 641 479 531 613 359 613 c 0
 211 613 125 511 125 347 c 0
 125 158 237 9 401 9 c 0xfa
EndSplineSet
Validated: 1
Position2: "'cpsp' Capital Spacing lookup 0 subtable" dx=5 dy=0 dh=10 dv=0
EndChar

StartChar: uni1EE0
Encoding: 7904 7904 133
Width: 766
GlyphClass: 2
Flags: MW
HStem: -12 21<319 461> 613 23<320 445> 721 42<436.5 450> 746 41<318.5 332>
VStem: 49 76<252.5 420.5> 641 76<226 360.5 226 385> 653 80<652 670.5 632.5 678.5>
AnchorPoint: "Anchor-15" 607 578 basechar 0
AnchorPoint: "Anchor-14" 386 790 basechar 0
AnchorPoint: "Anchor-13" 501 12 basechar 0
AnchorPoint: "Anchor-12" 384 0 basechar 0
LayerCount: 2
Fore
SplineSet
258 719 m 0xdc
 255 717 248 722 251 726 c 0
 267 748 301 787 336 787 c 0xdc
 369 787 412 763 461 763 c 0
 486 763 498 776 510 790 c 0
 513 792 520 786 517 783 c 0
 481 733 462 721 438 721 c 0xec
 394 721 357 746 307 746 c 0
 280 746 272 732 258 719 c 0xdc
733 660 m 0xda
 733 605 681 568 628 543 c 1
 685 483 717 402 717 319 c 0xdc
 717 133 556 -12 366 -12 c 0
 174 -12 49 136 49 312 c 0
 49 529 239 636 401 636 c 0
 490 636 564 604 617 554 c 1
 654 572 674 594 674 616 c 0
 674 637 653 638 653 666 c 0
 653 691 675 704 694 704 c 0
 721 704 733 681 733 660 c 0xda
401 9 m 0xdc
 535 9 641 109 641 291 c 0
 641 479 531 613 359 613 c 0
 211 613 125 511 125 347 c 0
 125 158 237 9 401 9 c 0xdc
EndSplineSet
Validated: 1
Position2: "'cpsp' Capital Spacing lookup 0 subtable" dx=5 dy=0 dh=10 dv=0
EndChar

StartChar: Ohungarumlaut
Encoding: 336 336 134
Width: 766
GlyphClass: 2
Flags: HMW
HStem: -12 21<319 461> 613 23<320 445>
VStem: 49 76<252.5 420.5> 641 76<226 385>
AnchorPoint: "Anchor-15" 607 579 basechar 0
AnchorPoint: "Anchor-14" 385 625 basechar 0
AnchorPoint: "Anchor-13" 501 12 basechar 0
AnchorPoint: "Anchor-12" 395 0 basechar 0
LayerCount: 2
Fore
SplineSet
280 677 m 0
 275 673 271 683 274 687 c 0
 309 720 337 750 364 782 c 0
 365 783 367 784 370 784 c 0
 387 784 431 768 431 760 c 0
 431 759 430 759 429 758 c 0
 370 734 328 709 280 677 c 0
404 677 m 0
 399 673 395 683 398 687 c 0
 433 720 461 750 488 782 c 0
 489 783 491 784 494 784 c 0
 510 784 553 768 553 760 c 0
 553 759 552 759 551 758 c 0
 495 735 452 709 404 677 c 0
366 -12 m 0
 174 -12 49 136 49 312 c 0
 49 529 239 636 401 636 c 0
 598 636 717 480 717 319 c 0
 717 133 556 -12 366 -12 c 0
401 9 m 0
 535 9 641 109 641 291 c 0
 641 479 531 613 359 613 c 0
 211 613 125 511 125 347 c 0
 125 158 237 9 401 9 c 0
EndSplineSet
Validated: 1
Position2: "'cpsp' Capital Spacing lookup 0 subtable" dx=5 dy=0 dh=10 dv=0
EndChar

StartChar: Omacron
Encoding: 332 332 135
Width: 766
GlyphClass: 2
Flags: MW
HStem: -12 21<319 461> 613 23<320 445> 722 28<255 510 259 510>
VStem: 49 76<252.5 420.5> 641 76<226 385>
AnchorPoint: "Anchor-15" 607 579 basechar 0
AnchorPoint: "Anchor-14" 385 625 basechar 0
AnchorPoint: "Anchor-13" 501 12 basechar 0
AnchorPoint: "Anchor-12" 395 0 basechar 0
LayerCount: 2
Fore
SplineSet
259 722 m 2
 251 722 251 750 259 750 c 2
 510 750 l 2
 518 750 518 722 510 722 c 2
 259 722 l 2
366 -12 m 0
 174 -12 49 136 49 312 c 0
 49 529 239 636 401 636 c 0
 598 636 717 480 717 319 c 0
 717 133 556 -12 366 -12 c 0
401 9 m 0
 535 9 641 109 641 291 c 0
 641 479 531 613 359 613 c 0
 211 613 125 511 125 347 c 0
 125 158 237 9 401 9 c 0
EndSplineSet
Validated: 1
Position2: "'cpsp' Capital Spacing lookup 0 subtable" dx=5 dy=0 dh=10 dv=0
EndChar

StartChar: uni01EA
Encoding: 490 490 136
Width: 766
GlyphClass: 2
Flags: MW
HStem: -275 30<430.5 443.5> -12 21<319 374> 613 23<320 445>
VStem: 49 76<252.5 420.5> 313 55<-174.5 -149> 641 76<238 385>
AnchorPoint: "Anchor-15" 607 579 basechar 0
AnchorPoint: "Anchor-14" 384 625 basechar 0
AnchorPoint: "Anchor-13" 501 12 basechar 0
AnchorPoint: "Anchor-12" 395 0 basechar 0
LayerCount: 2
Fore
SplineSet
439 -5 m 1
 388 -51 368 -93 368 -143 c 0
 368 -206 400 -245 461 -245 c 0
 492 -245 511 -233 526 -222 c 0
 530 -220 537 -227 533 -230 c 0
 496 -262 462 -275 425 -275 c 0
 352 -275 313 -235 313 -176 c 0
 313 -122 347 -66 415 -9 c 1
 399 -11 382 -12 366 -12 c 0
 174 -12 49 136 49 312 c 0
 49 529 239 636 401 636 c 0
 598 636 717 480 717 319 c 0
 717 157 595 27 439 -5 c 1
125 347 m 0
 125 158 237 9 401 9 c 0
 535 9 641 109 641 291 c 0
 641 479 531 613 359 613 c 0
 211 613 125 511 125 347 c 0
EndSplineSet
Validated: 1
Position2: "'cpsp' Capital Spacing lookup 0 subtable" dx=5 dy=0 dh=10 dv=0
EndChar

StartChar: Oslash
Encoding: 216 216 137
Width: 771
GlyphClass: 2
Flags: MW
HStem: -12 21<359 461> 613 23<320 403>
VStem: 49 76<305.5 420.5> 641 76<226 332.5>
AnchorPoint: "Anchor-15" 607 579 basechar 0
AnchorPoint: "Anchor-14" 388 625 basechar 0
AnchorPoint: "Anchor-13" 501 12 basechar 0
AnchorPoint: "Anchor-12" 386 0 basechar 0
LayerCount: 2
Fore
SplineSet
625 546 m 1
 684 487 717 403 717 319 c 0
 717 133 556 -12 366 -12 c 0
 280 -12 207 18 153 67 c 1
 80 -7 l 2
 77 -11 61 3 65 8 c 2
 138 82 l 1
 81 141 49 223 49 312 c 0
 49 529 239 636 401 636 c 0
 486 636 557 607 610 561 c 1
 678 630 l 2
 682 634 699 621 694 617 c 2
 625 546 l 1
125 347 m 0
 125 264 147 188 185 130 c 1
 568 518 l 1
 519 578 447 613 359 613 c 0
 211 613 125 511 125 347 c 0
401 9 m 0
 535 9 641 109 641 291 c 0
 641 374 619 447 581 502 c 1
 197 112 l 1
 246 48 317 9 401 9 c 0
EndSplineSet
Validated: 1
Position2: "'cpsp' Capital Spacing lookup 0 subtable" dx=5 dy=0 dh=10 dv=0
EndChar

StartChar: Oslashacute
Encoding: 510 510 138
Width: 771
GlyphClass: 2
Flags: HMW
HStem: -12 21<359 461> 613 23<320 403> 679 10
VStem: 49 76<305.5 420.5> 641 76<226 332.5>
AnchorPoint: "Anchor-15" 607 579 basechar 0
AnchorPoint: "Anchor-14" 388 625 basechar 0
AnchorPoint: "Anchor-13" 501 12 basechar 0
AnchorPoint: "Anchor-12" 386 0 basechar 0
LayerCount: 2
Fore
SplineSet
291 679 m 0
 285 676 282 687 286 689 c 0
 348 721 397 754 449 784 c 0
 450 784 451 785 452 785 c 0
 467 785 515 764 515 758 c 0
 515 757 515 756 513 756 c 0
 424 734 359 709 291 679 c 0
625 546 m 1
 684 487 717 403 717 319 c 0
 717 133 556 -12 366 -12 c 0
 280 -12 207 18 153 67 c 1
 80 -7 l 2
 77 -11 61 3 65 8 c 2
 138 82 l 1
 81 141 49 223 49 312 c 0
 49 529 239 636 401 636 c 0
 486 636 557 607 610 561 c 1
 678 630 l 2
 682 634 699 621 694 617 c 2
 625 546 l 1
125 347 m 0
 125 264 147 188 185 130 c 1
 568 518 l 1
 519 578 447 613 359 613 c 0
 211 613 125 511 125 347 c 0
401 9 m 0
 535 9 641 109 641 291 c 0
 641 374 619 447 581 502 c 1
 197 112 l 1
 246 48 317 9 401 9 c 0
EndSplineSet
Validated: 1
Position2: "'cpsp' Capital Spacing lookup 0 subtable" dx=5 dy=0 dh=10 dv=0
EndChar

StartChar: Otilde
Encoding: 213 213 139
Width: 766
GlyphClass: 2
Flags: MW
HStem: -12 21<319 461> 613 23<320 445> 700 42<438.5 452> 724 43<320.5 334.5>
VStem: 49 76<252.5 420.5> 641 76<226 385>
AnchorPoint: "Anchor-15" 607 579 basechar 0
AnchorPoint: "Anchor-14" 385 625 basechar 0
AnchorPoint: "Anchor-13" 501 12 basechar 0
AnchorPoint: "Anchor-12" 395 0 basechar 0
LayerCount: 2
Fore
SplineSet
463 742 m 0xec
 488 742 500 754 512 769 c 0
 515 771 522 766 519 762 c 0
 483 711 464 700 440 700 c 0xec
 396 700 359 724 310 724 c 0
 282 724 274 711 260 697 c 0
 257 695 250 701 253 704 c 0
 269 728 303 767 338 767 c 0xdc
 371 767 414 742 463 742 c 0xec
366 -12 m 0
 174 -12 49 136 49 312 c 0
 49 529 239 636 401 636 c 0
 598 636 717 480 717 319 c 0
 717 133 556 -12 366 -12 c 0
401 9 m 0
 535 9 641 109 641 291 c 0
 641 479 531 613 359 613 c 0
 211 613 125 511 125 347 c 0
 125 158 237 9 401 9 c 0
EndSplineSet
Validated: 1
Position2: "'cpsp' Capital Spacing lookup 0 subtable" dx=5 dy=0 dh=10 dv=0
EndChar

StartChar: OE
Encoding: 338 338 140
Width: 915
GlyphClass: 2
Flags: MW
HStem: -4 15<313.5 421> 0 21<649 732 732 760.5> 315 21<571 690 571 693> 604 21<617.5 651 651 715> 612 15<322.5 413 300 445.5>
VStem: 49 76<235.5 401> 506 65<82 85 85 315 336 534 534 543> 784 11<231.5 250 231.5 262> 822 10<616 625> 853 11<148 149 147 150>
AnchorPoint: "Anchor-15" 0 0 basechar 0
AnchorPoint: "Anchor-14" 457 625 basechar 0
AnchorPoint: "Anchor-13" 0 0 basechar 0
AnchorPoint: "Anchor-12" 457 0 basechar 0
LayerCount: 2
Fore
SplineSet
853 148 m 0x6e80
 853 152 864 151 864 147 c 0
 860 112 855 57 855 15 c 0
 855 4 852 0 840 0 c 2
 542 0 l 2x6ec0
 498 0 444 -4 398 -4 c 0
 192 -4 49 129 49 301 c 0
 49 501 207 627 393 627 c 0
 433 627 493 625 540 625 c 2
 822 625 l 2
 829 625 832 622 832 616 c 2
 834 493 l 2
 834 489 822 488 822 492 c 0xb680
 820 554 776 604 715 604 c 2
 651 604 l 2
 584 604 571 593 571 543 c 2
 571 336 l 1
 693 336 l 2
 758 336 783 356 783 406 c 0
 783 409 794 409 794 406 c 0
 794 366 793 350 793 325 c 0
 793 294 795 267 795 233 c 0
 795 230 784 230 784 233 c 0
 784 291 758 315 690 315 c 2x7780
 571 315 l 1
 571 85 l 2
 571 33 584 21 649 21 c 2
 732 21 l 2
 789 21 840 74 853 148 c 0x6e80
506 82 m 2xae80
 506 534 l 2
 506 589 488 612 403 612 c 0
 242 612 125 510 125 323 c 0
 125 148 230 11 397 11 c 0
 478 11 506 21 506 82 c 2xae80
EndSplineSet
Validated: 1
Position2: "'cpsp' Capital Spacing lookup 0 subtable" dx=5 dy=0 dh=10 dv=0
EndChar

StartChar: P
Encoding: 80 80 141
Width: 543
GlyphClass: 2
Flags: HMW
HStem: 0 12<40.5 58.5 289.5 313> 262 14<272 310.5 264.5 331.5> 613 12<40.5 58.5 40.5 78.5> 613 15<272.5 317>
VStem: 127 65<81 85 85 542> 427 74
AnchorPoint: "Anchor-15" 0 0 basechar 0
AnchorPoint: "Anchor-14" 271 625 basechar 0
AnchorPoint: "Anchor-13" 0 0 basechar 0
AnchorPoint: "Anchor-12" 271 0 basechar 0
LayerCount: 2
Fore
SplineSet
192 85 m 2xdc
 192 25 208 12 311 12 c 0
 315 12 315 0 311 0 c 0
 268 0 219 2 160 2 c 0
 116 2 75 0 42 0 c 0
 39 0 39 12 42 12 c 0
 115 12 127 23 127 81 c 2
 127 544 l 2xdc
 127 601 115 613 42 613 c 0
 39 613 39 625 42 625 c 0xec
 75 625 115 622 159 622 c 0
 193 622 247 628 298 628 c 0
 412 628 500 580 501 464 c 0
 501 463 501 463 501 462 c 0
 501 323 382 262 281 262 c 0
 263 262 247 263 232 267 c 0
 227 268 230 281 234 280 c 0
 246 277 259 276 270 276 c 0
 351 276 427 329 427 443 c 0
 427 552 360 613 274 613 c 0
 209 613 192 609 192 542 c 2
 192 85 l 2xdc
EndSplineSet
Validated: 1
Position2: "'cpsp' Capital Spacing lookup 0 subtable" dx=5 dy=0 dh=10 dv=0
EndChar

StartChar: Thorn
Encoding: 222 222 142
Width: 538
GlyphClass: 2
Flags: HMW
HStem: 0 12<41.5 59 288.5 312> 133 14<274 312 266 332.5> 485 14<271 309> 613 12<41.5 59 41.5 78.5 288.5 312>
VStem: 126 65<81 85 85 477 492 539> 427 74
AnchorPoint: "Anchor-15" 0 0 basechar 0
AnchorPoint: "Anchor-14" 269 625 basechar 0
AnchorPoint: "Anchor-13" 0 0 basechar 0
AnchorPoint: "Anchor-12" 269 0 basechar 0
LayerCount: 2
Fore
SplineSet
272 147 m 0
 352 147 427 200 427 316 c 0
 427 425 358 485 260 485 c 0
 236 485 213 482 191 477 c 1
 191 85 l 2
 191 25 207 12 310 12 c 0
 314 12 314 0 310 0 c 0
 267 0 218 2 159 2 c 0
 116 2 75 0 43 0 c 0
 40 0 40 12 43 12 c 0
 114 12 126 23 126 81 c 2
 126 544 l 2
 126 601 114 613 43 613 c 0
 40 613 40 625 43 625 c 0
 75 625 116 622 159 622 c 0
 218 622 267 625 310 625 c 0
 314 625 314 613 310 613 c 0
 207 613 191 600 191 539 c 2
 191 492 l 1
 223 497 257 499 285 499 c 0
 403 499 498 457 501 336 c 0
 501 334 501 332 501 329 c 0
 501 192 380 133 283 133 c 0
 265 133 249 135 233 138 c 0
 229 139 231 152 236 151 c 0
 248 149 260 147 272 147 c 0
EndSplineSet
Validated: 1
Position2: "'cpsp' Capital Spacing lookup 0 subtable" dx=5 dy=0 dh=10 dv=0
EndChar

StartChar: Q
Encoding: 81 81 143
Width: 766
GlyphClass: 2
Flags: MW
HStem: -183 19<668 677> -12 21<319 369.5> 2 7 613 23<320 445>
VStem: 49 76<252.5 420.5> 641 76<243 385>
AnchorPoint: "Anchor-15" 607 579 basechar 0
AnchorPoint: "Anchor-14" 384 625 basechar 0
AnchorPoint: "Anchor-13" 501 12 basechar 0
AnchorPoint: "Anchor-12" 384 0 basechar 0
LayerCount: 2
Fore
SplineSet
745 -161 m 0xdc
 749 -159 752 -170 749 -171 c 0
 719 -178 690 -183 664 -183 c 0
 576 -183 463 -123 386 -11 c 1
 379 -12 373 -12 366 -12 c 0xdc
 174 -12 49 136 49 312 c 0
 49 529 239 636 401 636 c 0
 598 636 717 480 717 319 c 0
 717 167 609 42 466 2 c 1xbc
 523 -95 627 -164 709 -164 c 0
 721 -164 736 -163 745 -161 c 0xdc
125 347 m 0
 125 158 237 9 401 9 c 0
 535 9 641 109 641 291 c 0
 641 479 531 613 359 613 c 0
 211 613 125 511 125 347 c 0
EndSplineSet
Validated: 1
Substitution2: "Single Substitution lookup 62 subtable" Q.long
Substitution2: "'ss01' Style Set 1 lookup 54 subtable" Q.ss01
Substitution2: "'cv02' Character Variants 02 lookup 48 subtable" Q.cv02
Substitution2: "'cv01' Character Variants 01 lookup 47 subtable" Q.cv01
AlternateSubs2: "'aalt' Access All Alternates lookup 1 subtable" Q.long Q.cv01 Q.cv02 Q.ss01
Position2: "'cpsp' Capital Spacing lookup 0 subtable" dx=5 dy=0 dh=10 dv=0
EndChar

StartChar: R
Encoding: 82 82 144
Width: 673
GlyphClass: 2
Flags: MW
HStem: 0 12<41.5 59.5 263.5 282 640.5 683> 305 23<245.5 249.5> 613 12<43 61 43 81.5> 613 15<283.5 305.5>
VStem: 130 65<81 308 332 542> 399 68<459.5 521.5>
AnchorPoint: "Anchor-15" 0 0 basechar 0
AnchorPoint: "Anchor-14" 275 625 basechar 0
AnchorPoint: "Anchor-13" 0 0 basechar 0
AnchorPoint: "Anchor-12" 341 0 basechar 0
LayerCount: 2
Fore
SplineSet
683 12 m 0xdc
 686 12 686 0 683 0 c 2
 554 0 l 2
 521 0 423 118 296 311 c 1
 278 307 259 305 240 305 c 0
 227 305 208 307 195 308 c 1
 195 81 l 2
 195 23 206 12 280 12 c 0
 284 12 284 0 280 0 c 0
 247 0 209 2 162 2 c 0
 118 2 76 0 43 0 c 0
 40 0 40 12 43 12 c 0
 116 12 130 23 130 81 c 2
 130 544 l 2xdc
 130 601 118 613 45 613 c 0
 41 613 41 625 45 625 c 0xec
 77 625 118 622 162 622 c 0
 203 622 265 628 302 628 c 0
 409 628 467 575 467 496 c 0
 467 423 420 362 352 330 c 1
 516 93 598 12 683 12 c 0xdc
195 332 m 1
 214 329 237 328 254 328 c 0
 361 328 399 376 399 467 c 0
 399 576 347 613 264 613 c 0
 215 613 195 602 195 542 c 2
 195 332 l 1
EndSplineSet
Validated: 1
Substitution2: "Single Substitution lookup 62 subtable" R.short
Substitution2: "'ss01' Style Set 1 lookup 54 subtable" R.ss01
AlternateSubs2: "'aalt' Access All Alternates lookup 1 subtable" R.short R.ss01
Position2: "'cpsp' Capital Spacing lookup 0 subtable" dx=5 dy=0 dh=10 dv=0
EndChar

StartChar: Racute
Encoding: 340 340 145
Width: 673
GlyphClass: 2
Flags: HMW
HStem: 0 12<41.5 59.5 263.5 282 640.5 683> 305 23<245.5 249.5> 613 12<43 61 43 81.5> 613 15<283.5 305.5> 678 11
VStem: 130 65<81 308 332 542> 399 68<459.5 521.5>
AnchorPoint: "Anchor-15" 0 0 basechar 0
AnchorPoint: "Anchor-14" 289 784 basechar 0
AnchorPoint: "Anchor-13" 0 0 basechar 0
AnchorPoint: "Anchor-12" 341 0 basechar 0
LayerCount: 2
Fore
SplineSet
178 678 m 0xde
 172 676 169 687 173 689 c 0
 235 720 284 754 336 783 c 0
 337 784 338 784 340 784 c 0
 355 784 402 764 402 758 c 0
 402 757 402 756 400 756 c 0
 311 733 246 709 178 678 c 0xde
683 12 m 0
 686 12 686 0 683 0 c 2
 554 0 l 2
 521 0 423 118 296 311 c 1
 278 307 259 305 240 305 c 0
 227 305 208 307 195 308 c 1
 195 81 l 2
 195 23 206 12 280 12 c 0
 284 12 284 0 280 0 c 0
 247 0 209 2 162 2 c 0
 118 2 76 0 43 0 c 0
 40 0 40 12 43 12 c 0
 116 12 130 23 130 81 c 2
 130 544 l 2xde
 130 601 118 613 45 613 c 0
 41 613 41 625 45 625 c 0xee
 77 625 118 622 162 622 c 0
 203 622 265 628 302 628 c 0
 409 628 467 575 467 496 c 0
 467 423 420 362 352 330 c 1
 516 93 598 12 683 12 c 0
195 332 m 1
 214 329 237 328 254 328 c 0
 361 328 399 376 399 467 c 0
 399 576 347 613 264 613 c 0
 215 613 195 602 195 542 c 2
 195 332 l 1
EndSplineSet
Validated: 1
Substitution2: "Single Substitution lookup 62 subtable" Racute.short
Substitution2: "'ss01' Style Set 1 lookup 54 subtable" Racute.ss01
AlternateSubs2: "'aalt' Access All Alternates lookup 1 subtable" Racute.short Racute.ss01
Position2: "'cpsp' Capital Spacing lookup 0 subtable" dx=5 dy=0 dh=10 dv=0
EndChar

StartChar: Rcaron
Encoding: 344 344 146
Width: 673
GlyphClass: 2
Flags: MW
HStem: 0 12<41.5 59.5 263.5 282 640.5 683> 305 23<245.5 249.5> 613 12<43 61 43 81.5> 613 15<283.5 305.5> 682.5 51.5 714 20G<275 275> 784 7<160 166>
VStem: 130 65<81 308 332 542> 399 68<459.5 521.5>
AnchorPoint: "Anchor-15" 0 0 basechar 0
AnchorPoint: "Anchor-14" 275 625 basechar 0
AnchorPoint: "Anchor-13" 0 0 basechar 0
AnchorPoint: "Anchor-12" 341 0 basechar 0
LayerCount: 2
Fore
SplineSet
160 784 m 2xdb80
 157 786 164 792 166 791 c 2
 275 734 l 1
 383 791 l 2
 386 793 392 786 388 784 c 2
 286 687 l 2
 280 681 269 681 263 687 c 2
 160 784 l 2xdb80
683 12 m 0
 686 12 686 0 683 0 c 2
 554 0 l 2
 521 0 423 118 296 311 c 1
 278 307 259 305 240 305 c 0
 227 305 208 307 195 308 c 1
 195 81 l 2
 195 23 206 12 280 12 c 0
 284 12 284 0 280 0 c 0
 247 0 209 2 162 2 c 0
 118 2 76 0 43 0 c 0
 40 0 40 12 43 12 c 0
 116 12 130 23 130 81 c 2
 130 544 l 2xd780
 130 601 118 613 45 613 c 0
 41 613 41 625 45 625 c 0xe780
 77 625 118 622 162 622 c 0
 203 622 265 628 302 628 c 0
 409 628 467 575 467 496 c 0
 467 423 420 362 352 330 c 1
 516 93 598 12 683 12 c 0
195 332 m 1xd780
 214 329 237 328 254 328 c 0
 361 328 399 376 399 467 c 0
 399 576 347 613 264 613 c 0
 215 613 195 602 195 542 c 2
 195 332 l 1xd780
EndSplineSet
Validated: 1
Substitution2: "Single Substitution lookup 62 subtable" Rcaron.short
Substitution2: "'ss01' Style Set 1 lookup 54 subtable" Rcaron.ss01
AlternateSubs2: "'aalt' Access All Alternates lookup 1 subtable" Rcaron.short Rcaron.ss01
Position2: "'cpsp' Capital Spacing lookup 0 subtable" dx=5 dy=0 dh=10 dv=0
EndChar

StartChar: uni0156
Encoding: 342 342 147
Width: 673
GlyphClass: 2
Flags: MW
HStem: -164 79<322 337> 0 12<41.5 59.5 263.5 282 640.5 683> 305 23<245.5 249.5> 613 12<43 61 43 81.5> 613 15<283.5 305.5>
VStem: 130 65<81 308 332 542> 366 25<-181.5 -171> 399 68<459.5 521.5>
AnchorPoint: "Anchor-15" 0 0 basechar 0
AnchorPoint: "Anchor-14" 275 625 basechar 0
AnchorPoint: "Anchor-13" 0 0 basechar 0
AnchorPoint: "Anchor-12" 343 -276 basechar 0
LayerCount: 2
Fore
SplineSet
683 12 m 0x6e
 686 12 686 0 683 0 c 2
 554 0 l 2
 521 0 423 118 296 311 c 1
 278 307 259 305 240 305 c 0
 227 305 208 307 195 308 c 1
 195 81 l 2
 195 23 206 12 280 12 c 0
 284 12 284 0 280 0 c 0
 247 0 209 2 162 2 c 0
 118 2 76 0 43 0 c 0
 40 0 40 12 43 12 c 0
 116 12 130 23 130 81 c 2
 130 544 l 2x6e
 130 601 118 613 45 613 c 0
 41 613 41 625 45 625 c 0x76
 77 625 118 622 162 622 c 0
 203 622 265 628 302 628 c 0
 409 628 467 575 467 496 c 0x6f
 467 423 420 362 352 330 c 1
 516 93 598 12 683 12 c 0x6e
195 332 m 1
 214 329 237 328 254 328 c 0
 361 328 399 376 399 467 c 0x6f
 399 576 347 613 264 613 c 0
 215 613 195 602 195 542 c 2
 195 332 l 1
334 -85 m 0xee
 371 -85 391 -111 391 -158 c 0
 391 -205 367 -241 330 -275 c 0
 325 -278 318 -271 322 -267 c 0
 352 -241 366 -211 366 -178 c 0
 366 -164 364 -155 360 -149 c 1
 355 -159 344 -164 330 -164 c 0
 306 -164 291 -148 291 -125 c 0
 291 -95 310 -85 334 -85 c 0xee
EndSplineSet
Validated: 1
Substitution2: "Single Substitution lookup 62 subtable" uni0156.short
Substitution2: "'ss01' Style Set 1 lookup 54 subtable" uni0156.ss01
AlternateSubs2: "'aalt' Access All Alternates lookup 1 subtable" uni0156.short uni0156.ss01
Position2: "'cpsp' Capital Spacing lookup 0 subtable" dx=5 dy=0 dh=10 dv=0
EndChar

StartChar: uni1E5A
Encoding: 7770 7770 148
Width: 673
GlyphClass: 2
Flags: MW
HStem: -190 84<328 355.5> 0 12<41.5 59.5 263.5 282 640.5 683> 305 23<245.5 249.5> 613 12<43 61 43 81.5> 613 15<283.5 305.5>
VStem: 130 65<81 308 332 542> 298 86<-161.5 -134.5> 399 68<459.5 521.5>
AnchorPoint: "Anchor-15" 0 0 basechar 0
AnchorPoint: "Anchor-14" 275 625 basechar 0
AnchorPoint: "Anchor-13" 0 0 basechar 0
AnchorPoint: "Anchor-12" 343 -207 basechar 0
LayerCount: 2
Fore
SplineSet
683 12 m 0x6d
 686 12 686 0 683 0 c 2
 554 0 l 2
 521 0 423 118 296 311 c 1
 278 307 259 305 240 305 c 0
 227 305 208 307 195 308 c 1
 195 81 l 2
 195 23 206 12 280 12 c 0
 284 12 284 0 280 0 c 0
 247 0 209 2 162 2 c 0
 118 2 76 0 43 0 c 0
 40 0 40 12 43 12 c 0
 116 12 130 23 130 81 c 2
 130 544 l 2x6d
 130 601 118 613 45 613 c 0
 41 613 41 625 45 625 c 0x75
 77 625 118 622 162 622 c 0
 203 622 265 628 302 628 c 0
 409 628 467 575 467 496 c 0
 467 423 420 362 352 330 c 1
 516 93 598 12 683 12 c 0x6d
195 332 m 1
 214 329 237 328 254 328 c 0
 361 328 399 376 399 467 c 0
 399 576 347 613 264 613 c 0
 215 613 195 602 195 542 c 2
 195 332 l 1
342 -106 m 0xef
 369 -106 384 -121 384 -148 c 0
 384 -175 369 -190 342 -190 c 0
 314 -190 298 -175 298 -148 c 0
 298 -121 314 -106 342 -106 c 0xef
EndSplineSet
Validated: 1
Substitution2: "Single Substitution lookup 62 subtable" uni1E5A.short
Substitution2: "'aalt' Access All Alternates lookup 0 subtable" uni1E5A.short
Position2: "'cpsp' Capital Spacing lookup 0 subtable" dx=5 dy=0 dh=10 dv=0
EndChar

StartChar: uni1E5C
Encoding: 7772 7772 149
Width: 673
GlyphClass: 2
Flags: MW
HStem: -190 84<328 355.5> 0 12<41.5 59.5 263.5 282 640.5 683> 305 23<245.5 249.5> 613 12<43 61 43 81.5> 613 15<283.5 305.5> 722 28<145 400 149 400>
VStem: 130 65<81 308 332 542> 298 86<-161.5 -134.5> 399 68<459.5 521.5>
AnchorPoint: "Anchor-15" 0 0 basechar 0
AnchorPoint: "Anchor-14" 277 740 basechar 0
AnchorPoint: "Anchor-13" 0 0 basechar 0
AnchorPoint: "Anchor-12" 343 -207 basechar 0
LayerCount: 2
Fore
SplineSet
149 722 m 2x6e80
 141 722 141 750 149 750 c 2
 400 750 l 2
 408 750 408 722 400 722 c 2
 149 722 l 2x6e80
683 12 m 0
 686 12 686 0 683 0 c 2
 554 0 l 2
 521 0 423 118 296 311 c 1
 278 307 259 305 240 305 c 0
 227 305 208 307 195 308 c 1
 195 81 l 2
 195 23 206 12 280 12 c 0
 284 12 284 0 280 0 c 0
 247 0 209 2 162 2 c 0
 118 2 76 0 43 0 c 0
 40 0 40 12 43 12 c 0
 116 12 130 23 130 81 c 2
 130 544 l 2x6e80
 130 601 118 613 45 613 c 0
 41 613 41 625 45 625 c 0x7680
 77 625 118 622 162 622 c 0
 203 622 265 628 302 628 c 0
 409 628 467 575 467 496 c 0
 467 423 420 362 352 330 c 1
 516 93 598 12 683 12 c 0
195 332 m 1
 214 329 237 328 254 328 c 0
 361 328 399 376 399 467 c 0
 399 576 347 613 264 613 c 0
 215 613 195 602 195 542 c 2
 195 332 l 1
342 -106 m 0xef80
 369 -106 384 -121 384 -148 c 0
 384 -175 369 -190 342 -190 c 0
 314 -190 298 -175 298 -148 c 0
 298 -121 314 -106 342 -106 c 0xef80
EndSplineSet
Validated: 1
Substitution2: "Single Substitution lookup 62 subtable" uni1E5C.short
Substitution2: "'aalt' Access All Alternates lookup 0 subtable" uni1E5C.short
Position2: "'cpsp' Capital Spacing lookup 0 subtable" dx=5 dy=0 dh=10 dv=0
EndChar

StartChar: uni1E5E
Encoding: 7774 7774 150
Width: 673
GlyphClass: 2
Flags: MW
HStem: -113 28<211 466 215 466> 0 12<41.5 59.5 263.5 282 640.5 683> 305 23<245.5 249.5> 613 12<43 61 43 81.5> 613 15<283.5 305.5>
VStem: 130 65<81 308 332 542> 399 68<459.5 521.5>
AnchorPoint: "Anchor-15" 0 0 basechar 0
AnchorPoint: "Anchor-14" 275 625 basechar 0
AnchorPoint: "Anchor-13" 0 0 basechar 0
AnchorPoint: "Anchor-12" 343 -170 basechar 0
LayerCount: 2
Fore
SplineSet
683 12 m 0xee
 686 12 686 0 683 0 c 2
 554 0 l 2
 521 0 423 118 296 311 c 1
 278 307 259 305 240 305 c 0
 227 305 208 307 195 308 c 1
 195 81 l 2
 195 23 206 12 280 12 c 0
 284 12 284 0 280 0 c 0
 247 0 209 2 162 2 c 0
 118 2 76 0 43 0 c 0
 40 0 40 12 43 12 c 0
 116 12 130 23 130 81 c 2
 130 544 l 2xee
 130 601 118 613 45 613 c 0
 41 613 41 625 45 625 c 0xf6
 77 625 118 622 162 622 c 0
 203 622 265 628 302 628 c 0
 409 628 467 575 467 496 c 0
 467 423 420 362 352 330 c 1
 516 93 598 12 683 12 c 0xee
195 332 m 1
 214 329 237 328 254 328 c 0
 361 328 399 376 399 467 c 0
 399 576 347 613 264 613 c 0
 215 613 195 602 195 542 c 2
 195 332 l 1
466 -85 m 2
 474 -85 474 -113 466 -113 c 2
 215 -113 l 2
 207 -113 207 -85 215 -85 c 2
 466 -85 l 2
EndSplineSet
Validated: 1
Substitution2: "Single Substitution lookup 62 subtable" uni1E5E.short
Substitution2: "'aalt' Access All Alternates lookup 0 subtable" uni1E5E.short
Position2: "'cpsp' Capital Spacing lookup 0 subtable" dx=5 dy=0 dh=10 dv=0
EndChar

StartChar: S
Encoding: 83 83 151
Width: 491
GlyphClass: 2
Flags: MW
HStem: -12 16<207 283.5 201 297.5> 621 15<226 290.5 226 305.5>
VStem: 68 11 86 59<466.5 532.5> 373 64<111.5 167.5>
AnchorPoint: "Anchor-15" 0 0 basechar 0
AnchorPoint: "Anchor-14" 255 625 basechar 0
AnchorPoint: "Anchor-13" 0 0 basechar 0
AnchorPoint: "Anchor-12" 265 0 basechar 0
LayerCount: 2
Fore
SplineSet
145 508 m 0
 145 425 215 385 286 343 c 0
 360 298 437 255 437 159 c 0
 437 64 364 -12 231 -12 c 0
 183 -12 136 -2 90 23 c 0
 83 27 82 33 81 42 c 2
 68 178 l 2
 67 184 78 185 79 180 c 0xe8
 97 100 148 4 254 4 c 0
 313 4 373 32 373 119 c 0
 373 216 300 259 227 302 c 0
 157 345 86 387 86 480 c 0
 86 585 180 636 272 636 c 0
 309 636 350 628 389 612 c 0
 400 608 404 602 404 595 c 2
 411 480 l 2
 411 475 401 474 400 480 c 0
 392 533 355 621 256 621 c 0
 177 621 145 566 145 508 c 0
EndSplineSet
Validated: 1
Position2: "'cpsp' Capital Spacing lookup 0 subtable" dx=5 dy=0 dh=10 dv=0
EndChar

StartChar: Sacute
Encoding: 346 346 152
Width: 491
GlyphClass: 2
Flags: HMW
HStem: -12 16<207 283.5 201 297.5> 621 15<226 290.5 226 305.5> 679 10
VStem: 68 11 86 59<466.5 532.5> 373 64<111.5 167.5>
AnchorPoint: "Anchor-15" 0 0 basechar 0
AnchorPoint: "Anchor-14" 255 625 basechar 0
AnchorPoint: "Anchor-13" 0 0 basechar 0
AnchorPoint: "Anchor-12" 265 0 basechar 0
LayerCount: 2
Fore
SplineSet
158 679 m 0
 152 676 149 687 153 689 c 0
 215 721 264 754 316 784 c 0
 317 784 318 785 319 785 c 0
 334 785 382 764 382 758 c 0
 382 757 382 756 380 756 c 0
 291 734 226 709 158 679 c 0
145 508 m 0
 145 425 215 385 286 343 c 0
 360 298 437 255 437 159 c 0
 437 64 364 -12 231 -12 c 0
 183 -12 136 -2 90 23 c 0
 83 27 82 33 81 42 c 2
 68 178 l 2
 67 184 78 185 79 180 c 0xf4
 97 100 148 4 254 4 c 0
 313 4 373 32 373 119 c 0
 373 216 300 259 227 302 c 0
 157 345 86 387 86 480 c 0
 86 585 180 636 272 636 c 0
 309 636 350 628 389 612 c 0
 400 608 404 602 404 595 c 2
 411 480 l 2
 411 475 401 474 400 480 c 0
 392 533 355 621 256 621 c 0
 177 621 145 566 145 508 c 0
EndSplineSet
Validated: 1
Substitution2: "'locl' Localized Forms in Latin lookup 15 subtable" Sacute.loclPLK
Substitution2: "'aalt' Access All Alternates lookup 0 subtable" Sacute.loclPLK
Position2: "'cpsp' Capital Spacing lookup 0 subtable" dx=5 dy=0 dh=10 dv=0
EndChar

StartChar: uniA78B
Encoding: 42891 42891 153
Width: 247
Flags: HMW
LayerCount: 2
Fore
SplineSet
78 725 m 0
 77 730 102 733 124 733 c 0
 145 733 172 730 169 725 c 0
 144 594 129 426 129 293 c 0
 129 289 114 289 114 293 c 0
 109 426 102 594 78 725 c 0
EndSplineSet
Validated: 33
Position2: "'cpsp' Capital Spacing lookup 0 subtable" dx=5 dy=0 dh=10 dv=0
EndChar

